{"glyphs":{"0":{"ha":760,"x_min":54,"x_max":705,"o":"m 54 543 q 188 1006 54 868 q 380 1085 267 1085 q 572 1006 492 1085 q 705 543 705 868 q 572 79 705 217 q 380 0 492 0 q 188 79 267 0 q 54 543 54 217 m 380 977 q 264 928 313 977 q 163 543 163 814 q 264 157 163 271 q 380 109 313 109 q 495 157 447 109 q 597 543 597 271 q 495 928 597 814 q 380 977 447 977 z "},"1":{"ha":380,"x_min":54,"x_max":326,"o":"m 326 54 q 310 16 326 32 q 271 0 294 0 q 233 16 249 0 q 217 54 217 32 l 217 956 l 130 926 q 109 922 119 922 q 70 938 86 922 q 54 977 54 954 q 71 1015 54 999 q 89 1027 79 1023 l 252 1082 q 271 1085 260 1085 q 310 1069 294 1085 q 326 1031 326 1053 l 326 54 z "},"2":{"ha":760,"x_min":54,"x_max":705,"o":"m 651 109 q 689 93 673 109 q 705 54 705 77 q 689 16 705 32 q 651 0 673 0 l 109 0 q 70 16 86 0 q 54 54 54 32 q 70 93 54 77 l 533 606 q 597 760 597 669 q 533 913 597 850 q 380 977 470 977 q 226 913 290 977 q 163 760 163 850 q 147 721 163 737 q 109 705 131 705 q 70 721 86 705 q 54 760 54 737 q 150 990 54 895 q 380 1085 245 1085 q 610 990 515 1085 q 705 760 705 895 q 610 529 705 625 l 231 109 l 651 109 z "},"3":{"ha":760,"x_min":54,"x_max":705,"o":"m 380 543 q 341 558 357 543 q 326 597 326 574 q 341 635 326 619 q 380 651 357 651 q 495 699 447 651 q 543 814 543 747 q 495 929 543 881 q 380 977 447 977 q 265 929 313 977 q 217 814 217 881 q 201 775 217 791 q 163 760 185 760 q 124 775 140 760 q 109 814 109 791 q 188 1006 109 926 q 380 1085 267 1085 q 572 1006 492 1085 q 651 814 651 926 q 551 603 651 694 q 610 556 583 583 q 705 326 705 460 q 610 95 705 191 q 380 0 515 0 q 150 95 245 0 q 54 326 54 191 q 70 364 54 348 q 109 380 86 380 q 147 364 131 380 q 163 326 163 348 q 226 172 163 235 q 380 109 290 109 q 533 172 470 109 q 597 326 597 235 q 533 479 597 416 q 380 543 470 543 z "},"4":{"ha":868,"x_min":54,"x_max":814,"o":"m 543 380 l 543 857 l 212 380 l 543 380 m 109 271 q 70 287 86 271 q 54 326 54 303 q 64 357 54 343 l 553 1063 q 597 1085 568 1085 q 635 1069 619 1085 q 651 1031 651 1053 l 651 380 l 760 380 q 798 364 782 380 q 814 326 814 348 q 798 287 814 303 q 760 271 782 271 l 651 271 l 651 54 q 635 16 651 32 q 597 0 619 0 q 558 16 574 0 q 543 54 543 32 l 543 271 l 109 271 z "},"5":{"ha":814,"x_min":54,"x_max":760,"o":"m 651 1085 q 689 1069 673 1085 q 705 1031 705 1053 q 689 992 705 1008 q 651 977 673 977 l 217 977 l 217 705 l 407 705 q 656 602 553 705 q 760 353 760 498 q 656 103 760 207 q 407 0 553 0 q 158 103 261 0 q 54 353 54 207 q 70 391 54 375 q 109 407 86 407 q 147 391 131 407 q 163 353 163 375 q 234 180 163 252 q 407 109 306 109 q 579 180 508 109 q 651 353 651 252 q 579 525 651 454 q 407 597 508 597 l 163 597 q 124 613 140 597 q 109 651 109 629 l 109 1031 q 124 1069 109 1053 q 163 1085 140 1085 l 651 1085 z "},"6":{"ha":760,"x_min":54,"x_max":705,"o":"m 319 646 q 380 651 349 651 q 610 556 515 651 q 705 326 705 460 q 610 95 705 191 q 380 0 515 0 q 150 95 245 0 q 54 326 54 191 q 106 503 54 425 l 439 1055 q 450 1069 444 1063 q 488 1085 466 1085 q 527 1069 511 1085 q 543 1031 543 1053 q 535 1003 543 1015 l 319 646 m 597 326 q 533 479 597 416 q 380 543 470 543 q 226 479 290 543 q 163 326 163 416 q 226 172 163 235 q 380 109 290 109 q 533 172 470 109 q 597 326 597 235 z "},"7":{"ha":760,"x_min":54,"x_max":705,"o":"m 147 16 q 109 0 131 0 q 70 16 86 0 q 54 54 54 32 q 65 87 54 71 l 559 977 l 109 977 q 70 992 86 977 q 54 1031 54 1008 q 70 1069 54 1053 q 109 1085 86 1085 l 651 1085 q 689 1069 673 1085 q 705 1031 705 1053 q 697 1002 705 1015 l 157 31 q 147 16 153 22 z "},"8":{"ha":760,"x_min":54,"x_max":705,"o":"m 380 977 q 265 929 313 977 q 217 814 217 881 q 265 699 217 747 q 380 651 313 651 q 495 699 447 651 q 543 814 543 747 q 495 929 543 881 q 380 977 447 977 m 380 543 q 226 479 290 543 q 163 326 163 416 q 226 172 163 235 q 380 109 290 109 q 533 172 470 109 q 597 326 597 235 q 533 479 597 416 q 380 543 470 543 m 208 603 q 188 622 198 612 q 109 814 109 701 q 188 1006 109 926 q 380 1085 267 1085 q 572 1006 492 1085 q 651 814 651 926 q 572 622 651 701 q 551 603 562 612 q 610 556 583 583 q 705 326 705 460 q 610 95 705 191 q 380 0 515 0 q 150 95 245 0 q 54 326 54 191 q 150 556 54 460 q 208 603 177 583 z "},"9":{"ha":760,"x_min":54,"x_max":705,"o":"m 440 439 q 380 434 411 434 q 150 529 245 434 q 54 760 54 625 q 150 990 54 895 q 380 1085 245 1085 q 610 990 515 1085 q 705 760 705 895 q 653 582 705 660 l 320 30 q 310 16 316 22 q 271 0 294 0 q 233 16 249 0 q 217 54 217 32 q 224 82 217 70 l 440 439 m 163 760 q 226 606 163 669 q 380 543 290 543 q 533 606 470 543 q 597 760 597 669 q 533 913 597 850 q 380 977 470 977 q 226 913 290 977 q 163 760 163 850 z "}," ":{"ha":380,"x_min":0,"x_max":0,"o":""},"!":{"ha":271,"x_min":54,"x_max":217,"o":"m 217 81 q 193 24 217 47 q 136 0 170 0 q 78 24 102 0 q 54 81 54 47 q 78 139 54 115 q 136 163 102 163 q 193 139 170 163 q 217 81 217 115 m 81 1031 q 97 1069 81 1053 q 136 1085 113 1085 q 174 1069 158 1085 q 190 1031 190 1053 l 190 271 q 174 233 190 249 q 136 217 158 217 q 98 233 113 217 q 81 271 81 249 l 81 1031 z "},"\"":{"ha":380,"x_min":54,"x_max":326,"o":"m 149 827 q 137 799 149 810 q 109 787 125 787 q 80 799 92 787 q 68 827 68 810 l 54 1025 l 54 1031 q 70 1069 54 1053 q 109 1085 86 1085 q 147 1069 131 1085 q 163 1031 163 1053 l 163 1025 l 149 827 m 312 827 q 300 799 312 810 q 271 787 288 787 q 242 799 254 787 q 231 827 231 810 l 217 1025 l 217 1031 q 233 1069 217 1053 q 271 1085 249 1085 q 310 1069 294 1085 q 326 1031 326 1053 l 326 1025 l 312 827 z "},"#":{"ha":868,"x_min":50,"x_max":813,"o":"m 264 54 q 241 16 260 32 q 200 0 222 0 q 164 16 178 0 q 155 54 151 32 l 203 326 l 95 326 q 60 342 73 326 q 50 370 50 353 q 50 380 50 374 q 73 418 54 402 q 114 434 92 434 l 222 434 l 260 651 l 152 651 q 117 667 130 651 q 107 705 104 683 q 130 744 111 728 q 172 760 149 760 l 280 760 l 328 1031 q 350 1069 332 1053 q 391 1085 369 1085 q 427 1069 414 1085 q 436 1031 440 1053 l 389 760 l 551 760 l 599 1031 q 622 1069 603 1053 q 663 1085 640 1085 q 698 1069 685 1085 q 707 1031 711 1053 l 660 760 l 768 760 q 804 744 791 760 q 813 715 813 732 q 812 705 813 711 q 790 667 809 683 q 749 651 771 651 l 640 651 l 602 434 l 711 434 q 746 418 733 434 q 755 380 760 402 q 733 341 751 357 q 692 326 714 326 l 583 326 l 535 54 q 512 16 531 32 q 471 0 494 0 q 436 16 449 0 q 427 54 422 32 l 475 326 l 312 326 l 264 54 m 369 651 l 331 434 l 494 434 l 532 651 l 369 651 z "},"$":{"ha":719,"x_min":54,"x_max":665,"o":"m 326 1 q 312 1 319 1 q 91 115 178 12 q 65 149 77 131 q 54 181 54 163 q 70 219 54 203 q 109 235 86 235 q 155 210 138 235 q 174 186 163 197 q 326 109 231 117 l 326 546 q 172 637 235 564 q 109 835 100 722 q 203 1019 118 947 q 326 1079 259 1066 l 326 1139 q 341 1178 326 1162 q 380 1194 357 1194 q 418 1178 402 1194 q 434 1139 434 1162 l 434 1078 q 586 988 524 1061 q 612 951 601 970 q 621 922 621 939 q 605 884 621 900 q 566 868 589 868 q 528 884 544 868 q 519 896 522 890 q 503 918 512 907 q 434 966 473 952 l 434 637 q 588 536 524 612 q 665 330 665 446 q 663 299 665 315 q 550 78 652 165 q 434 14 496 33 l 434 -54 q 418 -93 434 -77 q 380 -109 402 -109 q 341 -93 357 -109 q 326 -54 326 -77 l 326 1 m 326 966 q 274 937 298 957 q 217 826 222 892 q 256 707 212 759 q 326 659 285 672 l 326 966 m 434 130 q 479 161 458 142 q 555 308 548 218 q 505 467 563 398 q 434 522 474 503 l 434 130 z "},"%":{"ha":1194,"x_min":54,"x_max":1139,"o":"m 597 814 q 517 622 597 701 q 326 543 438 543 q 134 622 213 543 q 54 814 54 701 q 134 1006 54 926 q 326 1085 213 1085 q 517 1006 438 1085 q 597 814 597 926 m 597 271 q 676 463 597 384 q 868 543 755 543 q 1060 463 981 543 q 1139 271 1139 384 q 1060 79 1139 159 q 868 0 981 0 q 676 79 755 0 q 597 271 597 159 m 326 977 q 211 929 258 977 q 163 814 163 881 q 211 699 163 747 q 326 651 258 651 q 440 699 393 651 q 488 814 488 747 q 440 929 488 881 q 326 977 393 977 m 868 434 q 753 386 801 434 q 705 271 705 338 q 753 156 705 204 q 868 109 801 109 q 983 156 935 109 q 1031 271 1031 204 q 983 386 1031 338 q 868 434 935 434 m 217 0 q 179 16 195 0 q 163 54 163 32 q 176 91 163 75 l 932 1063 q 977 1085 951 1085 q 1015 1069 999 1085 q 1031 1031 1031 1053 q 1020 998 1031 1013 l 258 18 q 217 0 239 0 z "},"&":{"ha":977,"x_min":54,"x_max":922,"o":"m 256 745 l 340 661 l 421 724 q 488 841 488 778 q 449 937 488 897 q 353 977 409 977 q 257 937 296 977 q 217 841 217 897 q 256 745 217 785 m 581 265 l 329 518 l 252 460 q 163 312 163 391 q 218 164 163 220 q 353 109 274 109 q 487 164 431 109 l 581 265 m 416 585 l 656 345 l 776 473 q 814 488 791 488 q 852 472 836 488 q 868 434 868 456 q 854 397 868 413 l 732 268 l 907 91 q 922 54 922 76 q 906 16 922 32 q 868 0 890 0 q 830 15 846 0 l 658 188 l 564 87 q 353 0 476 0 q 142 87 229 0 q 54 312 54 175 q 182 536 54 435 l 254 593 l 180 668 q 109 841 109 740 q 180 1014 109 942 q 353 1085 252 1085 q 525 1014 454 1085 q 597 841 597 942 q 498 648 597 733 l 416 585 z "},"'":{"ha":217,"x_min":54,"x_max":163,"o":"m 149 827 q 137 799 149 810 q 109 787 125 787 q 80 799 92 787 q 68 827 68 810 l 54 1025 l 54 1031 q 70 1069 54 1053 q 109 1085 86 1085 q 147 1069 131 1085 q 163 1031 163 1053 l 163 1025 l 149 827 z "},"(":{"ha":380,"x_min":54,"x_max":325,"o":"m 219 1049 q 232 1069 223 1060 q 271 1085 248 1085 q 309 1069 293 1085 q 325 1031 325 1053 q 316 1002 323 1015 q 161 380 161 691 q 317 -243 161 68 q 325 -271 325 -256 q 309 -310 325 -294 q 271 -326 293 -326 q 232 -309 248 -326 q 219 -289 224 -300 q 54 381 54 47 q 219 1049 54 715 z "},")":{"ha":380,"x_min":54,"x_max":326,"o":"m 160 1049 q 326 381 326 715 q 160 -289 326 47 q 147 -309 155 -300 q 109 -326 131 -326 q 70 -310 86 -326 q 54 -271 54 -294 q 62 -243 54 -256 q 218 380 218 68 q 63 1002 218 691 q 54 1031 56 1015 q 70 1069 54 1053 q 109 1085 86 1085 q 147 1069 131 1085 q 160 1049 156 1060 z "},"*":{"ha":529,"x_min":58,"x_max":473,"o":"m 245 862 l 113 867 q 94 871 103 868 q 64 899 73 878 q 58 922 58 910 q 61 940 58 931 q 89 971 68 962 q 130 973 109 981 q 146 964 140 970 l 253 885 l 214 1013 q 211 1031 211 1021 q 227 1069 211 1053 q 265 1085 243 1085 q 303 1069 288 1085 q 319 1031 319 1053 q 317 1013 319 1021 l 277 884 l 385 964 q 401 973 392 970 q 442 971 422 981 q 470 940 463 962 q 473 922 473 930 q 468 899 473 910 q 437 871 458 878 q 419 867 428 868 l 286 862 l 395 786 q 409 773 403 781 q 420 733 422 755 q 399 697 417 711 q 359 686 385 686 q 323 707 337 689 q 315 723 317 714 l 266 846 l 216 723 q 208 707 214 714 q 164 686 194 686 q 132 697 146 686 q 111 733 114 711 q 122 773 109 755 q 136 786 128 781 l 245 862 z "},"+":{"ha":760,"x_min":54,"x_max":705,"o":"m 326 814 q 341 852 326 836 q 380 868 357 868 q 418 852 402 868 q 434 814 434 836 l 434 597 l 651 597 q 689 581 673 597 q 705 543 705 565 q 689 504 705 520 q 651 488 673 488 l 434 488 l 434 271 q 418 233 434 249 q 380 217 402 217 q 341 233 357 217 q 326 271 326 249 l 326 488 l 109 488 q 70 504 86 488 q 54 543 54 520 q 70 581 54 565 q 109 597 86 597 l 326 597 l 326 814 z "},",":{"ha":271,"x_min":54,"x_max":217,"o":"m 78 24 q 54 81 54 47 q 78 139 54 115 q 136 163 102 163 q 193 139 170 163 q 217 81 217 115 q 158 -141 217 -52 q 122 -163 146 -163 q 93 -151 105 -163 q 81 -122 81 -139 q 93 -94 81 -105 q 78 24 140 -41 z "},"-":{"ha":543,"x_min":54,"x_max":488,"o":"m 109 326 q 70 341 86 326 q 54 380 54 357 q 70 418 54 402 q 109 434 86 434 l 434 434 q 472 418 456 434 q 488 380 488 402 q 472 341 488 357 q 434 326 456 326 l 109 326 z "},".":{"ha":271,"x_min":54,"x_max":217,"o":"m 217 81 q 193 24 217 47 q 136 0 170 0 q 78 24 102 0 q 54 81 54 47 q 78 139 54 115 q 136 163 102 163 q 193 139 170 163 q 217 81 217 115 z "},"/":{"ha":651,"x_min":54,"x_max":597,"o":"m 505 1069 q 543 1085 520 1085 q 581 1069 565 1085 q 597 1031 597 1053 q 592 1008 597 1019 l 158 -77 q 147 -92 154 -85 q 109 -109 131 -109 q 70 -93 86 -109 q 54 -54 54 -77 q 59 -31 54 -42 l 493 1054 q 505 1069 497 1062 z "},":":{"ha":271,"x_min":54,"x_max":217,"o":"m 217 81 q 193 24 217 47 q 136 0 170 0 q 78 24 102 0 q 54 81 54 47 q 78 139 54 115 q 136 163 102 163 q 193 139 170 163 q 217 81 217 115 m 217 679 q 193 621 217 645 q 136 597 170 597 q 78 621 102 597 q 54 679 54 645 q 78 736 54 713 q 136 760 102 760 q 193 736 170 760 q 217 679 217 713 z "},";":{"ha":271,"x_min":54,"x_max":217,"o":"m 217 679 q 193 621 217 645 q 136 597 170 597 q 78 621 102 597 q 54 679 54 645 q 78 736 54 713 q 136 760 102 760 q 193 736 170 760 q 217 679 217 713 m 78 24 q 54 81 54 47 q 78 139 54 115 q 136 163 102 163 q 193 139 170 163 q 217 81 217 115 q 158 -141 217 -52 q 122 -163 143 -163 q 93 -151 105 -163 q 81 -122 81 -139 q 93 -94 81 -105 q 78 24 140 -41 z "},"<":{"ha":760,"x_min":54,"x_max":705,"o":"m 84 537 l 624 861 q 651 868 636 868 q 689 852 673 868 q 705 814 705 836 q 677 766 705 785 l 214 488 l 677 210 q 705 163 705 192 q 689 124 705 140 q 651 109 673 109 q 624 115 636 109 l 84 439 q 54 488 54 458 q 84 537 54 518 z "},"=":{"ha":705,"x_min":54,"x_max":651,"o":"m 109 597 q 70 613 86 597 q 54 651 54 629 q 70 689 54 673 q 109 705 86 705 l 597 705 q 635 689 619 705 q 651 651 651 673 q 635 613 651 629 q 597 597 619 597 l 109 597 m 597 380 q 635 364 619 380 q 651 326 651 348 q 635 287 651 303 q 597 271 619 271 l 109 271 q 70 287 86 271 q 54 326 54 303 q 70 364 54 348 q 109 380 86 380 l 597 380 z "},">":{"ha":760,"x_min":54,"x_max":705,"o":"m 705 488 q 675 439 705 458 l 136 115 q 109 109 123 109 q 70 124 86 109 q 54 163 54 140 q 82 210 54 192 l 546 488 l 82 766 q 54 814 54 785 q 70 852 54 836 q 109 868 86 868 q 136 861 123 868 l 675 537 q 705 488 705 518 z "},"?":{"ha":760,"x_min":54,"x_max":705,"o":"m 163 760 q 147 721 163 737 q 109 705 131 705 q 70 721 86 705 q 54 760 54 737 q 150 990 54 895 q 380 1085 245 1085 q 610 990 515 1085 q 705 760 705 895 q 610 529 705 625 l 498 425 q 434 271 434 361 q 418 233 434 249 q 380 217 402 217 q 341 233 357 217 q 326 271 326 249 q 421 502 326 406 l 533 606 q 597 760 597 669 q 533 913 597 850 q 380 977 470 977 q 226 913 290 977 q 163 760 163 850 m 461 81 q 437 24 461 47 q 380 0 414 0 q 322 24 346 0 q 298 81 298 47 q 322 139 298 115 q 380 163 346 163 q 437 139 414 163 q 461 81 461 115 z "},"@":{"ha":1519,"x_min":54,"x_max":1465,"o":"m 760 651 q 568 572 647 651 q 488 380 488 492 q 568 188 488 267 q 760 109 647 109 q 951 188 872 109 q 1031 380 1031 267 q 951 572 1031 492 q 760 651 872 651 m 1031 113 q 760 0 917 0 q 491 111 602 0 q 380 380 380 222 q 491 648 380 537 q 760 760 602 760 q 1028 648 917 760 q 1139 380 1139 537 l 1139 109 q 1194 54 1139 54 q 1356 380 1356 54 q 1182 802 1356 627 q 760 977 1007 977 q 337 802 512 977 q 163 380 163 627 q 337 -42 163 132 q 760 -217 512 -217 q 1005 -167 892 -217 q 1032 -159 1017 -159 q 1070 -175 1055 -159 q 1086 -214 1086 -191 q 1071 -252 1086 -236 q 1052 -264 1062 -260 q 760 -326 918 -326 q 261 -119 467 -326 q 54 380 54 87 q 261 879 54 672 q 760 1085 467 1085 q 1258 879 1052 1085 q 1465 380 1465 672 q 1194 -54 1465 -54 q 1031 113 1031 -54 z "},"A":{"ha":977,"x_min":54,"x_max":922,"o":"m 294 380 l 159 33 q 147 16 155 24 q 109 0 131 0 q 70 16 86 0 q 54 54 54 32 q 59 77 54 67 l 436 1047 q 450 1069 440 1059 q 488 1085 466 1085 q 527 1069 511 1085 q 541 1047 536 1059 l 918 77 q 922 54 922 67 q 906 16 922 32 q 868 0 890 0 q 830 16 846 0 q 818 33 822 24 l 683 380 l 294 380 m 641 488 l 488 881 l 336 488 l 641 488 z "},"B":{"ha":760,"x_min":54,"x_max":705,"o":"m 163 977 l 163 651 l 326 651 q 440 699 393 651 q 488 814 488 747 q 440 929 488 881 q 326 977 393 977 l 163 977 m 163 543 l 163 109 l 380 109 q 533 172 470 109 q 597 326 597 235 q 533 479 597 416 q 380 543 470 543 l 163 543 m 109 1085 l 326 1085 q 517 1006 438 1085 q 597 814 597 926 q 517 622 597 701 q 610 556 568 598 q 705 326 705 460 q 610 95 705 191 q 380 0 515 0 l 109 0 q 70 16 86 0 q 54 54 54 32 l 54 1031 q 70 1069 54 1053 q 109 1085 86 1085 z "},"C":{"ha":1004,"x_min":54,"x_max":958,"o":"m 899 213 q 938 197 922 213 q 954 159 954 181 q 938 121 954 136 q 597 0 787 0 q 213 159 372 0 q 54 543 54 318 q 213 926 54 767 q 597 1085 372 1085 q 942 961 791 1085 q 958 922 958 945 q 942 884 958 900 q 903 868 926 868 q 865 884 881 868 q 597 977 750 977 q 290 849 417 977 q 163 543 163 722 q 290 236 163 363 q 597 109 417 109 q 868 203 752 109 q 899 213 882 213 z "},"D":{"ha":922,"x_min":54,"x_max":868,"o":"m 326 109 q 632 236 505 109 q 760 543 760 363 q 632 849 760 722 q 326 977 505 977 l 163 977 l 163 109 l 326 109 m 326 1085 q 709 926 550 1085 q 868 543 868 767 q 709 159 868 318 q 326 0 550 0 l 109 0 q 70 16 86 0 q 54 54 54 32 l 54 1031 q 70 1069 54 1053 q 109 1085 86 1085 l 326 1085 z "},"E":{"ha":868,"x_min":54,"x_max":814,"o":"m 109 1085 l 760 1085 q 798 1069 782 1085 q 814 1031 814 1053 q 798 992 814 1008 q 760 977 782 977 l 163 977 l 163 597 l 597 597 q 635 581 619 597 q 651 543 651 565 q 635 504 651 520 q 597 488 619 488 l 163 488 l 163 109 l 760 109 q 798 93 782 109 q 814 54 814 77 q 798 16 814 32 q 760 0 782 0 l 109 0 q 70 16 86 0 q 54 54 54 32 l 54 1031 q 70 1069 54 1053 q 109 1085 86 1085 z "},"F":{"ha":868,"x_min":54,"x_max":814,"o":"m 109 1085 l 760 1085 q 798 1069 782 1085 q 814 1031 814 1053 q 798 992 814 1008 q 760 977 782 977 l 163 977 l 163 597 l 597 597 q 635 581 619 597 q 651 543 651 565 q 635 504 651 520 q 597 488 619 488 l 163 488 l 163 54 q 147 16 163 32 q 109 0 131 0 q 70 16 86 0 q 54 54 54 32 l 54 1031 q 70 1069 54 1053 q 109 1085 86 1085 z "},"G":{"ha":1017,"x_min":54,"x_max":958,"o":"m 954 159 q 938 121 954 136 q 597 0 787 0 q 213 159 372 0 q 54 543 54 318 q 213 926 54 767 q 597 1085 372 1085 q 942 961 791 1085 q 958 922 958 945 q 942 884 958 900 q 903 868 926 868 q 865 884 881 868 q 597 977 750 977 q 290 849 417 977 q 163 543 163 722 q 290 236 163 363 q 597 109 417 109 q 845 186 737 109 l 845 434 l 631 434 q 592 450 608 434 q 576 488 576 466 q 592 527 576 511 q 631 543 608 543 l 900 543 q 938 527 922 543 q 954 488 954 511 l 954 159 z "},"H":{"ha":868,"x_min":54,"x_max":814,"o":"m 54 1031 q 70 1069 54 1053 q 109 1085 86 1085 q 147 1069 131 1085 q 163 1031 163 1053 l 163 597 l 705 597 l 705 1031 q 721 1069 705 1053 q 760 1085 737 1085 q 798 1069 782 1085 q 814 1031 814 1053 l 814 54 q 798 16 814 32 q 760 0 782 0 q 721 16 737 0 q 705 54 705 32 l 705 488 l 163 488 l 163 54 q 147 16 163 32 q 109 0 131 0 q 70 16 86 0 q 54 54 54 32 l 54 1031 z "},"I":{"ha":326,"x_min":109,"x_max":217,"o":"m 109 1031 q 124 1069 109 1053 q 163 1085 140 1085 q 201 1069 185 1085 q 217 1031 217 1053 l 217 54 q 201 16 217 32 q 163 0 185 0 q 124 16 140 0 q 109 54 109 32 l 109 1031 z "},"J":{"ha":760,"x_min":54,"x_max":705,"o":"m 54 326 q 70 364 54 348 q 109 380 86 380 q 147 364 131 380 q 163 326 163 348 q 226 172 163 235 q 380 109 290 109 q 533 172 470 109 q 597 326 597 235 l 597 1031 q 613 1069 597 1053 q 651 1085 629 1085 q 689 1069 673 1085 q 705 1031 705 1053 l 705 326 q 610 95 705 191 q 380 0 515 0 q 150 95 245 0 q 54 326 54 191 z "},"K":{"ha":814,"x_min":54,"x_max":760,"o":"m 54 1031 q 70 1069 54 1053 q 109 1085 86 1085 q 147 1069 131 1085 q 163 1031 163 1053 l 163 566 l 665 1068 q 705 1085 683 1085 q 744 1069 728 1085 q 760 1031 760 1053 q 744 992 760 1008 l 363 611 l 749 87 q 760 56 760 73 q 738 11 760 28 q 707 0 723 0 q 661 23 677 0 l 285 533 l 163 411 l 163 54 q 147 16 163 32 q 109 0 131 0 q 70 16 86 0 q 54 54 54 32 l 54 1031 z "},"L":{"ha":814,"x_min":54,"x_max":760,"o":"m 54 1031 q 70 1069 54 1053 q 109 1085 86 1085 q 147 1069 131 1085 q 163 1031 163 1053 l 163 109 l 705 109 q 744 93 728 109 q 760 54 760 77 q 744 16 760 32 q 705 0 728 0 l 109 0 q 70 16 86 0 q 54 54 54 32 l 54 1031 z "},"M":{"ha":1194,"x_min":54,"x_max":1139,"o":"m 547 33 l 163 801 l 163 54 q 147 16 163 32 q 109 0 131 0 q 70 16 86 0 q 54 54 54 32 l 54 1031 q 70 1069 54 1053 q 109 1085 86 1085 q 157 1057 141 1085 l 597 176 l 1037 1057 q 1085 1085 1053 1085 q 1123 1069 1107 1085 q 1139 1031 1139 1053 l 1139 54 q 1123 16 1139 32 q 1085 0 1107 0 q 1047 16 1063 0 q 1031 54 1031 32 l 1031 801 l 644 26 q 597 0 629 0 q 547 33 563 0 z "},"N":{"ha":977,"x_min":54,"x_max":922,"o":"m 163 54 q 147 16 163 32 q 109 0 131 0 q 70 16 86 0 q 54 54 54 32 l 54 1031 q 70 1069 54 1053 q 109 1085 86 1085 q 151 1065 133 1085 l 814 212 l 814 1031 q 830 1069 814 1053 q 868 1085 846 1085 q 906 1069 890 1085 q 922 1031 922 1053 l 922 54 q 906 16 922 32 q 868 0 890 0 q 827 18 844 0 l 163 872 l 163 54 z "},"O":{"ha":1194,"x_min":54,"x_max":1139,"o":"m 597 977 q 290 849 417 977 q 163 543 163 722 q 290 236 163 363 q 597 109 417 109 q 904 236 777 109 q 1031 543 1031 363 q 904 849 1031 722 q 597 977 777 977 m 1139 543 q 980 159 1139 318 q 597 0 821 0 q 213 159 372 0 q 54 543 54 318 q 213 926 54 767 q 597 1085 372 1085 q 980 926 821 1085 q 1139 543 1139 767 z "},"P":{"ha":732,"x_min":54,"x_max":678,"o":"m 163 977 l 163 488 l 326 488 q 498 560 427 488 q 570 732 570 631 q 498 905 570 833 q 326 977 427 977 l 163 977 m 109 1085 l 326 1085 q 575 982 471 1085 q 678 732 678 878 q 575 483 678 587 q 326 380 471 380 l 163 380 l 163 54 q 147 16 163 32 q 109 0 131 0 q 70 16 86 0 q 54 54 54 32 l 54 1031 q 70 1069 54 1053 q 109 1085 86 1085 z "},"Q":{"ha":1194,"x_min":54,"x_max":1139,"o":"m 940 122 q 597 0 793 0 q 213 159 372 0 q 54 543 54 318 q 213 926 54 767 q 597 1085 372 1085 q 980 926 821 1085 q 1139 543 1139 767 q 1017 199 1139 346 l 1124 92 q 1139 54 1139 76 q 1123 16 1139 32 q 1085 0 1107 0 q 1046 16 1063 0 l 940 122 m 863 199 l 748 314 q 732 353 732 330 q 748 391 732 375 q 787 407 764 407 q 825 391 809 407 l 940 277 q 1031 543 1031 391 q 904 849 1031 722 q 597 977 777 977 q 290 849 417 977 q 163 543 163 722 q 290 236 163 363 q 597 109 417 109 q 863 199 749 109 z "},"R":{"ha":814,"x_min":54,"x_max":760,"o":"m 163 977 l 163 543 l 380 543 q 533 606 470 543 q 597 760 597 669 q 533 913 597 850 q 380 977 470 977 l 163 977 m 109 1085 l 380 1085 q 610 990 515 1085 q 705 760 705 895 q 610 530 705 625 q 515 463 566 486 l 751 84 q 760 54 760 71 q 744 16 760 32 q 705 0 728 0 q 658 28 676 0 l 404 435 q 380 434 392 434 l 163 434 l 163 54 q 147 16 163 32 q 109 0 131 0 q 70 16 86 0 q 54 54 54 32 l 54 1031 q 70 1069 54 1053 q 109 1085 86 1085 z "},"S":{"ha":719,"x_min":54,"x_max":665,"o":"m 65 149 q 54 181 54 163 q 70 219 54 203 q 109 235 86 235 q 155 210 138 235 q 174 186 163 197 q 321 109 231 117 q 479 160 411 102 q 555 308 548 218 q 505 466 563 398 q 357 542 447 534 q 172 637 245 551 q 109 835 100 722 q 203 1019 118 947 q 380 1085 280 1085 q 586 988 498 1085 q 612 951 601 970 q 621 922 621 939 q 605 884 621 900 q 566 868 589 868 q 528 884 541 868 q 503 918 516 901 q 393 975 459 969 q 274 936 326 980 q 217 826 222 892 q 255 707 212 759 q 366 650 299 656 q 588 536 500 639 q 665 330 665 446 q 663 299 665 315 q 550 78 652 165 q 342 0 458 0 q 91 115 196 0 q 65 149 77 131 z "},"T":{"ha":922,"x_min":54,"x_max":868,"o":"m 109 977 q 70 992 86 977 q 54 1031 54 1008 q 70 1069 54 1053 q 109 1085 86 1085 l 814 1085 q 852 1069 836 1085 q 868 1031 868 1053 q 852 992 868 1008 q 814 977 836 977 l 515 977 l 515 54 q 499 16 515 32 q 461 0 484 0 q 423 16 439 0 q 407 54 407 32 l 407 977 l 109 977 z "},"U":{"ha":868,"x_min":54,"x_max":814,"o":"m 54 1031 q 70 1069 54 1053 q 109 1085 86 1085 q 147 1069 131 1085 q 163 1031 163 1053 l 163 380 q 242 188 163 267 q 434 109 321 109 q 626 188 547 109 q 705 380 705 267 l 705 1031 q 721 1069 705 1053 q 760 1085 737 1085 q 798 1069 782 1085 q 814 1031 814 1053 l 814 380 q 703 111 814 222 q 434 0 591 0 q 165 111 277 0 q 54 380 54 222 l 54 1031 z "},"V":{"ha":977,"x_min":54,"x_max":922,"o":"m 527 16 q 488 0 511 0 q 450 16 466 0 q 439 34 443 23 l 61 1000 q 54 1031 54 1016 q 70 1069 54 1053 q 109 1085 86 1085 q 158 1054 144 1085 l 488 204 l 819 1054 q 868 1085 832 1085 q 906 1069 890 1085 q 922 1031 922 1053 q 916 1000 922 1016 l 538 34 q 527 16 534 23 z "},"W":{"ha":1302,"x_min":54,"x_max":1248,"o":"m 613 1069 q 651 1085 629 1085 q 690 1069 673 1085 q 703 1049 699 1060 l 922 257 l 1142 1049 q 1156 1069 1146 1060 q 1194 1085 1171 1085 q 1232 1069 1216 1085 q 1248 1031 1248 1053 q 1244 1007 1248 1019 l 978 45 q 961 16 972 28 q 922 0 945 0 q 884 16 900 0 q 867 45 872 28 l 651 826 l 435 45 q 418 16 430 28 q 380 0 402 0 q 342 16 357 0 q 325 45 330 28 l 58 1007 q 54 1031 54 1019 q 70 1069 54 1053 q 109 1085 86 1085 q 147 1069 131 1085 q 160 1049 156 1060 l 380 257 l 600 1049 q 613 1069 602 1059 z "},"X":{"ha":977,"x_min":54,"x_max":922,"o":"m 488 631 l 823 1062 q 868 1085 842 1085 q 906 1069 890 1085 q 922 1031 922 1053 q 913 1000 922 1013 l 557 543 l 911 88 q 922 54 922 73 q 906 16 922 32 q 868 0 890 0 q 827 19 842 0 l 488 454 l 150 19 q 109 0 134 0 q 70 16 86 0 q 54 54 54 32 q 66 88 54 73 l 419 543 l 64 1000 q 54 1031 54 1013 q 70 1069 54 1053 q 109 1085 86 1085 q 153 1062 134 1085 l 488 631 z "},"Y":{"ha":868,"x_min":54,"x_max":814,"o":"m 488 54 q 472 16 488 32 q 434 0 456 0 q 396 16 412 0 q 380 54 380 32 l 380 526 l 63 1000 q 54 1031 54 1014 q 70 1069 54 1053 q 109 1085 86 1085 q 153 1063 136 1085 l 434 641 l 715 1063 q 760 1085 732 1085 q 798 1069 782 1085 q 814 1031 814 1053 q 805 1000 814 1014 l 488 526 l 488 54 z "},"Z":{"ha":977,"x_min":54,"x_max":922,"o":"m 109 977 q 70 992 86 977 q 54 1031 54 1008 q 70 1069 54 1053 q 109 1085 86 1085 l 868 1085 q 906 1069 890 1085 q 922 1031 922 1053 q 913 1000 922 1013 l 220 109 l 868 109 q 906 93 890 109 q 922 54 922 77 q 906 16 922 32 q 868 0 890 0 l 109 0 q 70 16 86 0 q 54 54 54 32 q 66 88 54 73 l 757 977 l 109 977 z "},"[":{"ha":434,"x_min":54,"x_max":380,"o":"m 109 1085 l 326 1085 q 364 1069 348 1085 q 380 1031 380 1053 q 364 992 380 1008 q 326 977 348 977 l 163 977 l 163 -217 l 326 -217 q 364 -233 348 -217 q 380 -271 380 -249 q 364 -310 380 -294 q 326 -326 348 -326 l 109 -326 q 70 -310 86 -326 q 54 -271 54 -294 l 54 1031 q 70 1069 54 1053 q 109 1085 86 1085 z "},"\\":{"ha":651,"x_min":54,"x_max":597,"o":"m 158 1054 l 592 -31 q 597 -54 597 -42 q 581 -93 597 -77 q 543 -109 565 -109 q 504 -92 520 -109 q 493 -77 497 -85 l 59 1008 q 54 1031 54 1019 q 70 1069 54 1053 q 109 1085 86 1085 q 147 1069 131 1085 q 158 1054 154 1062 z "},"]":{"ha":434,"x_min":54,"x_max":380,"o":"m 380 1031 l 380 -271 q 364 -310 380 -294 q 326 -326 348 -326 l 109 -326 q 70 -310 86 -326 q 54 -271 54 -294 q 70 -233 54 -249 q 109 -217 86 -217 l 271 -217 l 271 977 l 109 977 q 70 992 86 977 q 54 1031 54 1008 q 70 1069 54 1053 q 109 1085 86 1085 l 326 1085 q 364 1069 348 1085 q 380 1031 380 1053 z "},"^":{"ha":651,"x_min":54,"x_max":597,"o":"m 326 932 l 152 672 q 109 651 136 651 q 70 667 86 651 q 54 705 54 683 q 62 733 54 721 l 281 1063 q 326 1085 296 1085 q 370 1063 355 1085 l 589 733 q 597 705 597 721 q 581 667 597 683 q 543 651 565 651 q 499 672 515 651 l 326 932 z "},"_":{"ha":651,"x_min":-54,"x_max":705,"o":"m 0 -109 q -38 -93 -22 -109 q -54 -54 -54 -77 q -38 -16 -54 -32 q 0 0 -22 0 l 651 0 q 689 -16 673 0 q 705 -54 705 -32 q 689 -93 705 -77 q 651 -109 673 -109 l 0 -109 z "},"`":{"ha":380,"x_min":54,"x_max":326,"o":"m 54 1031 q 70 1069 54 1053 q 109 1085 86 1085 q 147 1069 131 1085 l 312 905 q 326 868 326 889 q 310 830 326 846 q 271 814 294 814 q 234 828 250 814 l 69 993 q 54 1031 54 1009 z "},"a":{"ha":868,"x_min":54,"x_max":814,"o":"m 434 651 q 242 572 321 651 q 163 380 163 492 q 242 188 163 267 q 434 109 321 109 q 626 188 547 109 q 705 380 705 267 q 626 572 705 492 q 434 651 547 651 m 705 114 q 434 0 591 0 q 165 111 277 0 q 54 380 54 222 q 165 648 54 537 q 434 760 277 760 q 703 648 591 760 q 814 380 814 537 l 814 54 q 798 16 814 32 q 760 0 782 0 q 721 16 737 0 q 705 54 705 32 l 705 114 z "},"b":{"ha":868,"x_min":54,"x_max":814,"o":"m 434 109 q 626 188 547 109 q 705 380 705 267 q 626 572 705 492 q 434 651 547 651 q 242 572 321 651 q 163 380 163 492 q 242 188 163 267 q 434 109 321 109 m 163 646 q 165 648 164 647 q 434 760 277 760 q 703 648 591 760 q 814 380 814 537 q 703 111 814 222 q 434 0 591 0 q 165 111 277 0 q 54 380 54 222 l 54 1032 q 70 1070 54 1055 q 109 1086 86 1086 q 147 1070 131 1086 q 163 1032 163 1055 l 163 646 z "},"c":{"ha":760,"x_min":54,"x_max":701,"o":"m 644 186 q 683 170 667 186 q 699 132 699 154 q 682 92 699 109 q 434 0 576 0 q 165 111 277 0 q 54 380 54 222 q 165 648 54 537 q 434 760 277 760 q 682 668 576 760 q 701 626 701 651 q 685 588 701 604 q 646 572 669 572 q 612 584 627 572 q 434 651 536 651 q 242 572 321 651 q 163 380 163 492 q 242 188 163 267 q 434 109 321 109 q 611 175 536 109 q 644 186 625 186 z "},"d":{"ha":868,"x_min":54,"x_max":814,"o":"m 705 380 q 626 572 705 492 q 434 651 547 651 q 242 572 321 651 q 163 380 163 492 q 242 188 163 267 q 434 109 321 109 q 626 188 547 109 q 705 380 705 267 m 705 1032 q 721 1070 705 1055 q 760 1086 737 1086 q 798 1070 782 1086 q 814 1032 814 1055 l 814 380 q 703 111 814 222 q 434 0 591 0 q 165 111 277 0 q 54 380 54 222 q 165 648 54 537 q 434 760 277 760 q 703 648 591 760 q 705 646 704 647 l 705 1032 z "},"e":{"ha":868,"x_min":54,"x_max":814,"o":"m 701 434 q 626 572 686 512 q 434 651 547 651 q 242 572 321 651 q 168 434 182 512 l 701 434 m 643 184 q 681 169 665 184 q 697 130 697 153 q 682 92 697 108 q 434 0 576 0 q 165 111 277 0 q 54 380 54 222 q 165 648 54 537 q 434 760 277 760 q 703 648 591 760 q 814 380 814 537 q 798 341 814 357 q 760 326 782 326 l 168 326 q 242 188 182 248 q 434 109 321 109 q 609 173 536 109 q 643 184 624 184 z "},"f":{"ha":543,"x_min":54,"x_max":543,"o":"m 488 1085 q 527 1069 511 1085 q 543 1031 543 1053 q 527 992 543 1008 q 488 977 511 977 q 271 760 271 977 l 271 719 l 435 719 q 473 703 457 719 q 489 665 489 687 q 473 626 489 642 q 435 610 457 610 l 271 610 l 271 54 q 255 16 271 32 q 217 0 239 0 q 179 16 195 0 q 163 54 163 32 l 163 610 l 109 610 q 70 626 86 610 q 54 665 54 642 q 70 703 54 687 q 109 719 86 719 l 163 719 l 163 760 q 488 1085 163 1085 z "},"g":{"ha":868,"x_min":54,"x_max":814,"o":"m 434 651 q 242 572 321 651 q 163 380 163 492 q 242 188 163 267 q 434 109 321 109 q 626 188 547 109 q 705 380 705 267 q 626 572 705 492 q 434 651 547 651 m 705 114 q 703 111 704 113 q 434 0 591 0 q 165 111 277 0 q 54 380 54 222 q 165 648 54 537 q 434 760 277 760 q 703 648 591 760 q 814 380 814 537 l 814 0 q 728 -206 814 -119 q 440 -326 609 -326 q 153 -206 271 -326 q 81 -112 109 -163 q 73 -83 73 -100 q 89 -45 73 -61 q 127 -29 104 -29 q 165 -45 149 -29 q 177 -61 172 -52 q 229 -130 197 -98 q 440 -217 317 -217 q 651 -130 564 -217 q 705 0 705 -64 l 705 114 z "},"h":{"ha":814,"x_min":54,"x_max":760,"o":"m 54 1031 q 70 1069 54 1053 q 109 1085 86 1085 q 147 1069 131 1085 q 163 1031 163 1053 l 163 661 q 407 760 264 760 q 656 656 553 760 q 760 407 760 553 l 760 54 q 744 16 760 32 q 705 0 728 0 q 667 16 683 0 q 651 54 651 32 l 651 407 q 579 579 651 508 q 407 651 508 651 q 234 579 306 651 q 163 407 163 508 l 163 54 q 147 16 163 32 q 109 0 131 0 q 70 16 86 0 q 54 54 54 32 l 54 1031 z "},"i":{"ha":326,"x_min":95,"x_max":231,"o":"m 231 922 q 211 874 231 895 q 163 854 191 854 q 115 874 135 854 q 95 922 95 895 q 115 970 95 950 q 163 990 135 990 q 211 970 191 990 q 231 922 231 950 m 109 705 q 124 744 109 728 q 163 760 140 760 q 201 744 185 760 q 217 705 217 728 l 217 54 q 201 16 217 32 q 163 0 185 0 q 124 16 140 0 q 109 54 109 32 l 109 705 z "},"j":{"ha":445,"x_min":0,"x_max":393,"o":"m 393 922 q 373 874 393 895 q 326 854 353 854 q 278 874 298 854 q 258 922 258 895 q 278 970 258 950 q 326 990 298 990 q 373 970 353 990 q 393 922 393 950 m 271 0 l 271 705 q 287 744 271 728 q 326 760 303 760 q 364 744 348 760 q 380 705 380 728 l 380 0 q 284 -230 380 -135 q 54 -326 189 -326 q 16 -310 32 -326 q 0 -271 0 -294 q 16 -233 0 -249 q 54 -217 32 -217 q 208 -154 144 -217 q 271 0 271 -90 z "},"k":{"ha":760,"x_min":54,"x_max":705,"o":"m 163 453 l 622 751 q 651 760 635 760 q 689 744 673 760 q 705 705 705 728 q 690 667 705 683 q 682 661 686 663 l 368 456 l 690 92 q 705 54 705 76 q 689 16 705 32 q 651 0 673 0 q 612 16 629 0 l 275 396 l 163 323 l 163 54 q 147 16 163 32 q 109 0 131 0 q 70 16 86 0 q 54 54 54 32 l 54 1031 q 70 1069 54 1053 q 109 1085 86 1085 q 147 1069 131 1085 q 163 1031 163 1053 l 163 453 z "},"l":{"ha":326,"x_min":54,"x_max":271,"o":"m 54 1031 q 70 1069 54 1053 q 109 1085 86 1085 q 147 1069 131 1085 q 163 1031 163 1053 l 163 109 l 217 109 q 255 93 239 109 q 271 54 271 77 q 255 16 271 32 q 217 0 239 0 l 109 0 q 70 16 86 0 q 54 54 54 32 l 54 1031 z "},"m":{"ha":1194,"x_min":54,"x_max":1139,"o":"m 163 54 q 147 16 163 32 q 109 0 131 0 q 70 16 86 0 q 54 54 54 32 l 54 705 q 70 744 54 728 q 109 760 86 760 q 147 744 131 760 q 163 705 163 728 l 163 691 q 353 760 243 760 q 564 672 476 760 q 597 633 582 654 q 630 672 612 654 q 841 760 718 760 q 1052 672 964 760 q 1139 461 1139 585 l 1139 54 q 1123 16 1139 32 q 1085 0 1107 0 q 1047 16 1063 0 q 1031 54 1031 32 l 1031 461 q 975 595 1031 540 q 841 651 920 651 q 707 595 762 651 q 651 461 651 540 l 651 54 q 635 16 651 32 q 597 0 619 0 q 558 16 574 0 q 543 54 543 32 l 543 461 q 487 595 543 540 q 353 651 431 651 q 218 595 274 651 q 163 461 163 540 l 163 54 z "},"n":{"ha":814,"x_min":54,"x_max":760,"o":"m 54 705 q 70 744 54 728 q 109 760 86 760 q 147 744 131 760 q 163 705 163 728 l 163 661 q 407 760 264 760 q 656 656 553 760 q 760 407 760 553 l 760 54 q 744 16 760 32 q 705 0 728 0 q 667 16 683 0 q 651 54 651 32 l 651 407 q 579 579 651 508 q 407 651 508 651 q 234 579 306 651 q 163 407 163 508 l 163 54 q 147 16 163 32 q 109 0 131 0 q 70 16 86 0 q 54 54 54 32 l 54 705 z "},"o":{"ha":868,"x_min":54,"x_max":814,"o":"m 814 380 q 703 111 814 222 q 434 0 591 0 q 165 111 277 0 q 54 380 54 222 q 165 648 54 537 q 434 760 277 760 q 703 648 591 760 q 814 380 814 537 m 434 651 q 242 572 321 651 q 163 380 163 492 q 242 188 163 267 q 434 109 321 109 q 626 188 547 109 q 705 380 705 267 q 626 572 705 492 q 434 651 547 651 z "},"p":{"ha":868,"x_min":54,"x_max":814,"o":"m 163 380 q 242 188 163 267 q 434 109 321 109 q 626 188 547 109 q 705 380 705 267 q 626 572 705 492 q 434 651 547 651 q 242 572 321 651 q 163 380 163 492 m 163 -271 q 147 -310 163 -294 q 109 -326 131 -326 q 70 -310 86 -326 q 54 -271 54 -294 l 54 380 q 165 648 54 537 q 434 760 277 760 q 703 648 591 760 q 814 380 814 537 q 703 111 814 222 q 434 0 591 0 q 165 111 277 0 q 163 114 164 113 l 163 -271 z "},"q":{"ha":868,"x_min":54,"x_max":814,"o":"m 434 651 q 242 572 321 651 q 163 380 163 492 q 242 188 163 267 q 434 109 321 109 q 626 188 547 109 q 705 380 705 267 q 626 572 705 492 q 434 651 547 651 m 705 114 q 703 111 704 113 q 434 0 591 0 q 165 111 277 0 q 54 380 54 222 q 165 648 54 537 q 434 760 277 760 q 703 648 591 760 q 814 380 814 537 l 814 -271 q 798 -310 814 -294 q 760 -326 782 -326 q 721 -310 737 -326 q 705 -271 705 -294 l 705 114 z "},"r":{"ha":651,"x_min":54,"x_max":618,"o":"m 54 705 q 70 744 54 728 q 109 760 86 760 q 147 744 131 760 q 163 705 163 728 l 163 646 q 434 760 277 760 q 580 732 513 760 q 602 718 592 728 q 618 680 618 702 q 602 641 618 657 q 564 625 586 625 q 540 631 551 625 q 434 651 492 651 q 242 572 321 651 q 163 380 163 492 l 163 54 q 147 16 163 32 q 109 0 131 0 q 70 16 86 0 q 54 54 54 32 l 54 705 z "},"s":{"ha":719,"x_min":54,"x_max":665,"o":"m 189 380 q 102 428 127 403 q 54 543 54 475 q 104 660 54 610 q 359 760 202 760 q 651 623 530 760 q 661 591 662 610 q 645 553 661 569 q 607 537 629 537 q 571 551 585 537 q 551 572 557 566 q 359 651 472 651 q 180 581 247 651 q 163 534 163 561 q 197 490 165 502 l 530 380 q 616 332 592 357 q 665 217 665 284 q 614 100 665 150 q 359 0 517 0 q 68 136 189 0 q 58 168 58 151 q 74 207 58 191 q 112 222 90 222 q 148 208 134 222 q 168 188 161 194 q 359 109 247 109 q 539 179 472 109 q 555 226 555 199 q 522 269 553 258 l 189 380 z "},"t":{"ha":543,"x_min":54,"x_max":488,"o":"m 434 109 q 472 93 456 109 q 488 54 488 77 q 472 16 488 32 q 434 0 456 0 q 163 271 163 0 l 163 651 l 109 651 q 70 667 86 651 q 54 705 54 683 q 70 744 54 728 q 109 760 86 760 l 163 760 l 163 1031 q 179 1069 163 1053 q 217 1085 195 1085 q 255 1069 239 1085 q 271 1031 271 1053 l 271 760 l 380 760 q 419 744 403 760 q 435 705 435 728 q 419 667 435 683 q 380 651 403 651 l 271 651 l 271 271 q 434 109 271 109 z "},"u":{"ha":814,"x_min":54,"x_max":760,"o":"m 760 54 q 744 16 760 32 q 705 0 728 0 q 667 16 683 0 q 651 54 651 32 l 651 98 q 407 0 549 0 q 158 103 261 0 q 54 353 54 207 l 54 705 q 70 744 54 728 q 109 760 86 760 q 147 744 131 760 q 163 705 163 728 l 163 353 q 234 180 163 252 q 407 109 306 109 q 579 180 508 109 q 651 353 651 252 l 651 705 q 667 744 651 728 q 705 760 683 760 q 744 744 728 760 q 760 705 760 728 l 760 54 z "},"v":{"ha":814,"x_min":54,"x_max":760,"o":"m 446 15 q 407 0 431 0 q 368 16 383 0 q 359 28 363 20 l 58 684 q 54 705 54 694 q 70 744 54 728 q 109 760 86 760 q 147 744 131 760 q 157 730 153 739 l 407 184 l 656 730 q 667 744 661 739 q 705 760 683 760 q 744 744 728 760 q 760 705 760 728 q 755 684 760 694 l 454 28 q 446 15 450 20 z "},"w":{"ha":1085,"x_min":54,"x_max":1031,"o":"m 505 744 q 543 760 520 760 q 581 744 565 760 q 595 719 591 733 l 760 226 l 927 728 q 939 744 931 736 q 977 760 954 760 q 1015 744 999 760 q 1031 705 1031 728 q 1027 684 1031 694 l 810 35 q 798 15 806 24 q 760 0 782 0 q 722 15 737 0 q 709 35 713 24 l 543 534 l 376 35 q 364 15 372 24 q 326 0 348 0 q 288 15 303 0 q 275 35 279 24 l 58 684 q 54 705 54 694 q 70 744 54 728 q 109 760 86 760 q 147 744 131 760 q 158 728 154 736 l 326 226 l 490 719 q 505 744 494 733 z "},"x":{"ha":760,"x_min":54,"x_max":705,"o":"m 309 380 l 67 670 q 54 705 54 685 q 70 744 54 728 q 109 760 86 760 q 149 743 131 760 l 380 465 l 611 743 q 651 760 629 760 q 689 744 673 760 q 705 705 705 728 q 692 670 705 685 l 450 380 l 694 87 q 705 54 705 73 q 689 16 705 32 q 651 0 673 0 q 613 16 629 0 l 380 296 l 146 16 q 109 0 131 0 q 70 16 86 0 q 54 54 54 32 q 65 87 54 73 l 309 380 z "},"y":{"ha":760,"x_min":54,"x_max":705,"o":"m 321 55 l 60 680 q 54 705 54 692 q 70 744 54 728 q 109 760 86 760 q 147 744 131 760 q 160 724 156 734 l 380 197 l 600 724 q 613 744 604 734 q 651 760 629 760 q 689 744 673 760 q 705 705 705 728 q 699 680 705 692 l 295 -290 q 282 -309 291 -300 q 243 -326 266 -326 q 205 -310 221 -326 q 189 -271 189 -294 q 195 -246 189 -258 l 321 55 z "},"z":{"ha":760,"x_min":54,"x_max":705,"o":"m 651 109 q 689 93 673 109 q 705 54 705 77 q 689 16 705 32 q 651 0 673 0 l 109 0 q 70 16 86 0 q 54 54 54 32 q 65 87 54 73 l 535 651 l 109 651 q 70 667 86 651 q 54 705 54 683 q 70 744 54 728 q 109 760 86 760 l 651 760 q 689 744 673 760 q 705 705 705 728 q 692 670 705 685 l 224 109 l 651 109 z "},"{":{"ha":543,"x_min":54,"x_max":488,"o":"m 434 1085 q 472 1069 456 1085 q 488 1031 488 1053 q 472 992 488 1008 q 434 977 456 977 q 326 868 326 977 l 326 543 q 271 380 326 434 q 326 217 326 326 l 326 -109 q 434 -217 326 -217 q 472 -233 456 -217 q 488 -271 488 -249 q 472 -310 488 -294 q 434 -326 456 -326 q 217 -109 217 -326 l 217 217 q 109 326 217 326 q 70 341 86 326 q 54 380 54 357 q 70 418 54 402 q 109 434 86 434 q 217 543 217 434 l 217 868 q 434 1085 217 1085 z "},"|":{"ha":543,"x_min":217,"x_max":326,"o":"m 217 1031 q 233 1069 217 1053 q 271 1085 249 1085 q 310 1069 294 1085 q 326 1031 326 1053 l 326 -271 q 310 -310 326 -294 q 271 -326 294 -326 q 233 -310 249 -326 q 217 -271 217 -294 l 217 1031 z "},"}":{"ha":543,"x_min":54,"x_max":488,"o":"m 326 868 l 326 543 q 434 434 326 434 q 472 418 456 434 q 488 380 488 402 q 472 341 488 357 q 434 326 456 326 q 326 217 326 326 l 326 -109 q 109 -326 326 -326 q 70 -310 86 -326 q 54 -271 54 -294 q 70 -233 54 -249 q 109 -217 86 -217 q 217 -109 217 -217 l 217 217 q 271 380 217 326 q 217 543 217 434 l 217 868 q 109 977 217 977 q 70 992 86 977 q 54 1031 54 1008 q 70 1069 54 1053 q 109 1085 86 1085 q 326 868 326 1085 z "},"~":{"ha":651,"x_min":48,"x_max":597,"o":"m 361 466 q 217 412 300 412 q 63 475 127 412 q 48 513 48 492 q 64 552 48 536 q 102 568 80 568 q 140 553 124 568 q 217 520 172 520 q 285 544 255 520 q 429 598 345 598 q 583 534 519 598 q 597 496 597 518 q 582 458 597 474 q 543 442 566 442 q 505 457 522 442 q 429 490 473 490 q 361 466 390 490 z "},"¡":{"ha":271,"x_min":54,"x_max":217,"o":"m 136 596 q 78 620 102 596 q 54 677 54 644 q 78 735 54 711 q 136 759 102 759 q 193 735 170 759 q 217 677 217 711 q 193 620 217 644 q 136 596 170 596 m 81 488 q 98 526 81 510 q 136 542 113 542 q 174 526 158 542 q 190 488 190 510 l 190 -271 q 174 -310 190 -294 q 136 -326 158 -326 q 97 -310 113 -326 q 81 -271 81 -294 l 81 488 z "},"¢":{"ha":760,"x_min":59,"x_max":705,"o":"m 245 190 l 429 651 q 247 572 323 648 q 168 380 168 492 q 245 190 168 269 m 337 127 q 439 109 384 109 q 616 175 541 109 q 649 186 630 186 q 687 170 671 186 q 703 132 703 154 q 686 92 703 109 q 439 0 581 0 q 297 26 362 0 l 214 -182 q 185 -212 205 -203 q 163 -217 174 -217 q 143 -213 153 -217 q 113 -184 122 -205 q 113 -142 104 -163 l 202 82 q 170 111 186 96 q 59 380 59 222 q 170 648 59 537 q 439 760 281 760 q 472 758 456 760 l 546 943 q 576 972 555 964 q 597 977 585 977 q 616 973 607 977 q 646 944 637 965 q 647 903 655 924 l 580 734 q 686 668 637 711 q 705 626 705 651 q 689 588 705 604 q 651 572 673 572 q 616 584 631 572 q 539 632 581 616 l 337 127 z "},"£":{"ha":705,"x_min":54,"x_max":651,"o":"m 163 0 q 124 16 140 0 q 109 54 109 32 q 113 76 109 66 q 189 434 192 261 l 109 434 q 70 450 86 434 q 54 488 54 466 q 70 527 54 511 q 109 543 86 543 l 180 543 q 129 712 165 629 l 130 712 q 109 814 109 763 q 188 1006 109 926 q 380 1085 267 1085 q 572 1006 492 1085 q 606 964 591 986 q 617 930 617 949 q 601 892 617 908 q 563 876 585 876 q 525 892 538 876 q 495 929 513 909 q 380 977 447 977 q 265 929 313 977 q 217 814 217 881 q 230 753 217 783 q 290 543 274 650 l 488 543 q 527 527 511 543 q 543 488 543 511 q 527 450 543 466 q 488 434 511 434 l 298 434 q 241 109 299 277 l 509 109 l 549 190 q 597 217 564 217 q 635 201 619 217 q 651 163 651 185 q 645 137 651 149 l 593 33 q 581 16 589 24 q 543 0 565 0 l 163 0 z "},"¤":{"ha":651,"x_min":75,"x_max":576,"o":"m 326 617 q 249 585 281 617 q 217 509 217 553 q 249 432 217 464 q 326 400 281 400 q 402 432 370 400 q 434 509 434 464 q 402 585 434 553 q 326 617 370 617 m 484 744 q 522 760 500 760 q 561 744 545 760 q 576 705 576 728 q 560 666 576 683 l 512 621 q 543 509 543 571 q 514 399 543 448 l 561 351 q 576 312 576 334 q 561 274 576 290 q 522 258 545 258 q 486 273 500 258 l 485 272 l 438 322 q 326 292 388 292 q 217 320 265 292 l 165 271 q 129 258 150 258 q 91 274 106 258 q 75 312 75 290 q 91 351 75 334 l 140 396 q 109 509 109 446 q 137 618 109 569 l 91 667 q 75 705 75 683 q 91 744 75 728 q 129 760 106 760 q 166 745 151 760 l 213 695 q 326 726 263 726 q 435 697 386 726 l 484 744 z "},"¥":{"ha":868,"x_min":54,"x_max":814,"o":"m 109 597 q 70 613 86 597 q 54 651 54 629 q 70 689 54 673 q 109 705 86 705 l 260 705 l 63 1000 q 54 1031 54 1014 q 70 1069 54 1053 q 109 1085 86 1085 q 153 1063 136 1085 l 434 641 l 715 1063 q 760 1085 732 1085 q 798 1069 782 1085 q 814 1031 814 1053 q 805 1000 814 1014 l 608 705 l 760 705 q 798 690 782 705 q 814 651 814 673 q 798 613 814 629 q 760 597 782 597 l 535 597 l 488 526 l 488 434 l 760 434 q 798 418 782 434 q 814 380 814 402 q 798 341 814 357 q 760 326 782 326 l 488 326 l 488 54 q 472 16 488 32 q 434 0 456 0 q 396 16 412 0 q 380 54 380 32 l 380 326 l 109 326 q 70 341 86 326 q 54 380 54 357 q 70 418 54 402 q 109 434 86 434 l 380 434 l 380 526 l 333 597 l 109 597 z "},"¦":{"ha":326,"x_min":109,"x_max":217,"o":"m 109 1139 q 124 1178 109 1162 q 163 1194 140 1194 q 201 1178 185 1194 q 217 1139 217 1162 l 217 651 q 201 613 217 629 q 163 597 185 597 q 124 613 140 597 q 109 651 109 629 l 109 1139 m 217 -271 q 201 -310 217 -294 q 163 -326 185 -326 q 124 -310 140 -326 q 109 -271 109 -294 l 109 217 q 124 255 109 239 q 163 271 140 271 q 201 255 185 271 q 217 217 217 239 l 217 -271 z "},"§":{"ha":651,"x_min":54,"x_max":597,"o":"m 326 109 q 134 188 213 109 q 54 380 54 267 q 134 572 54 492 q 162 597 147 585 q 134 622 147 608 q 54 814 54 701 q 134 1006 54 926 q 326 1085 213 1085 q 517 1006 438 1085 q 597 814 597 926 q 581 775 597 791 q 543 760 565 760 q 504 775 520 760 q 488 814 488 791 q 440 929 488 881 q 326 977 393 977 q 211 929 258 977 q 163 814 163 881 q 211 699 163 747 q 326 651 258 651 q 517 572 438 651 q 597 380 597 492 q 517 188 597 267 q 489 163 504 174 q 517 138 504 151 q 597 -54 597 58 q 517 -246 597 -167 q 326 -326 438 -326 q 134 -246 213 -326 q 54 -54 54 -167 q 70 -16 54 -32 q 109 0 86 0 q 147 -16 131 0 q 163 -54 163 -32 q 211 -169 163 -121 q 326 -217 258 -217 q 440 -169 393 -217 q 488 -54 488 -121 q 440 61 488 13 q 326 109 393 109 m 326 543 q 211 495 258 543 q 163 380 163 447 q 211 265 163 313 q 326 217 258 217 q 440 265 393 217 q 488 380 488 313 q 440 495 488 447 q 326 543 393 543 z "},"¨":{"ha":651,"x_min":94,"x_max":555,"o":"m 230 922 q 210 874 230 895 q 162 854 190 854 q 114 874 134 854 q 94 922 94 895 q 114 970 94 950 q 162 990 134 990 q 210 970 190 990 q 230 922 230 950 m 555 922 q 535 874 555 895 q 488 854 515 854 q 440 874 460 854 q 420 922 420 895 q 440 970 420 950 q 488 990 460 990 q 535 970 515 990 q 555 922 555 950 z "},"©":{"ha":1194,"x_min":54,"x_max":1136,"o":"m 807 349 q 845 333 829 349 q 861 294 861 317 q 844 254 861 272 q 597 163 739 163 q 328 274 439 163 q 217 543 217 385 q 328 811 217 700 q 597 922 439 922 q 844 831 739 922 q 863 789 863 814 q 847 750 863 766 q 809 734 831 734 q 774 747 789 734 q 597 814 699 814 q 405 734 484 814 q 326 543 326 655 q 405 351 326 430 q 597 271 484 271 q 774 338 699 271 q 807 349 788 349 m 1136 541 q 978 158 1136 317 q 595 0 819 0 q 213 158 371 0 q 54 541 54 317 q 213 923 54 765 q 595 1082 371 1082 q 978 923 819 1082 q 1136 541 1136 765 m 595 998 q 272 864 406 998 q 138 541 138 730 q 272 217 138 351 q 595 83 406 83 q 919 217 785 83 q 1053 541 1053 351 q 919 864 1053 730 q 595 998 785 998 z "},"ª":{"ha":651,"x_min":54,"x_max":597,"o":"m 326 977 q 211 929 258 977 q 163 814 163 881 q 211 699 163 747 q 326 651 258 651 q 440 699 393 651 q 488 814 488 747 q 440 929 488 881 q 326 977 393 977 m 488 596 q 326 543 418 543 q 134 622 213 543 q 54 814 54 701 q 134 1006 54 926 q 326 1085 213 1085 q 517 1006 438 1085 q 597 814 597 926 l 597 597 q 581 558 597 574 q 543 543 565 543 q 505 559 520 543 q 488 596 488 574 z "},"«":{"ha":651,"x_min":54,"x_max":597,"o":"m 61 406 l 221 726 q 233 743 225 735 q 271 759 249 759 q 310 743 294 759 q 326 705 326 727 q 321 682 326 692 l 170 380 l 321 77 q 326 54 326 66 q 310 16 326 32 q 271 0 294 0 q 233 16 249 0 q 221 33 225 24 l 62 350 q 54 379 54 365 q 61 406 54 393 m 332 406 l 492 726 q 505 743 496 735 q 543 759 520 759 q 581 743 565 759 q 597 705 597 727 q 592 682 597 692 l 441 380 l 592 77 q 597 54 597 66 q 581 16 597 32 q 543 0 565 0 q 505 16 520 0 q 492 33 496 24 l 334 350 q 326 379 326 365 q 332 406 326 393 z "},"¬":{"ha":760,"x_min":54,"x_max":705,"o":"m 109 651 q 70 667 86 651 q 54 705 54 683 q 70 744 54 728 q 109 760 86 760 l 651 760 q 689 744 673 760 q 705 705 705 728 l 705 488 q 689 450 705 466 q 651 434 673 434 q 613 450 629 434 q 597 488 597 466 l 597 651 l 109 651 z "},"®":{"ha":1194,"x_min":54,"x_max":1136,"o":"m 1136 541 q 978 158 1136 317 q 595 0 819 0 q 213 158 371 0 q 54 541 54 317 q 213 923 54 765 q 595 1082 371 1082 q 978 923 819 1082 q 1136 541 1136 765 m 595 998 q 272 864 406 998 q 138 541 138 730 q 272 217 138 351 q 595 83 406 83 q 919 217 785 83 q 1053 541 1053 351 q 919 864 1053 730 q 595 998 785 998 m 451 825 l 451 541 l 593 541 q 694 583 652 541 q 736 684 736 624 q 694 784 736 743 q 593 825 652 825 l 451 825 m 415 897 l 593 897 q 744 834 682 897 q 807 684 807 772 q 744 532 807 595 q 682 488 715 504 l 836 240 q 842 221 842 232 q 832 196 842 206 q 807 185 821 185 q 776 203 787 185 l 609 471 q 593 470 601 470 l 451 470 l 451 221 q 440 196 451 206 q 415 185 430 185 q 390 196 401 185 q 380 221 380 206 l 380 861 q 390 886 380 876 q 415 897 401 897 z "},"¯":{"ha":760,"x_min":54,"x_max":705,"o":"m 109 1194 q 70 1210 86 1194 q 54 1248 54 1225 q 70 1286 54 1270 q 109 1302 86 1302 l 651 1302 q 689 1286 673 1302 q 705 1248 705 1270 q 689 1210 705 1225 q 651 1194 673 1194 l 109 1194 z "},"°":{"ha":651,"x_min":54,"x_max":597,"o":"m 597 814 q 517 622 597 701 q 326 543 438 543 q 134 622 213 543 q 54 814 54 701 q 134 1006 54 926 q 326 1085 213 1085 q 517 1006 438 1085 q 597 814 597 926 m 326 977 q 211 929 258 977 q 163 814 163 881 q 211 699 163 747 q 326 651 258 651 q 440 699 393 651 q 488 814 488 747 q 440 929 488 881 q 326 977 393 977 z "},"±":{"ha":760,"x_min":54,"x_max":705,"o":"m 326 814 q 341 852 326 836 q 380 868 357 868 q 418 852 402 868 q 434 814 434 836 l 434 597 l 651 597 q 689 581 673 597 q 705 543 705 565 q 689 504 705 520 q 651 488 673 488 l 434 488 l 434 271 q 418 233 434 249 q 380 217 402 217 q 341 233 357 217 q 326 271 326 249 l 326 488 l 109 488 q 70 504 86 488 q 54 543 54 520 q 70 581 54 565 q 109 597 86 597 l 326 597 l 326 814 m 109 0 q 70 16 86 0 q 54 54 54 32 q 70 93 54 77 q 109 109 86 109 l 651 109 q 689 93 673 109 q 705 54 705 77 q 689 16 705 32 q 651 0 673 0 l 109 0 z "},"²":{"ha":434,"x_min":54,"x_max":376,"o":"m 350 602 q 369 594 361 602 q 376 575 376 586 q 369 556 376 564 q 350 548 361 548 l 81 548 q 62 556 70 548 q 54 575 54 564 q 62 594 54 586 l 291 848 q 323 924 323 880 q 291 1000 323 968 q 216 1031 260 1031 q 139 1000 171 1031 q 108 924 108 968 q 100 905 108 913 q 81 897 92 897 q 62 905 70 897 q 54 924 54 913 q 101 1038 54 991 q 216 1085 149 1085 q 329 1038 282 1085 q 376 924 376 991 q 329 810 376 857 l 142 602 l 350 602 z "},"³":{"ha":434,"x_min":54,"x_max":379,"o":"m 217 814 q 198 822 205 814 q 190 842 190 830 q 198 861 190 852 q 217 869 205 869 q 274 892 250 869 q 298 949 298 916 q 274 1007 298 983 q 217 1031 250 1031 q 159 1007 183 1031 q 136 949 136 983 q 127 931 136 939 q 109 923 119 923 q 89 931 97 923 q 81 949 81 939 q 121 1045 81 1006 q 217 1085 161 1085 q 312 1045 273 1085 q 352 949 352 1006 q 302 844 352 887 q 332 821 318 835 q 379 706 379 773 q 332 591 379 639 q 217 544 284 544 q 102 591 149 544 q 54 706 54 639 q 62 725 54 718 q 81 733 70 733 q 100 725 92 733 q 109 706 109 718 q 140 630 109 661 q 217 598 172 598 q 293 630 262 598 q 325 706 325 661 q 293 783 325 751 q 217 814 262 814 z "},"´":{"ha":380,"x_min":54,"x_max":326,"o":"m 311 993 l 146 828 q 109 814 130 814 q 70 830 86 814 q 54 868 54 846 q 68 905 54 889 l 233 1069 q 271 1085 249 1085 q 310 1069 294 1085 q 326 1031 326 1053 q 311 993 326 1009 z "},"µ":{"ha":814,"x_min":54,"x_max":760,"o":"m 163 353 q 234 180 163 252 q 407 109 306 109 q 579 180 508 109 q 651 353 651 252 l 651 705 q 667 744 651 728 q 705 760 683 760 q 744 744 728 760 q 760 705 760 728 l 760 54 q 744 16 760 32 q 705 0 728 0 q 667 16 683 0 q 651 54 651 32 l 651 98 q 407 0 549 0 q 163 98 264 0 l 163 -271 q 147 -310 163 -294 q 109 -326 131 -326 q 70 -310 86 -326 q 54 -271 54 -294 l 54 705 q 70 744 54 728 q 109 760 86 760 q 147 744 131 760 q 163 705 163 728 l 163 353 z "},"¶":{"ha":760,"x_min":54,"x_max":705,"o":"m 651 54 q 635 16 651 32 q 597 0 619 0 q 558 16 574 0 q 543 54 543 32 l 543 977 l 434 977 l 434 54 q 418 16 434 32 q 380 0 402 0 q 341 16 357 0 q 326 54 326 32 l 326 543 q 134 622 213 543 q 54 814 54 701 q 134 1006 54 926 q 326 1085 213 1085 l 651 1085 q 689 1069 673 1085 q 705 1031 705 1053 q 689 992 705 1008 q 651 977 673 977 l 651 54 z "},"·":{"ha":271,"x_min":54,"x_max":217,"o":"m 217 515 q 193 458 217 481 q 136 434 170 434 q 78 458 102 434 q 54 515 54 481 q 78 573 54 549 q 136 597 102 597 q 193 573 170 597 q 217 515 217 549 z "},"¸":{"ha":434,"x_min":54,"x_max":380,"o":"m 206 39 q 244 54 222 54 q 282 38 267 54 q 298 0 298 22 q 297 -13 298 -7 l 286 -54 q 332 -81 311 -64 q 380 -183 380 -123 q 332 -284 380 -243 q 217 -326 284 -326 q 140 -306 177 -326 l 78 -269 q 54 -224 54 -250 q 70 -185 54 -201 q 109 -170 86 -170 q 138 -178 125 -170 l 191 -210 q 217 -217 203 -217 q 255 -208 239 -217 q 271 -183 271 -199 q 255 -158 271 -168 q 217 -149 239 -149 q 179 -133 195 -149 q 163 -95 163 -117 q 165 -77 163 -85 l 192 16 q 206 39 196 28 z "},"¹":{"ha":326,"x_min":81,"x_max":216,"o":"m 216 573 q 208 554 216 562 q 189 546 200 546 q 170 554 178 546 q 162 573 162 562 l 162 1021 l 119 1006 q 109 1004 114 1004 q 89 1012 97 1004 q 81 1031 81 1020 q 90 1050 81 1042 q 98 1057 94 1055 l 180 1084 q 189 1085 184 1085 q 208 1077 200 1085 q 216 1058 216 1069 l 216 573 z "},"º":{"ha":434,"x_min":54,"x_max":378,"o":"m 54 816 q 121 1046 54 977 q 216 1085 160 1085 q 311 1046 272 1085 q 378 816 378 977 q 311 585 378 654 q 216 546 272 546 q 121 585 160 546 q 54 816 54 654 m 216 1031 q 159 1007 182 1031 q 109 816 109 950 q 159 624 109 681 q 216 600 182 600 q 273 624 250 600 q 324 816 324 681 q 273 1007 324 950 q 216 1031 250 1031 z "},"»":{"ha":651,"x_min":54,"x_max":597,"o":"m 597 379 q 589 350 597 365 l 430 33 q 418 16 426 24 q 380 0 402 0 q 341 16 357 0 q 326 54 326 32 q 330 77 326 66 l 481 380 l 330 682 q 326 705 326 692 q 341 743 326 727 q 380 759 357 759 q 418 743 402 759 q 430 726 426 735 l 590 406 q 597 379 597 393 m 326 379 q 317 350 326 365 l 159 33 q 146 16 155 24 q 109 0 131 0 q 70 16 86 0 q 54 54 54 32 q 59 77 54 66 l 210 380 l 59 682 q 54 705 54 692 q 70 743 54 727 q 109 759 86 759 q 146 743 131 759 q 159 726 155 735 l 319 406 q 326 379 326 393 z "},"¼":{"ha":977,"x_min":54,"x_max":922,"o":"m 814 1085 q 852 1069 836 1085 q 868 1031 868 1053 q 860 1002 868 1015 l 210 28 q 163 0 192 0 q 124 16 140 0 q 109 54 109 32 q 117 83 109 71 l 770 1064 q 814 1085 785 1085 m 217 467 q 208 444 217 453 q 184 434 198 434 q 161 444 171 434 q 152 467 152 453 l 152 1008 l 100 990 q 87 988 94 988 q 64 998 73 988 q 54 1021 54 1007 q 64 1044 54 1034 q 75 1051 69 1048 l 173 1084 q 184 1086 178 1086 q 208 1076 198 1086 q 217 1053 217 1067 l 217 467 m 760 228 l 760 514 l 562 228 l 760 228 m 499 163 q 476 172 486 163 q 467 195 467 182 q 473 214 467 206 l 766 637 q 769 642 767 640 q 792 651 779 651 q 815 642 806 651 q 825 618 825 632 l 825 228 l 890 228 q 913 218 903 228 q 922 195 922 209 q 913 172 922 182 q 890 163 903 163 l 825 163 l 825 33 q 815 9 825 19 q 792 0 806 0 q 769 9 779 0 q 760 33 760 19 l 760 163 l 499 163 z "},"½":{"ha":1085,"x_min":54,"x_max":1031,"o":"m 814 1085 q 852 1069 836 1085 q 868 1031 868 1053 q 860 1002 868 1015 l 210 28 q 163 0 192 0 q 124 16 140 0 q 109 54 109 32 q 117 83 109 71 l 770 1064 q 814 1085 785 1085 m 217 467 q 208 444 217 453 q 184 434 198 434 q 161 444 171 434 q 152 467 152 453 l 152 1008 l 100 990 q 87 988 94 988 q 64 998 73 988 q 54 1021 54 1007 q 64 1044 54 1034 q 75 1051 69 1048 l 173 1084 q 184 1086 178 1086 q 208 1076 198 1086 q 217 1053 217 1067 l 217 467 m 998 65 q 1021 56 1011 65 q 1031 33 1031 46 q 1021 9 1031 19 q 998 0 1011 0 l 672 0 q 649 9 659 0 q 640 33 640 19 q 649 56 640 46 l 927 363 q 966 456 966 402 q 927 549 966 511 q 835 587 889 587 q 743 549 781 587 q 705 456 705 511 q 695 433 705 443 q 672 424 686 424 q 649 433 659 424 q 640 456 640 443 q 697 594 640 537 q 835 652 754 652 q 974 594 916 652 q 1031 456 1031 537 q 973 317 1031 375 l 746 65 l 998 65 z "},"¾":{"ha":1085,"x_min":54,"x_max":1031,"o":"m 922 1085 q 961 1069 945 1085 q 977 1031 977 1053 q 968 1002 977 1015 l 319 28 q 271 0 300 0 q 233 16 249 0 q 217 54 217 32 q 225 83 217 71 l 879 1064 q 922 1085 893 1085 m 868 228 l 868 514 l 670 228 l 868 228 m 608 163 q 585 172 594 163 q 575 195 575 182 q 581 214 575 206 l 874 637 q 878 642 876 640 q 901 651 887 651 q 924 642 914 651 q 933 618 933 632 l 933 228 l 998 228 q 1021 218 1012 228 q 1031 195 1031 209 q 1021 172 1031 182 q 998 163 1012 163 l 933 163 l 933 33 q 924 9 933 19 q 901 0 914 0 q 878 9 887 0 q 868 33 868 19 l 868 163 l 608 163 m 249 759 q 226 768 235 759 q 216 791 216 778 q 226 814 216 804 q 249 823 235 823 q 318 852 289 823 q 347 921 347 881 q 318 989 347 961 q 249 1018 289 1018 q 180 989 209 1018 q 152 921 152 961 q 142 898 152 907 q 119 888 132 888 q 96 898 106 888 q 87 921 87 907 q 134 1036 87 988 q 249 1083 182 1083 q 363 1036 316 1083 q 411 921 411 988 q 363 806 411 854 q 351 795 357 800 q 387 767 370 783 q 444 629 444 709 q 387 491 444 548 q 249 434 330 434 q 111 491 168 434 q 54 629 54 548 q 64 652 54 642 q 87 661 73 661 q 110 652 100 661 q 119 629 119 642 q 157 537 119 575 q 249 499 195 499 q 341 537 303 499 q 378 629 378 575 q 341 721 378 683 q 249 759 303 759 z "},"¿":{"ha":760,"x_min":54,"x_max":705,"o":"m 380 -217 q 533 -154 470 -217 q 597 0 597 -90 q 533 154 597 90 l 421 258 q 326 488 326 353 q 341 527 326 511 q 380 543 357 543 q 418 527 402 543 q 434 488 434 511 q 498 334 434 398 l 610 231 q 705 0 705 135 q 610 -230 705 -135 q 380 -326 515 -326 q 150 -230 245 -326 q 54 0 54 -135 q 70 38 54 22 q 109 54 86 54 q 147 38 131 54 q 163 0 163 22 q 226 -154 163 -90 q 380 -217 290 -217 m 380 596 q 322 620 346 596 q 298 677 298 644 q 322 735 298 711 q 380 759 346 759 q 437 735 414 759 q 461 677 461 711 q 437 620 461 644 q 380 596 414 596 z "},"À":{"ha":977,"x_min":54,"x_max":922,"o":"m 294 380 l 159 33 q 147 16 155 24 q 109 0 131 0 q 70 16 86 0 q 54 54 54 32 q 59 77 54 67 l 436 1047 q 450 1069 440 1059 q 488 1085 466 1085 q 527 1069 511 1085 q 541 1047 536 1059 l 918 77 q 922 54 922 67 q 906 16 922 32 q 868 0 890 0 q 830 16 846 0 q 818 33 822 24 l 683 380 l 294 380 m 641 488 l 488 881 l 336 488 l 641 488 m 307 1356 q 323 1395 307 1379 q 361 1411 339 1411 q 400 1395 384 1411 l 565 1230 q 578 1194 578 1215 q 563 1155 578 1171 q 524 1139 547 1139 q 487 1154 503 1139 l 322 1318 q 307 1356 307 1335 z "},"Á":{"ha":977,"x_min":54,"x_max":922,"o":"m 294 380 l 159 33 q 147 16 155 24 q 109 0 131 0 q 70 16 86 0 q 54 54 54 32 q 59 77 54 67 l 436 1047 q 450 1069 440 1059 q 488 1085 466 1085 q 527 1069 511 1085 q 541 1047 536 1059 l 918 77 q 922 54 922 67 q 906 16 922 32 q 868 0 890 0 q 830 16 846 0 q 818 33 822 24 l 683 380 l 294 380 m 641 488 l 488 881 l 336 488 l 641 488 m 654 1318 l 490 1154 q 452 1139 474 1139 q 414 1155 430 1139 q 398 1194 398 1171 q 412 1230 398 1215 l 576 1395 q 615 1411 593 1411 q 653 1395 637 1411 q 669 1356 669 1379 q 654 1318 669 1335 z "},"Â":{"ha":977,"x_min":54,"x_max":922,"o":"m 294 380 l 159 33 q 147 16 155 24 q 109 0 131 0 q 70 16 86 0 q 54 54 54 32 q 59 77 54 67 l 436 1047 q 450 1069 440 1059 q 488 1085 466 1085 q 527 1069 511 1085 q 541 1047 536 1059 l 918 77 q 922 54 922 67 q 906 16 922 32 q 868 0 890 0 q 830 16 846 0 q 818 33 822 24 l 683 380 l 294 380 m 641 488 l 488 881 l 336 488 l 641 488 m 516 1376 l 678 1268 q 705 1221 705 1248 q 689 1182 705 1198 q 651 1166 673 1166 q 617 1178 631 1166 l 488 1263 l 359 1178 q 326 1166 345 1166 q 287 1182 303 1166 q 271 1221 271 1198 q 298 1268 271 1248 l 460 1376 q 488 1383 473 1383 q 516 1376 504 1383 z "},"Ã":{"ha":977,"x_min":54,"x_max":922,"o":"m 294 380 l 159 33 q 147 16 155 24 q 109 0 131 0 q 70 16 86 0 q 54 54 54 32 q 59 77 54 67 l 436 1047 q 450 1069 440 1059 q 488 1085 466 1085 q 527 1069 511 1085 q 541 1047 536 1059 l 918 77 q 922 54 922 67 q 906 16 922 32 q 868 0 890 0 q 830 16 846 0 q 818 33 822 24 l 683 380 l 294 380 m 641 488 l 488 881 l 336 488 l 641 488 m 522 1221 q 378 1167 460 1167 q 224 1231 288 1167 q 209 1269 209 1247 q 225 1307 209 1291 q 263 1323 241 1323 q 301 1308 285 1323 q 378 1276 333 1276 q 446 1299 416 1276 q 589 1354 506 1354 q 743 1290 680 1354 q 758 1252 758 1274 q 742 1214 758 1230 q 704 1198 726 1198 q 666 1213 682 1198 q 589 1245 634 1245 q 522 1221 551 1245 z "},"Ä":{"ha":977,"x_min":54,"x_max":922,"o":"m 294 380 l 159 33 q 147 16 155 24 q 109 0 131 0 q 70 16 86 0 q 54 54 54 32 q 59 77 54 67 l 436 1047 q 450 1069 440 1059 q 488 1085 466 1085 q 527 1069 511 1085 q 541 1047 536 1059 l 918 77 q 922 54 922 67 q 906 16 922 32 q 868 0 890 0 q 830 16 846 0 q 818 33 822 24 l 683 380 l 294 380 m 641 488 l 488 881 l 336 488 l 641 488 m 393 1248 q 373 1200 393 1220 q 326 1180 353 1180 q 278 1200 298 1180 q 258 1248 258 1220 q 278 1296 258 1276 q 326 1316 298 1316 q 373 1296 353 1316 q 393 1248 393 1276 m 719 1248 q 699 1200 719 1220 q 651 1180 679 1180 q 603 1200 623 1180 q 583 1248 583 1220 q 603 1296 583 1276 q 651 1316 623 1316 q 699 1296 679 1316 q 719 1248 719 1276 z "},"Å":{"ha":977,"x_min":54,"x_max":922,"o":"m 294 380 l 159 33 q 147 16 155 24 q 109 0 131 0 q 70 16 86 0 q 54 54 54 32 q 59 77 54 67 l 436 1047 q 450 1069 440 1059 q 488 1085 466 1085 q 527 1069 511 1085 q 541 1047 536 1059 l 918 77 q 922 54 922 67 q 906 16 922 32 q 868 0 890 0 q 830 16 846 0 q 818 33 822 24 l 683 380 l 294 380 m 641 488 l 488 881 l 336 488 l 641 488 m 625 1274 q 585 1177 625 1217 q 488 1137 545 1137 q 391 1177 431 1137 q 351 1274 351 1217 q 391 1371 351 1331 q 488 1411 431 1411 q 585 1371 545 1411 q 625 1274 625 1331 m 488 1342 q 440 1322 460 1342 q 420 1274 420 1302 q 440 1226 420 1246 q 488 1206 460 1206 q 536 1226 516 1206 q 556 1274 556 1246 q 536 1322 556 1302 q 488 1342 516 1342 z "},"Æ":{"ha":1194,"x_min":54,"x_max":1139,"o":"m 597 821 l 442 543 l 597 543 l 597 821 m 1085 1085 q 1123 1069 1107 1085 q 1139 1031 1139 1053 q 1123 992 1139 1008 q 1085 977 1107 977 l 705 977 l 705 543 l 977 543 q 1015 527 999 543 q 1031 488 1031 511 q 1015 450 1031 466 q 977 434 999 434 l 705 434 l 705 109 l 1085 109 q 1123 93 1107 109 q 1139 54 1139 77 q 1123 16 1139 32 q 1085 0 1107 0 l 651 0 q 613 16 629 0 q 597 54 597 32 l 597 434 l 382 434 l 155 25 q 109 0 138 0 q 70 16 86 0 q 54 54 54 32 q 61 81 54 69 l 605 1060 q 651 1085 621 1085 l 1085 1085 z "},"Ç":{"ha":1004,"x_min":54,"x_max":958,"o":"m 899 213 q 938 197 922 213 q 954 159 954 181 q 938 121 954 136 q 597 0 787 0 q 213 159 372 0 q 54 543 54 318 q 213 926 54 767 q 597 1085 372 1085 q 942 961 791 1085 q 958 922 958 945 q 942 884 958 900 q 903 868 926 868 q 865 884 881 868 q 597 977 750 977 q 290 849 417 977 q 163 543 163 722 q 290 236 163 363 q 597 109 417 109 q 868 203 752 109 q 899 213 882 213 m 495 39 q 533 54 511 54 q 571 38 555 54 q 587 0 587 22 q 586 -13 587 -7 l 574 -54 q 621 -81 600 -64 q 669 -183 669 -123 q 621 -284 669 -243 q 506 -326 573 -326 q 429 -306 466 -326 l 367 -269 q 343 -224 343 -250 q 359 -185 343 -201 q 397 -170 375 -170 q 427 -178 414 -170 l 479 -210 q 506 -217 492 -217 q 544 -208 528 -217 q 560 -183 560 -199 q 544 -158 560 -168 q 506 -149 528 -149 q 468 -133 484 -149 q 452 -95 452 -117 q 454 -77 452 -85 l 481 16 q 495 39 485 28 z "},"È":{"ha":868,"x_min":55,"x_max":814,"o":"m 109 1085 l 760 1085 q 799 1069 783 1085 q 814 1031 814 1053 q 799 992 814 1008 q 760 977 783 977 l 163 977 l 163 597 l 597 597 q 636 581 620 597 q 652 543 652 565 q 636 504 652 520 q 597 488 620 488 l 163 488 l 163 109 l 760 109 q 799 93 783 109 q 814 54 814 77 q 799 16 814 32 q 760 0 783 0 l 109 0 q 71 16 87 0 q 55 54 55 32 l 55 1031 q 71 1069 55 1053 q 109 1085 87 1085 m 254 1356 q 270 1395 254 1379 q 309 1411 286 1411 q 347 1395 331 1411 l 512 1230 q 526 1194 526 1215 q 510 1155 526 1171 q 471 1139 494 1139 q 434 1154 450 1139 l 269 1318 q 254 1356 254 1335 z "},"É":{"ha":868,"x_min":55,"x_max":814,"o":"m 109 1085 l 760 1085 q 799 1069 783 1085 q 814 1031 814 1053 q 799 992 814 1008 q 760 977 783 977 l 163 977 l 163 597 l 597 597 q 636 581 620 597 q 652 543 652 565 q 636 504 652 520 q 597 488 620 488 l 163 488 l 163 109 l 760 109 q 799 93 783 109 q 814 54 814 77 q 799 16 814 32 q 760 0 783 0 l 109 0 q 71 16 87 0 q 55 54 55 32 l 55 1031 q 71 1069 55 1053 q 109 1085 87 1085 m 602 1318 l 437 1154 q 399 1139 421 1139 q 361 1155 377 1139 q 345 1194 345 1171 q 359 1230 345 1215 l 524 1395 q 562 1411 540 1411 q 601 1395 585 1411 q 616 1356 616 1379 q 602 1318 616 1335 z "},"Ê":{"ha":868,"x_min":55,"x_max":814,"o":"m 109 1085 l 760 1085 q 799 1069 783 1085 q 814 1031 814 1053 q 799 992 814 1008 q 760 977 783 977 l 163 977 l 163 597 l 597 597 q 636 581 620 597 q 652 543 652 565 q 636 504 652 520 q 597 488 620 488 l 163 488 l 163 109 l 760 109 q 799 93 783 109 q 814 54 814 77 q 799 16 814 32 q 760 0 783 0 l 109 0 q 71 16 87 0 q 55 54 55 32 l 55 1031 q 71 1069 55 1053 q 109 1085 87 1085 m 462 1376 l 624 1268 q 651 1221 651 1248 q 635 1182 651 1198 q 597 1166 619 1166 q 563 1178 577 1166 l 434 1263 l 305 1178 q 271 1166 291 1166 q 233 1182 249 1166 q 217 1221 217 1198 q 244 1268 217 1248 l 406 1376 q 434 1383 418 1383 q 462 1376 450 1383 z "},"Ë":{"ha":868,"x_min":55,"x_max":814,"o":"m 109 1085 l 760 1085 q 799 1069 783 1085 q 814 1031 814 1053 q 799 992 814 1008 q 760 977 783 977 l 163 977 l 163 597 l 597 597 q 636 581 620 597 q 652 543 652 565 q 636 504 652 520 q 597 488 620 488 l 163 488 l 163 109 l 760 109 q 799 93 783 109 q 814 54 814 77 q 799 16 814 32 q 760 0 783 0 l 109 0 q 71 16 87 0 q 55 54 55 32 l 55 1031 q 71 1069 55 1053 q 109 1085 87 1085 m 340 1248 q 320 1200 340 1220 q 273 1180 300 1180 q 225 1200 245 1180 q 205 1248 205 1220 q 225 1296 205 1276 q 273 1316 245 1316 q 320 1296 300 1316 q 340 1248 340 1276 m 666 1248 q 646 1200 666 1220 q 598 1180 626 1180 q 550 1200 570 1180 q 530 1248 530 1220 q 550 1296 530 1276 q 598 1316 570 1316 q 646 1296 626 1316 q 666 1248 666 1276 z "},"Ì":{"ha":326,"x_min":-18,"x_max":254,"o":"m 109 1031 q 124 1069 109 1053 q 163 1085 140 1085 q 201 1069 185 1085 q 217 1031 217 1053 l 217 54 q 201 16 217 32 q 163 0 185 0 q 124 16 140 0 q 109 54 109 32 l 109 1031 m -18 1356 q -2 1395 -18 1379 q 37 1411 14 1411 q 75 1395 59 1411 l 240 1230 q 254 1194 254 1215 q 238 1155 254 1171 q 199 1139 222 1139 q 162 1154 178 1139 l -3 1318 q -18 1356 -18 1335 z "},"Í":{"ha":326,"x_min":73,"x_max":344,"o":"m 109 1031 q 124 1069 109 1053 q 163 1085 140 1085 q 201 1069 185 1085 q 217 1031 217 1053 l 217 54 q 201 16 217 32 q 163 0 185 0 q 124 16 140 0 q 109 54 109 32 l 109 1031 m 329 1318 l 164 1154 q 127 1139 149 1139 q 89 1155 104 1139 q 73 1194 73 1171 q 86 1230 73 1215 l 251 1395 q 290 1411 267 1411 q 328 1395 312 1411 q 344 1356 344 1379 q 329 1318 344 1335 z "},"Î":{"ha":326,"x_min":-54,"x_max":380,"o":"m 109 1031 q 124 1069 109 1053 q 163 1085 140 1085 q 201 1069 185 1085 q 217 1031 217 1053 l 217 54 q 201 16 217 32 q 163 0 185 0 q 124 16 140 0 q 109 54 109 32 l 109 1031 m 191 1376 l 353 1268 q 380 1221 380 1248 q 365 1182 380 1198 q 326 1166 349 1166 q 292 1178 307 1166 l 163 1263 l 35 1178 q 1 1166 20 1166 q -38 1182 -22 1166 q -54 1221 -54 1198 q -26 1268 -54 1248 l 136 1376 q 163 1383 148 1383 q 191 1376 179 1383 z "},"Ï":{"ha":326,"x_min":-67,"x_max":394,"o":"m 109 1031 q 124 1069 109 1053 q 163 1085 140 1085 q 201 1069 185 1085 q 217 1031 217 1053 l 217 54 q 201 16 217 32 q 163 0 185 0 q 124 16 140 0 q 109 54 109 32 l 109 1031 m 68 1248 q 48 1200 68 1220 q 1 1180 28 1180 q -47 1200 -27 1180 q -67 1248 -67 1220 q -47 1296 -67 1276 q 1 1316 -27 1316 q 48 1296 28 1316 q 68 1248 68 1276 m 394 1248 q 374 1200 394 1220 q 326 1180 354 1180 q 278 1200 298 1180 q 258 1248 258 1220 q 278 1296 258 1276 q 326 1316 298 1316 q 374 1296 354 1316 q 394 1248 394 1276 z "},"Ð":{"ha":1031,"x_min":0,"x_max":976,"o":"m 162 597 l 162 1031 q 178 1069 162 1053 q 216 1085 194 1085 l 433 1085 q 817 926 658 1085 q 976 543 976 767 q 817 159 976 318 q 433 0 658 0 l 216 0 q 178 16 194 0 q 162 54 162 32 l 162 488 l 54 488 q 16 504 32 488 q 0 543 0 520 q 16 581 0 565 q 54 597 32 597 l 162 597 m 271 597 l 488 597 q 526 581 510 597 q 542 543 542 565 q 526 504 542 520 q 488 488 510 488 l 271 488 l 271 109 l 433 109 q 740 236 613 109 q 867 543 867 363 q 740 849 867 722 q 433 977 613 977 l 271 977 l 271 597 z "},"Ñ":{"ha":977,"x_min":54,"x_max":922,"o":"m 163 54 q 147 16 163 32 q 109 0 131 0 q 70 16 86 0 q 54 54 54 32 l 54 1031 q 70 1069 54 1053 q 109 1085 86 1085 q 151 1065 133 1085 l 814 212 l 814 1031 q 830 1069 814 1053 q 868 1085 846 1085 q 906 1069 890 1085 q 922 1031 922 1053 l 922 54 q 906 16 922 32 q 868 0 890 0 q 827 18 844 0 l 163 872 l 163 54 m 522 1221 q 378 1167 460 1167 q 224 1231 288 1167 q 209 1269 209 1247 q 225 1307 209 1291 q 263 1323 241 1323 q 301 1308 285 1323 q 378 1276 333 1276 q 446 1299 416 1276 q 589 1354 506 1354 q 743 1290 680 1354 q 758 1252 758 1274 q 742 1214 758 1230 q 704 1198 726 1198 q 666 1213 682 1198 q 589 1245 634 1245 q 522 1221 551 1245 z "},"Ò":{"ha":1194,"x_min":54,"x_max":1139,"o":"m 597 977 q 290 849 417 977 q 163 543 163 722 q 290 236 163 363 q 597 109 417 109 q 904 236 777 109 q 1031 543 1031 363 q 904 849 1031 722 q 597 977 777 977 m 1139 543 q 980 159 1139 318 q 597 0 821 0 q 213 159 372 0 q 54 543 54 318 q 213 926 54 767 q 597 1085 372 1085 q 980 926 821 1085 q 1139 543 1139 767 m 470 1356 q 486 1395 470 1379 q 524 1411 502 1411 q 563 1395 547 1411 l 728 1230 q 741 1194 741 1215 q 725 1155 741 1171 q 687 1139 709 1139 q 650 1154 665 1139 l 485 1318 q 470 1356 470 1335 z "},"Ó":{"ha":1194,"x_min":54,"x_max":1139,"o":"m 597 977 q 290 849 417 977 q 163 543 163 722 q 290 236 163 363 q 597 109 417 109 q 904 236 777 109 q 1031 543 1031 363 q 904 849 1031 722 q 597 977 777 977 m 1139 543 q 980 159 1139 318 q 597 0 821 0 q 213 159 372 0 q 54 543 54 318 q 213 926 54 767 q 597 1085 372 1085 q 980 926 821 1085 q 1139 543 1139 767 m 715 1318 l 551 1154 q 513 1139 535 1139 q 475 1155 491 1139 q 459 1194 459 1171 q 473 1230 459 1215 l 637 1395 q 676 1411 654 1411 q 714 1395 699 1411 q 730 1356 730 1379 q 715 1318 730 1335 z "},"Ô":{"ha":1194,"x_min":54,"x_max":1139,"o":"m 597 977 q 290 849 417 977 q 163 543 163 722 q 290 236 163 363 q 597 109 417 109 q 904 236 777 109 q 1031 543 1031 363 q 904 849 1031 722 q 597 977 777 977 m 1139 543 q 980 159 1139 318 q 597 0 821 0 q 213 159 372 0 q 54 543 54 318 q 213 926 54 767 q 597 1085 372 1085 q 980 926 821 1085 q 1139 543 1139 767 m 625 1376 l 787 1268 q 814 1221 814 1248 q 798 1182 814 1198 q 760 1166 782 1166 q 726 1178 740 1166 l 597 1263 l 468 1178 q 434 1166 454 1166 q 396 1182 412 1166 q 380 1221 380 1198 q 407 1268 380 1248 l 569 1376 q 597 1383 581 1383 q 625 1376 612 1383 z "},"Õ":{"ha":1194,"x_min":54,"x_max":1139,"o":"m 597 977 q 290 849 417 977 q 163 543 163 722 q 290 236 163 363 q 597 109 417 109 q 904 236 777 109 q 1031 543 1031 363 q 904 849 1031 722 q 597 977 777 977 m 1139 543 q 980 159 1139 318 q 597 0 821 0 q 213 159 372 0 q 54 543 54 318 q 213 926 54 767 q 597 1085 372 1085 q 980 926 821 1085 q 1139 543 1139 767 m 630 1221 q 486 1167 569 1167 q 332 1231 396 1167 q 317 1269 317 1247 q 333 1307 317 1291 q 372 1323 349 1323 q 410 1308 393 1323 q 486 1276 441 1276 q 554 1299 524 1276 q 698 1354 614 1354 q 852 1290 788 1354 q 867 1252 867 1274 q 851 1214 867 1230 q 812 1198 835 1198 q 774 1213 791 1198 q 698 1245 743 1245 q 630 1221 659 1245 z "},"Ö":{"ha":1194,"x_min":54,"x_max":1139,"o":"m 597 977 q 290 849 417 977 q 163 543 163 722 q 290 236 163 363 q 597 109 417 109 q 904 236 777 109 q 1031 543 1031 363 q 904 849 1031 722 q 597 977 777 977 m 1139 543 q 980 159 1139 318 q 597 0 821 0 q 213 159 372 0 q 54 543 54 318 q 213 926 54 767 q 597 1085 372 1085 q 980 926 821 1085 q 1139 543 1139 767 m 502 1248 q 482 1200 502 1220 q 434 1180 462 1180 q 386 1200 406 1180 q 366 1248 366 1220 q 386 1296 366 1276 q 434 1316 406 1316 q 482 1296 462 1316 q 502 1248 502 1276 m 827 1248 q 807 1200 827 1220 q 760 1180 787 1180 q 712 1200 732 1180 q 692 1248 692 1220 q 712 1296 692 1276 q 760 1316 732 1316 q 807 1296 787 1316 q 827 1248 827 1276 z "},"×":{"ha":651,"x_min":54,"x_max":597,"o":"m 248 488 l 69 667 q 54 705 54 684 q 70 744 54 728 q 109 760 86 760 q 148 743 131 760 l 326 566 l 503 743 q 543 760 520 760 q 581 744 565 760 q 597 705 597 728 q 582 667 597 684 l 403 488 l 582 309 q 597 271 597 293 q 581 233 597 249 q 543 217 565 217 q 505 231 521 217 l 326 411 l 146 231 q 109 217 130 217 q 70 233 86 217 q 54 271 54 249 q 69 309 54 293 l 248 488 z "},"Ø":{"ha":1194,"x_min":54,"x_max":1139,"o":"m 1017 886 q 1139 543 1139 739 q 980 159 1139 318 q 597 0 821 0 q 254 122 400 0 l 147 16 q 109 0 131 0 q 70 16 86 0 q 54 54 54 32 q 68 92 54 76 l 176 199 q 54 543 54 346 q 213 926 54 767 q 597 1085 372 1085 q 940 963 793 1085 l 1046 1069 q 1085 1085 1063 1085 q 1123 1069 1107 1085 q 1139 1031 1139 1053 q 1127 996 1139 1011 l 1017 886 m 254 277 l 863 886 q 597 977 749 977 q 290 849 417 977 q 163 543 163 722 q 254 277 163 391 m 940 809 l 331 199 q 597 109 445 109 q 904 236 777 109 q 1031 543 1031 363 q 940 809 1031 694 z "},"Ù":{"ha":868,"x_min":54,"x_max":814,"o":"m 54 1031 q 70 1069 54 1053 q 109 1085 86 1085 q 147 1069 131 1085 q 163 1031 163 1053 l 163 380 q 242 188 163 267 q 434 109 321 109 q 626 188 547 109 q 705 380 705 267 l 705 1031 q 721 1069 705 1053 q 760 1085 737 1085 q 798 1069 782 1085 q 814 1031 814 1053 l 814 380 q 703 111 814 222 q 434 0 591 0 q 165 111 277 0 q 54 380 54 222 l 54 1031 m 253 1356 q 269 1395 253 1379 q 307 1411 285 1411 q 346 1395 330 1411 l 511 1230 q 524 1194 524 1215 q 508 1155 524 1171 q 470 1139 492 1139 q 433 1154 448 1139 l 268 1318 q 253 1356 253 1335 z "},"Ú":{"ha":868,"x_min":54,"x_max":814,"o":"m 54 1031 q 70 1069 54 1053 q 109 1085 86 1085 q 147 1069 131 1085 q 163 1031 163 1053 l 163 380 q 242 188 163 267 q 434 109 321 109 q 626 188 547 109 q 705 380 705 267 l 705 1031 q 721 1069 705 1053 q 760 1085 737 1085 q 798 1069 782 1085 q 814 1031 814 1053 l 814 380 q 703 111 814 222 q 434 0 591 0 q 165 111 277 0 q 54 380 54 222 l 54 1031 m 600 1318 l 435 1154 q 398 1139 420 1139 q 360 1155 376 1139 q 344 1194 344 1171 q 357 1230 344 1215 l 522 1395 q 561 1411 538 1411 q 599 1395 583 1411 q 615 1356 615 1379 q 600 1318 615 1335 z "},"Û":{"ha":868,"x_min":54,"x_max":814,"o":"m 54 1031 q 70 1069 54 1053 q 109 1085 86 1085 q 147 1069 131 1085 q 163 1031 163 1053 l 163 380 q 242 188 163 267 q 434 109 321 109 q 626 188 547 109 q 705 380 705 267 l 705 1031 q 721 1069 705 1053 q 760 1085 737 1085 q 798 1069 782 1085 q 814 1031 814 1053 l 814 380 q 703 111 814 222 q 434 0 591 0 q 165 111 277 0 q 54 380 54 222 l 54 1031 m 462 1376 l 624 1268 q 651 1221 651 1248 q 635 1182 651 1198 q 597 1166 619 1166 q 563 1178 577 1166 l 434 1263 l 305 1178 q 271 1166 291 1166 q 233 1182 249 1166 q 217 1221 217 1198 q 244 1268 217 1248 l 406 1376 q 434 1383 418 1383 q 462 1376 450 1383 z "},"Ü":{"ha":868,"x_min":54,"x_max":814,"o":"m 54 1031 q 70 1069 54 1053 q 109 1085 86 1085 q 147 1069 131 1085 q 163 1031 163 1053 l 163 380 q 242 188 163 267 q 434 109 321 109 q 626 188 547 109 q 705 380 705 267 l 705 1031 q 721 1069 705 1053 q 760 1085 737 1085 q 798 1069 782 1085 q 814 1031 814 1053 l 814 380 q 703 111 814 222 q 434 0 591 0 q 165 111 277 0 q 54 380 54 222 l 54 1031 m 339 1248 q 319 1200 339 1220 q 271 1180 299 1180 q 223 1200 243 1180 q 203 1248 203 1220 q 223 1296 203 1276 q 271 1316 243 1316 q 319 1296 299 1316 q 339 1248 339 1276 m 665 1248 q 645 1200 665 1220 q 597 1180 625 1180 q 549 1200 569 1180 q 529 1248 529 1220 q 549 1296 529 1276 q 597 1316 569 1316 q 645 1296 625 1316 q 665 1248 665 1276 z "},"Ý":{"ha":868,"x_min":54,"x_max":814,"o":"m 488 54 q 472 16 488 32 q 434 0 456 0 q 396 16 412 0 q 380 54 380 32 l 380 526 l 63 1000 q 54 1031 54 1014 q 70 1069 54 1053 q 109 1085 86 1085 q 153 1063 136 1085 l 434 641 l 715 1063 q 760 1085 732 1085 q 798 1069 782 1085 q 814 1031 814 1053 q 805 1000 814 1014 l 488 526 l 488 54 m 600 1318 l 435 1154 q 398 1139 420 1139 q 360 1155 376 1139 q 344 1194 344 1171 q 357 1230 344 1215 l 522 1395 q 561 1411 538 1411 q 599 1395 583 1411 q 615 1356 615 1379 q 600 1318 615 1335 z "},"Þ":{"ha":868,"x_min":54,"x_max":814,"o":"m 54 1031 q 70 1069 54 1053 q 109 1085 86 1085 q 147 1069 131 1085 q 163 1031 163 1053 l 163 868 l 488 868 q 719 773 623 868 q 814 543 814 677 q 719 312 814 408 q 488 217 623 217 l 163 217 l 163 54 q 147 16 163 32 q 109 0 131 0 q 70 16 86 0 q 54 54 54 32 l 54 1031 m 488 326 q 642 389 578 326 q 705 543 705 452 q 642 696 705 633 q 488 760 578 760 l 163 760 l 163 326 l 488 326 z "},"ß":{"ha":760,"x_min":54,"x_max":705,"o":"m 163 54 q 147 16 163 32 q 109 0 131 0 q 70 16 86 0 q 54 54 54 32 l 54 814 q 134 1006 54 926 q 326 1085 213 1085 q 517 1006 438 1085 q 597 814 597 926 q 534 641 597 714 q 517 588 517 618 q 555 515 517 536 q 626 463 593 496 q 705 271 705 384 q 626 79 705 159 q 434 0 547 0 q 242 79 321 0 q 224 119 224 97 q 240 158 224 142 q 279 174 256 174 q 319 157 301 174 q 434 109 367 109 q 549 156 501 109 q 597 271 597 204 q 549 387 597 338 q 507 418 530 406 q 464 452 484 431 q 407 589 407 509 q 456 716 407 661 q 488 814 488 758 q 440 929 488 881 q 326 977 393 977 q 211 929 258 977 q 163 814 163 881 l 163 54 z "},"à":{"ha":868,"x_min":54,"x_max":814,"o":"m 434 651 q 242 572 321 651 q 163 380 163 492 q 242 188 163 267 q 434 109 321 109 q 626 188 547 109 q 705 380 705 267 q 626 572 705 492 q 434 651 547 651 m 705 114 q 434 0 591 0 q 165 111 277 0 q 54 380 54 222 q 165 648 54 537 q 434 760 277 760 q 703 648 591 760 q 814 380 814 537 l 814 54 q 798 16 814 32 q 760 0 782 0 q 721 16 737 0 q 705 54 705 32 l 705 114 m 271 1031 q 287 1069 271 1053 q 326 1085 303 1085 q 364 1069 348 1085 l 529 905 q 543 868 543 889 q 527 830 543 846 q 488 814 511 814 q 451 828 467 814 l 286 993 q 271 1031 271 1009 z "},"á":{"ha":868,"x_min":54,"x_max":814,"o":"m 434 651 q 242 572 321 651 q 163 380 163 492 q 242 188 163 267 q 434 109 321 109 q 626 188 547 109 q 705 380 705 267 q 626 572 705 492 q 434 651 547 651 m 705 114 q 434 0 591 0 q 165 111 277 0 q 54 380 54 222 q 165 648 54 537 q 434 760 277 760 q 703 648 591 760 q 814 380 814 537 l 814 54 q 798 16 814 32 q 760 0 782 0 q 721 16 737 0 q 705 54 705 32 l 705 114 m 582 993 l 417 828 q 380 814 401 814 q 341 830 357 814 q 326 868 326 846 q 339 905 326 889 l 504 1069 q 543 1085 520 1085 q 581 1069 565 1085 q 597 1031 597 1053 q 582 993 597 1009 z "},"â":{"ha":868,"x_min":54,"x_max":814,"o":"m 434 651 q 242 572 321 651 q 163 380 163 492 q 242 188 163 267 q 434 109 321 109 q 626 188 547 109 q 705 380 705 267 q 626 572 705 492 q 434 651 547 651 m 705 114 q 434 0 591 0 q 165 111 277 0 q 54 380 54 222 q 165 648 54 537 q 434 760 277 760 q 703 648 591 760 q 814 380 814 537 l 814 54 q 798 16 814 32 q 760 0 782 0 q 721 16 737 0 q 705 54 705 32 l 705 114 m 462 1050 l 624 943 q 651 895 651 922 q 635 857 651 873 q 597 841 619 841 q 563 852 577 841 l 434 938 l 305 852 q 271 841 291 841 q 233 857 249 841 q 217 895 217 873 q 244 943 217 922 l 406 1050 q 434 1058 418 1058 q 462 1050 450 1058 z "},"ã":{"ha":868,"x_min":54,"x_max":814,"o":"m 434 651 q 242 572 321 651 q 163 380 163 492 q 242 188 163 267 q 434 109 321 109 q 626 188 547 109 q 705 380 705 267 q 626 572 705 492 q 434 651 547 651 m 705 114 q 434 0 591 0 q 165 111 277 0 q 54 380 54 222 q 165 648 54 537 q 434 760 277 760 q 703 648 591 760 q 814 380 814 537 l 814 54 q 798 16 814 32 q 760 0 782 0 q 721 16 737 0 q 705 54 705 32 l 705 114 m 472 896 q 328 842 411 842 q 174 905 238 842 q 159 943 159 922 q 175 982 159 966 q 214 998 191 998 q 252 983 235 998 q 328 950 283 950 q 396 974 366 950 q 540 1028 456 1028 q 694 964 630 1028 q 709 926 709 948 q 693 888 709 904 q 654 872 677 872 q 616 887 633 872 q 540 920 585 920 q 472 896 501 920 z "},"ä":{"ha":868,"x_min":54,"x_max":814,"o":"m 434 651 q 242 572 321 651 q 163 380 163 492 q 242 188 163 267 q 434 109 321 109 q 626 188 547 109 q 705 380 705 267 q 626 572 705 492 q 434 651 547 651 m 705 114 q 434 0 591 0 q 165 111 277 0 q 54 380 54 222 q 165 648 54 537 q 434 760 277 760 q 703 648 591 760 q 814 380 814 537 l 814 54 q 798 16 814 32 q 760 0 782 0 q 721 16 737 0 q 705 54 705 32 l 705 114 m 339 922 q 319 874 339 895 q 271 854 299 854 q 223 874 243 854 q 203 922 203 895 q 223 970 203 950 q 271 990 243 990 q 319 970 299 990 q 339 922 339 950 m 665 922 q 645 874 665 895 q 597 854 625 854 q 549 874 569 854 q 529 922 529 895 q 549 970 529 950 q 597 990 569 990 q 645 970 625 990 q 665 922 665 950 z "},"å":{"ha":868,"x_min":54,"x_max":814,"o":"m 434 651 q 242 572 321 651 q 163 380 163 492 q 242 188 163 267 q 434 109 321 109 q 626 188 547 109 q 705 380 705 267 q 626 572 705 492 q 434 651 547 651 m 705 114 q 434 0 591 0 q 165 111 277 0 q 54 380 54 222 q 165 648 54 537 q 434 760 277 760 q 703 648 591 760 q 814 380 814 537 l 814 54 q 798 16 814 32 q 760 0 782 0 q 721 16 737 0 q 705 54 705 32 l 705 114 m 571 949 q 531 852 571 892 q 435 812 491 812 q 338 852 378 812 q 298 949 298 892 q 338 1045 298 1005 q 435 1085 378 1085 q 531 1045 491 1085 q 571 949 571 1005 m 435 1017 q 386 997 406 1017 q 366 949 366 977 q 386 900 366 920 q 435 880 406 880 q 483 900 463 880 q 503 949 503 920 q 483 997 503 977 q 435 1017 463 1017 z "},"æ":{"ha":1519,"x_min":54,"x_max":1465,"o":"m 434 651 q 242 572 321 651 q 163 380 163 492 q 242 188 163 267 q 434 109 321 109 q 626 188 547 109 q 705 380 705 267 q 626 572 705 492 q 434 651 547 651 m 1352 434 q 1277 572 1337 512 q 1085 651 1198 651 q 893 572 972 651 q 819 434 833 512 l 1352 434 m 814 114 l 814 54 q 798 16 814 32 q 760 0 782 0 q 721 16 737 0 q 705 54 705 32 l 705 114 q 434 0 591 0 q 165 111 277 0 q 54 380 54 222 q 165 648 54 537 q 434 760 277 760 q 703 648 591 760 q 760 577 736 615 q 817 648 783 615 q 1085 760 928 760 q 1354 648 1242 760 q 1465 380 1465 537 q 1449 341 1465 357 q 1411 326 1433 326 l 819 326 q 893 188 833 248 q 1085 109 972 109 q 1260 173 1187 109 q 1294 184 1275 184 q 1332 169 1316 184 q 1348 130 1348 153 q 1333 92 1348 108 q 1085 0 1227 0 q 814 114 928 0 z "},"ç":{"ha":760,"x_min":54,"x_max":701,"o":"m 644 186 q 683 170 667 186 q 699 132 699 154 q 682 92 699 109 q 434 0 576 0 q 165 111 277 0 q 54 380 54 222 q 165 648 54 537 q 434 760 277 760 q 682 668 576 760 q 701 626 701 651 q 685 588 701 604 q 646 572 669 572 q 612 584 627 572 q 434 651 536 651 q 242 572 321 651 q 163 380 163 492 q 242 188 163 267 q 434 109 321 109 q 611 175 536 109 q 644 186 625 186 m 367 39 q 405 54 382 54 q 443 38 427 54 q 459 0 459 22 q 458 -13 459 -7 l 446 -54 q 493 -81 471 -64 q 541 -183 541 -123 q 493 -284 541 -243 q 378 -326 445 -326 q 300 -306 338 -326 l 239 -269 q 215 -224 215 -250 q 231 -185 215 -201 q 269 -170 247 -170 q 298 -178 286 -170 l 351 -210 q 378 -217 364 -217 q 416 -208 400 -217 q 432 -183 432 -199 q 416 -158 432 -168 q 378 -149 400 -149 q 339 -133 355 -149 q 323 -95 323 -117 q 326 -77 323 -85 l 353 16 q 367 39 357 28 z "},"è":{"ha":868,"x_min":54,"x_max":814,"o":"m 701 434 q 626 572 686 512 q 434 651 547 651 q 242 572 321 651 q 168 434 182 512 l 701 434 m 643 184 q 681 169 665 184 q 697 130 697 153 q 682 92 697 108 q 434 0 576 0 q 165 111 277 0 q 54 380 54 222 q 165 648 54 537 q 434 760 277 760 q 703 648 591 760 q 814 380 814 537 q 798 341 814 357 q 760 326 782 326 l 168 326 q 242 188 182 248 q 434 109 321 109 q 609 173 536 109 q 643 184 624 184 m 271 1031 q 287 1069 271 1053 q 326 1085 303 1085 q 364 1069 348 1085 l 529 905 q 543 868 543 889 q 527 830 543 846 q 488 814 511 814 q 451 828 467 814 l 286 993 q 271 1031 271 1009 z "},"é":{"ha":868,"x_min":54,"x_max":814,"o":"m 701 434 q 626 572 686 512 q 434 651 547 651 q 242 572 321 651 q 168 434 182 512 l 701 434 m 643 184 q 681 169 665 184 q 697 130 697 153 q 682 92 697 108 q 434 0 576 0 q 165 111 277 0 q 54 380 54 222 q 165 648 54 537 q 434 760 277 760 q 703 648 591 760 q 814 380 814 537 q 798 341 814 357 q 760 326 782 326 l 168 326 q 242 188 182 248 q 434 109 321 109 q 609 173 536 109 q 643 184 624 184 m 582 993 l 417 828 q 380 814 401 814 q 341 830 357 814 q 326 868 326 846 q 339 905 326 889 l 504 1069 q 543 1085 520 1085 q 581 1069 565 1085 q 597 1031 597 1053 q 582 993 597 1009 z "},"ê":{"ha":868,"x_min":54,"x_max":814,"o":"m 701 434 q 626 572 686 512 q 434 651 547 651 q 242 572 321 651 q 168 434 182 512 l 701 434 m 643 184 q 681 169 665 184 q 697 130 697 153 q 682 92 697 108 q 434 0 576 0 q 165 111 277 0 q 54 380 54 222 q 165 648 54 537 q 434 760 277 760 q 703 648 591 760 q 814 380 814 537 q 798 341 814 357 q 760 326 782 326 l 168 326 q 242 188 182 248 q 434 109 321 109 q 609 173 536 109 q 643 184 624 184 m 462 1050 l 624 943 q 651 895 651 922 q 635 857 651 873 q 597 841 619 841 q 563 852 577 841 l 434 938 l 305 852 q 271 841 291 841 q 233 857 249 841 q 217 895 217 873 q 244 943 217 922 l 406 1050 q 434 1058 418 1058 q 462 1050 450 1058 z "},"ë":{"ha":868,"x_min":54,"x_max":814,"o":"m 701 434 q 626 572 686 512 q 434 651 547 651 q 242 572 321 651 q 168 434 182 512 l 701 434 m 643 184 q 681 169 665 184 q 697 130 697 153 q 682 92 697 108 q 434 0 576 0 q 165 111 277 0 q 54 380 54 222 q 165 648 54 537 q 434 760 277 760 q 703 648 591 760 q 814 380 814 537 q 798 341 814 357 q 760 326 782 326 l 168 326 q 242 188 182 248 q 434 109 321 109 q 609 173 536 109 q 643 184 624 184 m 339 922 q 319 874 339 895 q 271 854 299 854 q 223 874 243 854 q 203 922 203 895 q 223 970 203 950 q 271 990 243 990 q 319 970 299 990 q 339 922 339 950 m 665 922 q 645 874 665 895 q 597 854 625 854 q 549 874 569 854 q 529 922 529 895 q 549 970 529 950 q 597 990 569 990 q 645 970 625 990 q 665 922 665 950 z "},"ì":{"ha":326,"x_min":1,"x_max":272,"o":"m 109 705 q 124 744 109 728 q 163 760 140 760 q 201 744 185 760 q 217 705 217 728 l 217 54 q 201 16 217 32 q 163 0 185 0 q 124 16 140 0 q 109 54 109 32 l 109 705 m 1 1031 q 17 1069 1 1053 q 55 1085 33 1085 q 94 1069 77 1085 l 258 905 q 272 868 272 889 q 256 830 272 846 q 218 814 240 814 q 180 828 196 814 l 16 993 q 1 1031 1 1009 z "},"í":{"ha":326,"x_min":56,"x_max":327,"o":"m 109 705 q 124 744 109 728 q 163 760 140 760 q 201 744 185 760 q 217 705 217 728 l 217 54 q 201 16 217 32 q 163 0 185 0 q 124 16 140 0 q 109 54 109 32 l 109 705 m 312 993 l 147 828 q 110 814 132 814 q 72 830 87 814 q 56 868 56 846 q 69 905 56 889 l 234 1069 q 273 1085 250 1085 q 311 1069 295 1085 q 327 1031 327 1053 q 312 993 327 1009 z "},"î":{"ha":380,"x_min":-26,"x_max":408,"o":"m 136 705 q 152 744 136 728 q 191 760 168 760 q 229 744 213 760 q 245 705 245 728 l 245 54 q 229 16 245 32 q 191 0 213 0 q 152 16 168 0 q 136 54 136 32 l 136 705 m 218 1050 l 380 943 q 408 895 408 922 q 392 857 408 873 q 353 841 376 841 q 319 852 334 841 l 191 938 l 62 852 q 28 841 47 841 q -11 857 5 841 q -26 895 -26 873 q 1 943 -26 922 l 163 1050 q 191 1058 175 1058 q 218 1050 206 1058 z "},"ï":{"ha":407,"x_min":-26,"x_max":435,"o":"m 149 705 q 165 744 149 728 q 203 760 181 760 q 242 744 226 760 q 258 705 258 728 l 258 54 q 242 16 258 32 q 203 0 226 0 q 165 16 181 0 q 149 54 149 32 l 149 705 m 110 922 q 90 874 110 895 q 42 854 70 854 q -6 874 14 854 q -26 922 -26 895 q -6 970 -26 950 q 42 990 14 990 q 90 970 70 990 q 110 922 110 950 m 435 922 q 415 874 435 895 q 368 854 395 854 q 320 874 340 854 q 300 922 300 895 q 320 970 300 950 q 368 990 340 990 q 415 970 395 990 q 435 922 435 950 z "},"ð":{"ha":868,"x_min":54,"x_max":814,"o":"m 434 651 q 242 572 321 651 q 163 380 163 492 q 242 188 163 267 q 434 109 321 109 q 626 188 547 109 q 705 380 705 267 q 626 572 705 492 q 434 651 547 651 m 411 962 l 388 1001 q 380 1031 380 1016 q 396 1069 380 1053 q 434 1085 412 1085 q 480 1060 465 1085 l 505 1017 l 597 1071 q 638 1077 616 1082 q 671 1052 661 1071 q 677 1010 683 1032 q 652 977 671 989 l 559 923 l 768 562 q 814 380 814 480 q 703 111 814 222 q 434 0 591 0 q 165 111 277 0 q 54 380 54 222 q 165 648 54 537 q 434 760 277 760 q 536 747 488 760 l 465 868 l 371 813 q 330 807 352 802 q 297 832 308 813 q 291 873 286 852 q 316 907 297 895 l 411 962 z "},"ñ":{"ha":814,"x_min":54,"x_max":760,"o":"m 54 705 q 70 744 54 728 q 109 760 86 760 q 147 744 131 760 q 163 705 163 728 l 163 661 q 407 760 264 760 q 656 656 553 760 q 760 407 760 553 l 760 54 q 744 16 760 32 q 705 0 728 0 q 667 16 683 0 q 651 54 651 32 l 651 407 q 579 579 651 508 q 407 651 508 651 q 234 579 306 651 q 163 407 163 508 l 163 54 q 147 16 163 32 q 109 0 131 0 q 70 16 86 0 q 54 54 54 32 l 54 705 m 448 896 q 304 842 387 842 q 151 905 214 842 q 136 943 136 922 q 152 982 136 966 q 190 998 168 998 q 228 983 212 998 q 304 950 260 950 q 372 974 342 950 q 516 1028 433 1028 q 670 964 606 1028 q 685 926 685 948 q 669 888 685 904 q 631 872 653 872 q 593 887 609 872 q 516 920 561 920 q 448 896 477 920 z "},"ò":{"ha":868,"x_min":54,"x_max":814,"o":"m 814 380 q 703 111 814 222 q 434 0 591 0 q 165 111 277 0 q 54 380 54 222 q 165 648 54 537 q 434 760 277 760 q 703 648 591 760 q 814 380 814 537 m 434 651 q 242 572 321 651 q 163 380 163 492 q 242 188 163 267 q 434 109 321 109 q 626 188 547 109 q 705 380 705 267 q 626 572 705 492 q 434 651 547 651 m 271 1031 q 287 1069 271 1053 q 326 1085 303 1085 q 364 1069 348 1085 l 529 905 q 543 868 543 889 q 527 830 543 846 q 488 814 511 814 q 451 828 467 814 l 286 993 q 271 1031 271 1009 z "},"ó":{"ha":868,"x_min":54,"x_max":814,"o":"m 814 380 q 703 111 814 222 q 434 0 591 0 q 165 111 277 0 q 54 380 54 222 q 165 648 54 537 q 434 760 277 760 q 703 648 591 760 q 814 380 814 537 m 434 651 q 242 572 321 651 q 163 380 163 492 q 242 188 163 267 q 434 109 321 109 q 626 188 547 109 q 705 380 705 267 q 626 572 705 492 q 434 651 547 651 m 582 993 l 417 828 q 380 814 401 814 q 341 830 357 814 q 326 868 326 846 q 339 905 326 889 l 504 1069 q 543 1085 520 1085 q 581 1069 565 1085 q 597 1031 597 1053 q 582 993 597 1009 z "},"ô":{"ha":868,"x_min":54,"x_max":814,"o":"m 814 380 q 703 111 814 222 q 434 0 591 0 q 165 111 277 0 q 54 380 54 222 q 165 648 54 537 q 434 760 277 760 q 703 648 591 760 q 814 380 814 537 m 434 651 q 242 572 321 651 q 163 380 163 492 q 242 188 163 267 q 434 109 321 109 q 626 188 547 109 q 705 380 705 267 q 626 572 705 492 q 434 651 547 651 m 462 1050 l 624 943 q 651 895 651 922 q 635 857 651 873 q 597 841 619 841 q 563 852 577 841 l 434 938 l 305 852 q 271 841 291 841 q 233 857 249 841 q 217 895 217 873 q 244 943 217 922 l 406 1050 q 434 1058 418 1058 q 462 1050 450 1058 z "},"õ":{"ha":868,"x_min":54,"x_max":814,"o":"m 814 380 q 703 111 814 222 q 434 0 591 0 q 165 111 277 0 q 54 380 54 222 q 165 648 54 537 q 434 760 277 760 q 703 648 591 760 q 814 380 814 537 m 434 651 q 242 572 321 651 q 163 380 163 492 q 242 188 163 267 q 434 109 321 109 q 626 188 547 109 q 705 380 705 267 q 626 572 705 492 q 434 651 547 651 m 472 896 q 328 842 411 842 q 174 905 238 842 q 159 943 159 922 q 175 982 159 966 q 214 998 191 998 q 252 983 235 998 q 328 950 283 950 q 396 974 366 950 q 540 1028 456 1028 q 694 964 630 1028 q 709 926 709 948 q 693 888 709 904 q 654 872 677 872 q 616 887 633 872 q 540 920 585 920 q 472 896 501 920 z "},"ö":{"ha":868,"x_min":54,"x_max":814,"o":"m 814 380 q 703 111 814 222 q 434 0 591 0 q 165 111 277 0 q 54 380 54 222 q 165 648 54 537 q 434 760 277 760 q 703 648 591 760 q 814 380 814 537 m 434 651 q 242 572 321 651 q 163 380 163 492 q 242 188 163 267 q 434 109 321 109 q 626 188 547 109 q 705 380 705 267 q 626 572 705 492 q 434 651 547 651 m 339 922 q 319 874 339 895 q 271 854 299 854 q 223 874 243 854 q 203 922 203 895 q 223 970 203 950 q 271 990 243 990 q 319 970 299 990 q 339 922 339 950 m 665 922 q 645 874 665 895 q 597 854 625 854 q 549 874 569 854 q 529 922 529 895 q 549 970 529 950 q 597 990 569 990 q 645 970 625 990 q 665 922 665 950 z "},"÷":{"ha":651,"x_min":54,"x_max":597,"o":"m 393 692 q 373 644 393 664 q 326 624 353 624 q 278 644 298 624 q 258 692 258 664 q 278 740 258 720 q 326 760 298 760 q 373 740 353 760 q 393 692 393 720 m 109 434 q 70 450 86 434 q 54 488 54 466 q 70 527 54 511 q 109 543 86 543 l 543 543 q 581 527 565 543 q 597 488 597 511 q 581 450 597 466 q 543 434 565 434 l 109 434 m 393 285 q 373 237 393 257 q 326 217 353 217 q 278 237 298 217 q 258 285 258 257 q 278 333 258 313 q 326 353 298 353 q 373 333 353 353 q 393 285 393 313 z "},"ø":{"ha":868,"x_min":54,"x_max":814,"o":"m 584 606 q 434 651 518 651 q 242 572 321 651 q 163 380 163 492 q 207 230 163 296 l 584 606 m 661 530 l 284 153 q 434 109 350 109 q 626 188 547 109 q 705 380 705 267 q 661 530 705 464 m 662 684 l 720 742 q 760 760 737 760 q 798 744 782 760 q 814 705 814 728 q 799 667 814 684 l 739 607 q 814 380 814 509 q 703 111 814 222 q 434 0 591 0 q 207 75 304 0 l 147 16 q 109 0 131 0 q 70 16 86 0 q 54 54 54 32 q 69 92 54 76 l 130 153 q 54 380 54 250 q 165 648 54 537 q 434 760 277 760 q 662 684 564 760 z "},"ù":{"ha":814,"x_min":54,"x_max":760,"o":"m 760 54 q 744 16 760 32 q 705 0 728 0 q 667 16 683 0 q 651 54 651 32 l 651 98 q 407 0 549 0 q 158 103 261 0 q 54 353 54 207 l 54 705 q 70 744 54 728 q 109 760 86 760 q 147 744 131 760 q 163 705 163 728 l 163 353 q 234 180 163 252 q 407 109 306 109 q 579 180 508 109 q 651 353 651 252 l 651 705 q 667 744 651 728 q 705 760 683 760 q 744 744 728 760 q 760 705 760 728 l 760 54 m 271 1031 q 287 1069 271 1053 q 326 1085 303 1085 q 364 1069 348 1085 l 529 905 q 543 868 543 889 q 527 830 543 846 q 488 814 511 814 q 451 828 467 814 l 286 993 q 271 1031 271 1009 z "},"ú":{"ha":814,"x_min":54,"x_max":760,"o":"m 760 54 q 744 16 760 32 q 705 0 728 0 q 667 16 683 0 q 651 54 651 32 l 651 98 q 407 0 549 0 q 158 103 261 0 q 54 353 54 207 l 54 705 q 70 744 54 728 q 109 760 86 760 q 147 744 131 760 q 163 705 163 728 l 163 353 q 234 180 163 252 q 407 109 306 109 q 579 180 508 109 q 651 353 651 252 l 651 705 q 667 744 651 728 q 705 760 683 760 q 744 744 728 760 q 760 705 760 728 l 760 54 m 528 993 l 363 828 q 326 814 347 814 q 287 830 303 814 q 271 868 271 846 q 285 905 271 889 l 450 1069 q 488 1085 466 1085 q 527 1069 511 1085 q 543 1031 543 1053 q 528 993 543 1009 z "},"û":{"ha":814,"x_min":54,"x_max":760,"o":"m 760 54 q 744 16 760 32 q 705 0 728 0 q 667 16 683 0 q 651 54 651 32 l 651 98 q 407 0 549 0 q 158 103 261 0 q 54 353 54 207 l 54 705 q 70 744 54 728 q 109 760 86 760 q 147 744 131 760 q 163 705 163 728 l 163 353 q 234 180 163 252 q 407 109 306 109 q 579 180 508 109 q 651 353 651 252 l 651 705 q 667 744 651 728 q 705 760 683 760 q 744 744 728 760 q 760 705 760 728 l 760 54 m 435 1050 l 597 943 q 624 895 624 922 q 608 857 624 873 q 570 841 592 841 q 536 852 550 841 l 407 938 l 278 852 q 244 841 264 841 q 206 857 222 841 q 190 895 190 873 q 217 943 190 922 l 379 1050 q 407 1058 391 1058 q 435 1050 422 1058 z "},"ü":{"ha":814,"x_min":54,"x_max":760,"o":"m 760 54 q 744 16 760 32 q 705 0 728 0 q 667 16 683 0 q 651 54 651 32 l 651 98 q 407 0 549 0 q 158 103 261 0 q 54 353 54 207 l 54 705 q 70 744 54 728 q 109 760 86 760 q 147 744 131 760 q 163 705 163 728 l 163 353 q 234 180 163 252 q 407 109 306 109 q 579 180 508 109 q 651 353 651 252 l 651 705 q 667 744 651 728 q 705 760 683 760 q 744 744 728 760 q 760 705 760 728 l 760 54 m 312 922 q 292 874 312 895 q 244 854 272 854 q 196 874 216 854 q 176 922 176 895 q 196 970 176 950 q 244 990 216 990 q 292 970 272 990 q 312 922 312 950 m 637 922 q 617 874 637 895 q 570 854 597 854 q 522 874 542 854 q 502 922 502 895 q 522 970 502 950 q 570 990 542 990 q 617 970 597 990 q 637 922 637 950 z "},"ý":{"ha":760,"x_min":54,"x_max":705,"o":"m 321 55 l 60 680 q 54 705 54 692 q 70 744 54 728 q 109 760 86 760 q 147 744 131 760 q 160 724 156 734 l 380 197 l 600 724 q 613 744 604 734 q 651 760 629 760 q 689 744 673 760 q 705 705 705 728 q 699 680 705 692 l 295 -290 q 282 -309 291 -300 q 243 -326 266 -326 q 205 -310 221 -326 q 189 -271 189 -294 q 195 -246 189 -258 l 321 55 m 546 993 l 381 828 q 344 814 366 814 q 306 830 321 814 q 290 868 290 846 q 303 905 290 889 l 468 1069 q 507 1085 484 1085 q 545 1069 529 1085 q 561 1031 561 1053 q 546 993 561 1009 z "},"þ":{"ha":868,"x_min":54,"x_max":814,"o":"m 163 381 q 242 189 163 269 q 434 110 321 110 q 626 189 547 110 q 705 381 705 269 q 626 573 705 494 q 434 652 547 652 q 242 573 321 652 q 163 381 163 494 m 163 647 q 434 761 277 761 q 703 650 591 761 q 814 381 814 538 q 703 113 814 224 q 434 1 591 1 q 163 115 277 1 l 163 -271 q 147 -310 163 -294 q 109 -326 131 -326 q 70 -310 86 -326 q 54 -271 54 -294 l 54 1032 q 70 1070 54 1055 q 109 1086 86 1086 q 147 1070 131 1086 q 163 1032 163 1055 l 163 647 z "},"ÿ":{"ha":760,"x_min":54,"x_max":705,"o":"m 321 55 l 60 680 q 54 705 54 692 q 70 744 54 728 q 109 760 86 760 q 147 744 131 760 q 160 724 156 734 l 380 197 l 600 724 q 613 744 604 734 q 651 760 629 760 q 689 744 673 760 q 705 705 705 728 q 699 680 705 692 l 295 -290 q 282 -309 291 -300 q 243 -326 266 -326 q 205 -310 221 -326 q 189 -271 189 -294 q 195 -246 189 -258 l 321 55 m 285 922 q 265 874 285 895 q 217 854 245 854 q 169 874 189 854 q 149 922 149 895 q 169 970 149 950 q 217 990 189 990 q 265 970 245 990 q 285 922 285 950 m 610 922 q 590 874 610 895 q 543 854 570 854 q 495 874 515 854 q 475 922 475 895 q 495 970 475 950 q 543 990 515 990 q 590 970 570 990 q 610 922 610 950 z "},"ı":{"ha":326,"x_min":109,"x_max":217,"o":"m 109 705 q 124 744 109 728 q 163 760 140 760 q 201 744 185 760 q 217 705 217 728 l 217 54 q 201 16 217 32 q 163 0 185 0 q 124 16 140 0 q 109 54 109 32 l 109 705 z "},"ˆ":{"ha":543,"x_min":54,"x_max":488,"o":"m 299 1050 l 461 943 q 488 895 488 922 q 472 857 488 873 q 434 841 456 841 q 400 852 414 841 l 271 938 l 142 852 q 109 841 128 841 q 70 857 86 841 q 54 895 54 873 q 81 943 54 922 l 243 1050 q 271 1058 256 1058 q 299 1050 287 1058 z "},"ˇ":{"ha":543,"x_min":54,"x_max":488,"o":"m 271 841 q 243 848 256 841 l 81 956 q 54 1004 54 977 q 70 1042 54 1026 q 109 1058 86 1058 q 142 1046 128 1058 l 271 961 l 400 1046 q 434 1058 414 1058 q 472 1042 456 1058 q 488 1004 488 1026 q 461 956 488 977 l 299 848 q 271 841 287 841 z "},"ˉ":{"ha":543,"x_min":54,"x_max":488,"o":"m 109 868 q 70 884 86 868 q 54 922 54 900 q 70 961 54 945 q 109 977 86 977 l 434 977 q 472 961 456 977 q 488 922 488 945 q 472 884 488 900 q 434 868 456 868 l 109 868 z "},"˘":{"ha":543,"x_min":54,"x_max":489,"o":"m 54 1004 q 70 1042 54 1026 q 109 1058 86 1058 q 147 1042 131 1058 q 163 1004 163 1026 q 195 965 163 981 q 271 949 227 949 q 348 965 316 949 q 380 1004 380 981 q 396 1042 380 1026 q 435 1058 412 1058 q 473 1042 457 1058 q 489 1004 489 1026 q 425 889 486 932 q 271 841 361 841 q 118 889 181 841 q 54 1004 54 937 z "},"˙":{"ha":271,"x_min":54,"x_max":217,"o":"m 217 923 q 193 865 217 889 q 136 842 170 842 q 78 865 102 842 q 54 923 54 889 q 78 981 54 957 q 136 1004 102 1004 q 193 981 170 1004 q 217 923 217 957 z "},"˚":{"ha":380,"x_min":54,"x_max":328,"o":"m 328 949 q 288 852 328 892 q 191 812 248 812 q 94 852 134 812 q 54 949 54 892 q 94 1045 54 1005 q 191 1085 134 1085 q 288 1045 248 1085 q 328 949 328 1005 m 191 1017 q 143 997 163 1017 q 123 949 123 977 q 143 900 123 920 q 191 880 163 880 q 239 900 219 880 q 259 949 259 920 q 239 997 259 977 q 191 1017 219 1017 z "},"˛":{"ha":434,"x_min":54,"x_max":380,"o":"m 170 24 q 217 52 183 52 q 256 37 239 52 q 271 0 271 21 q 270 -16 271 -9 q 186 -118 260 -65 q 163 -163 163 -137 q 179 -201 163 -185 q 217 -217 195 -217 q 246 -208 233 -217 l 293 -174 q 326 -163 307 -163 q 364 -179 348 -163 q 380 -217 380 -195 q 361 -259 380 -244 l 307 -297 q 217 -326 265 -326 q 102 -278 150 -326 q 54 -163 54 -230 q 123 -30 54 -84 q 170 24 159 0 z "},"˜":{"ha":651,"x_min":48,"x_max":597,"o":"m 361 896 q 217 842 300 842 q 63 905 127 842 q 48 943 48 922 q 64 982 48 966 q 102 998 80 998 q 140 983 124 998 q 217 950 172 950 q 285 974 255 950 q 429 1028 345 1028 q 583 964 519 1028 q 597 926 597 948 q 582 888 597 904 q 543 872 566 872 q 505 887 522 872 q 429 920 473 920 q 361 896 390 920 z "},"˝":{"ha":488,"x_min":54,"x_max":438,"o":"m 133 827 q 95 801 121 802 q 58 825 70 801 q 54 842 54 833 q 57 857 54 849 l 119 1051 q 148 1081 127 1072 q 169 1085 159 1085 q 189 1082 179 1085 q 219 1053 210 1074 q 220 1011 228 1032 l 133 827 m 343 827 q 305 801 332 802 q 268 825 280 801 q 264 842 264 833 q 267 857 264 849 l 329 1051 q 358 1081 337 1072 q 379 1085 369 1085 q 399 1082 389 1085 q 429 1053 420 1074 q 430 1011 438 1032 l 343 827 z "},"–":{"ha":543,"x_min":-54,"x_max":597,"o":"m 0 326 q -38 341 -22 326 q -54 380 -54 357 q -38 418 -54 402 q 0 434 -22 434 l 543 434 q 581 418 565 434 q 597 380 597 402 q 581 341 597 357 q 543 326 565 326 l 0 326 z "},"—":{"ha":1302,"x_min":-54,"x_max":1356,"o":"m 0 326 q -38 341 -22 326 q -54 380 -54 357 q -38 418 -54 402 q 0 434 -22 434 l 1302 434 q 1340 418 1324 434 q 1356 380 1356 402 q 1340 341 1356 357 q 1302 326 1324 326 l 0 326 z "},"‘":{"ha":326,"x_min":81,"x_max":253,"o":"m 253 705 q 233 657 253 677 q 185 637 213 637 q 124 677 143 637 q 81 831 81 753 q 184 1074 81 949 q 213 1085 196 1085 q 241 1073 229 1085 q 253 1045 253 1061 q 250 1027 253 1036 q 248 732 183 867 q 253 705 253 720 z "},"’":{"ha":326,"x_min":81,"x_max":253,"o":"m 81 1017 q 101 1065 81 1045 q 149 1085 121 1085 q 210 1046 191 1085 q 253 892 253 970 q 150 649 253 773 q 121 637 138 637 q 93 649 105 637 q 81 677 81 661 q 85 695 81 687 q 87 990 151 856 q 81 1017 81 1002 z "},"‚":{"ha":326,"x_min":81,"x_max":253,"o":"m 81 149 q 101 196 81 176 q 149 216 121 216 q 210 177 191 216 q 253 23 253 101 q 150 -220 253 -96 q 121 -231 138 -231 q 93 -219 105 -231 q 81 -191 81 -208 q 85 -174 81 -182 q 87 121 151 -13 q 81 149 81 134 z "},"“":{"ha":515,"x_min":54,"x_max":461,"o":"m 226 707 q 206 659 226 679 q 158 639 186 639 q 97 678 116 639 q 54 832 54 754 q 157 1075 54 951 q 186 1086 169 1086 q 214 1075 202 1086 q 226 1046 226 1063 q 222 1029 226 1037 q 220 734 156 868 q 226 707 226 722 m 461 707 q 441 659 461 679 q 393 639 421 639 q 332 678 351 639 q 290 832 290 754 q 393 1075 290 951 q 421 1086 404 1086 q 449 1075 437 1086 q 461 1046 461 1063 q 458 1029 461 1037 q 456 734 391 868 q 461 707 461 722 z "},"”":{"ha":515,"x_min":54,"x_max":461,"o":"m 290 1019 q 310 1066 290 1046 q 357 1086 330 1086 q 418 1047 399 1086 q 461 893 461 971 q 358 650 461 774 q 330 639 347 639 q 301 651 313 639 q 290 679 290 663 q 293 696 290 688 q 295 991 359 857 q 290 1019 290 1004 m 54 1019 q 74 1066 54 1046 q 122 1086 94 1086 q 183 1047 164 1086 q 226 893 226 971 q 123 650 226 774 q 94 639 111 639 q 66 651 78 639 q 54 679 54 663 q 58 696 54 688 q 60 991 124 857 q 54 1019 54 1004 z "},"„":{"ha":515,"x_min":54,"x_max":461,"o":"m 290 149 q 310 197 290 177 q 357 217 330 217 q 418 178 399 217 q 461 24 461 102 q 358 -219 461 -95 q 330 -231 347 -231 q 301 -219 313 -231 q 290 -191 290 -207 q 293 -173 290 -181 q 295 122 359 -12 q 290 149 290 134 m 54 149 q 74 197 54 177 q 122 217 94 217 q 183 178 164 217 q 226 24 226 102 q 123 -219 226 -95 q 94 -231 111 -231 q 66 -219 78 -231 q 54 -191 54 -207 q 58 -173 54 -181 q 60 122 124 -12 q 54 149 54 134 z "},"†":{"ha":760,"x_min":54,"x_max":705,"o":"m 109 651 q 70 667 86 651 q 54 705 54 683 q 70 744 54 728 q 109 760 86 760 l 326 760 l 326 1031 q 341 1069 326 1053 q 380 1085 357 1085 q 418 1069 402 1085 q 434 1031 434 1053 l 434 760 l 651 760 q 689 744 673 760 q 705 705 705 728 q 689 667 705 683 q 651 651 673 651 l 434 651 l 434 -271 q 418 -309 434 -293 q 380 -325 402 -325 q 342 -309 357 -325 q 326 -271 326 -293 l 326 651 l 109 651 z "},"‡":{"ha":760,"x_min":54,"x_max":705,"o":"m 326 109 l 326 651 l 109 651 q 70 667 86 651 q 54 705 54 683 q 70 744 54 728 q 109 760 86 760 l 326 760 l 326 1031 q 341 1069 326 1053 q 380 1085 357 1085 q 418 1069 402 1085 q 434 1031 434 1053 l 434 760 l 651 760 q 689 744 673 760 q 705 705 705 728 q 689 667 705 683 q 651 651 673 651 l 434 651 l 434 109 l 651 109 q 689 93 673 109 q 705 54 705 77 q 689 16 705 32 q 651 0 673 0 l 434 0 l 434 -271 q 418 -309 434 -293 q 380 -325 402 -325 q 342 -309 357 -325 q 326 -271 326 -293 l 326 0 l 109 0 q 70 16 86 0 q 54 54 54 32 q 70 93 54 77 q 109 109 86 109 l 326 109 z "},"•":{"ha":543,"x_min":109,"x_max":434,"o":"m 434 543 q 386 428 434 475 q 271 380 338 380 q 156 428 204 380 q 109 543 109 475 q 156 657 109 610 q 271 705 204 705 q 386 657 338 705 q 434 543 434 610 z "},"…":{"ha":977,"x_min":54,"x_max":868,"o":"m 217 81 q 193 24 217 47 q 136 0 170 0 q 78 24 102 0 q 54 81 54 47 q 78 139 54 115 q 136 163 102 163 q 193 139 170 163 q 217 81 217 115 m 868 81 q 844 24 868 47 q 787 0 821 0 q 729 24 753 0 q 705 81 705 47 q 729 139 705 115 q 787 163 753 163 q 844 139 821 163 q 868 81 868 115 m 543 81 q 519 24 543 47 q 461 0 495 0 q 404 24 427 0 q 380 81 380 47 q 404 139 380 115 q 461 163 427 163 q 519 139 495 163 q 543 81 543 115 z "},"‹":{"ha":380,"x_min":54,"x_max":326,"o":"m 61 406 l 221 726 q 233 743 225 735 q 271 759 249 759 q 310 743 294 759 q 326 705 326 727 q 321 682 326 692 l 170 380 l 321 77 q 326 54 326 66 q 310 16 326 32 q 271 0 294 0 q 233 16 249 0 q 221 33 225 24 l 62 350 q 54 379 54 365 q 61 406 54 393 z "},"›":{"ha":380,"x_min":54,"x_max":326,"o":"m 326 379 q 317 350 326 365 l 159 33 q 146 16 155 24 q 109 0 131 0 q 70 16 86 0 q 54 54 54 32 q 59 77 54 66 l 210 380 l 59 682 q 54 705 54 692 q 70 743 54 727 q 109 759 86 759 q 146 743 131 759 q 159 726 155 735 l 319 406 q 326 379 326 393 z "},"⁄":{"ha":434,"x_min":-271,"x_max":705,"o":"m 651 1085 q 689 1069 673 1085 q 705 1031 705 1053 q 694 998 705 1012 l -175 20 q -217 0 -193 0 q -255 16 -239 0 q -271 54 -271 32 q -259 90 -271 74 l 609 1065 q 651 1085 627 1085 z "},"₣":{"ha":1031,"x_min":54,"x_max":977,"o":"m 217 326 l 217 1031 q 233 1069 217 1053 q 271 1085 249 1085 l 922 1085 q 961 1069 945 1085 q 977 1031 977 1053 q 961 992 977 1008 q 922 977 945 977 l 326 977 l 326 597 l 760 597 q 798 581 782 597 q 814 543 814 565 q 798 504 814 520 q 760 488 782 488 l 326 488 l 326 326 l 434 326 q 472 310 456 326 q 488 271 488 294 q 472 233 488 249 q 434 217 456 217 l 326 217 l 326 54 q 310 16 326 32 q 271 0 294 0 q 233 16 249 0 q 217 54 217 32 l 217 217 l 109 217 q 70 233 86 217 q 54 271 54 249 q 70 310 54 294 q 109 326 86 326 l 217 326 z "},"₤":{"ha":705,"x_min":54,"x_max":651,"o":"m 156 631 q 129 712 144 677 l 130 712 q 109 814 109 763 q 188 1006 109 926 q 380 1085 267 1085 q 572 1006 492 1085 q 606 964 591 986 q 617 930 617 949 q 601 892 617 908 q 563 876 585 876 q 525 892 541 876 q 495 929 507 917 q 380 977 447 977 q 265 929 313 977 q 217 814 217 881 q 230 753 217 783 q 268 631 253 700 l 488 631 q 527 615 511 631 q 543 576 543 599 q 527 538 543 554 q 488 522 511 522 l 286 522 q 290 488 288 505 q 292 454 291 471 l 488 454 q 527 438 511 454 q 543 400 543 422 q 527 362 543 378 q 488 346 511 346 l 291 346 q 241 109 283 218 l 509 109 l 549 190 q 597 217 565 217 q 635 201 619 217 q 651 163 651 185 q 645 137 651 149 l 593 33 q 581 16 589 24 q 543 0 565 0 l 163 0 q 124 16 140 0 q 109 54 109 32 q 113 76 109 66 q 181 346 171 201 l 109 346 q 70 362 86 346 q 54 400 54 378 q 70 438 54 422 q 109 454 86 454 l 182 454 q 179 489 181 471 q 176 522 178 506 l 109 522 q 70 538 86 522 q 54 576 54 554 q 70 615 54 599 q 109 631 86 631 l 156 631 z "},"₧":{"ha":1356,"x_min":54,"x_max":1302,"o":"m 152 977 l 152 488 l 298 488 q 454 560 389 488 q 518 732 518 631 q 454 905 518 833 q 298 977 389 977 l 152 977 m 817 581 q 801 534 801 561 q 834 490 803 502 l 1168 380 q 1254 332 1230 357 q 1302 217 1302 284 q 1252 100 1302 150 q 997 0 1154 0 l 814 0 q 543 271 543 0 l 543 507 q 298 380 437 380 l 152 380 l 152 54 q 138 16 152 32 q 103 0 123 0 q 68 16 83 0 q 54 54 54 32 l 54 1031 q 68 1069 54 1053 q 103 1085 83 1085 l 298 1085 q 543 958 437 1085 l 543 1031 q 558 1069 543 1053 q 597 1085 574 1085 q 635 1069 619 1085 q 651 1031 651 1053 l 651 760 l 1004 760 q 1265 648 1157 757 q 1289 623 1278 636 q 1299 591 1299 609 q 1283 553 1299 569 q 1244 537 1267 537 q 1208 551 1222 537 q 1189 572 1195 566 q 997 651 1109 651 q 817 581 884 651 m 814 109 l 997 109 q 1177 179 1109 109 q 1193 226 1193 199 q 1160 269 1191 258 l 826 380 q 740 428 764 403 q 692 543 692 475 q 734 651 692 604 l 651 651 l 651 271 q 814 109 651 109 z "},"€":{"ha":1004,"x_min":54,"x_max":958,"o":"m 814 705 q 852 689 836 705 q 868 651 868 673 q 852 613 868 629 q 814 597 836 597 l 165 597 q 163 543 163 570 q 165 488 163 515 l 814 488 q 852 472 836 488 q 868 434 868 456 q 852 396 868 412 q 814 380 836 380 l 193 380 q 290 236 224 301 q 597 109 417 109 q 868 203 752 109 q 899 213 882 213 q 938 197 922 213 q 954 159 954 181 q 938 121 954 136 q 597 0 787 0 q 213 159 372 0 q 54 543 54 318 q 213 926 54 767 q 597 1085 372 1085 q 942 961 791 1085 q 958 922 958 945 q 942 884 958 900 q 903 868 926 868 q 865 884 881 868 q 597 977 750 977 q 290 850 417 977 q 193 705 224 784 l 814 705 z "},"№":{"ha":1628,"x_min":54,"x_max":1573,"o":"m 163 54 q 147 16 163 32 q 109 0 131 0 q 70 16 86 0 q 54 54 54 32 l 54 1031 q 70 1069 54 1053 q 109 1085 86 1085 q 151 1065 133 1085 l 814 212 l 814 1031 q 830 1069 814 1053 q 868 1085 846 1085 q 906 1069 890 1085 q 922 1031 922 1053 l 922 54 q 906 16 922 32 q 868 0 890 0 q 827 18 844 0 l 163 872 l 163 54 m 1573 814 q 1494 622 1573 701 q 1302 543 1415 543 q 1110 622 1190 543 q 1031 814 1031 701 q 1110 1006 1031 926 q 1302 1085 1190 1085 q 1494 1006 1415 1085 q 1573 814 1573 926 m 1302 977 q 1187 929 1235 977 q 1139 814 1139 881 q 1187 699 1139 747 q 1302 651 1235 651 q 1417 699 1369 651 q 1465 814 1465 747 q 1417 929 1465 881 q 1302 977 1369 977 m 1085 380 q 1047 396 1063 380 q 1031 434 1031 412 q 1047 472 1031 456 q 1085 488 1063 488 l 1519 488 q 1557 472 1541 488 q 1573 434 1573 456 q 1557 396 1573 412 q 1519 380 1541 380 l 1085 380 z "},"™":{"ha":1017,"x_min":54,"x_max":949,"o":"m 79 1042 q 61 1048 69 1042 q 54 1063 54 1054 q 61 1079 54 1072 q 79 1085 69 1085 l 396 1085 q 413 1079 406 1085 q 420 1063 420 1072 q 413 1048 420 1054 q 396 1042 406 1042 l 262 1042 l 262 673 q 255 657 262 664 q 237 651 247 651 q 220 657 227 651 q 213 673 213 664 l 213 1042 l 79 1042 m 683 664 l 510 971 l 510 673 q 503 657 510 664 q 486 651 496 651 q 468 657 475 651 q 461 673 461 664 l 461 1063 q 468 1079 461 1072 q 486 1085 475 1085 q 507 1074 500 1085 l 705 721 l 903 1074 q 925 1085 910 1085 q 942 1079 935 1085 q 949 1063 949 1072 l 949 673 q 942 657 949 664 q 925 651 935 651 q 908 657 915 651 q 901 673 901 664 l 901 971 l 726 662 q 705 651 720 651 q 683 664 690 651 z "},"∂":{"ha":868,"x_min":54,"x_max":814,"o":"m 434 651 q 242 572 321 651 q 163 380 163 492 q 242 188 163 267 q 434 109 321 109 q 626 188 547 109 q 705 380 705 267 q 626 572 705 492 q 434 651 547 651 m 814 380 q 703 111 814 222 q 434 0 591 0 q 165 111 277 0 q 54 380 54 222 q 165 648 54 537 q 434 760 277 760 q 702 649 591 760 q 594 865 686 773 q 326 977 483 977 q 203 958 261 977 q 183 954 194 954 q 145 970 161 954 q 129 1008 129 986 q 145 1047 129 1031 q 173 1063 157 1059 q 326 1085 244 1085 q 671 942 528 1085 q 814 597 814 799 l 814 380 z "},"∆":{"ha":977,"x_min":54,"x_max":922,"o":"m 109 0 q 70 16 86 0 q 54 54 54 32 q 61 85 54 69 l 439 1051 q 450 1069 443 1061 q 488 1085 466 1085 q 527 1069 511 1085 q 538 1051 534 1061 l 916 85 q 922 54 922 69 q 906 16 922 32 q 868 0 890 0 l 109 0 m 789 109 l 488 881 l 188 109 l 789 109 z "},"∏":{"ha":977,"x_min":54,"x_max":922,"o":"m 109 1085 l 868 1085 q 906 1069 890 1085 q 922 1031 922 1053 l 922 -271 q 906 -310 922 -294 q 868 -326 890 -326 q 830 -310 846 -326 q 814 -271 814 -294 l 814 977 l 163 977 l 163 -271 q 147 -310 163 -294 q 109 -326 131 -326 q 70 -310 86 -326 q 54 -271 54 -294 l 54 1031 q 70 1069 54 1053 q 109 1085 86 1085 z "},"∑":{"ha":977,"x_min":54,"x_max":922,"o":"m 868 -217 q 906 -233 890 -217 q 922 -271 922 -249 q 906 -310 922 -294 q 868 -326 890 -326 l 117 -326 q 70 -310 86 -326 q 54 -271 54 -294 q 66 -237 54 -252 l 581 380 l 66 997 q 54 1031 54 1012 q 70 1069 54 1053 q 109 1085 86 1085 l 868 1085 q 906 1069 890 1085 q 922 1031 922 1053 q 906 992 922 1008 q 868 977 890 977 l 224 977 l 693 414 q 705 380 705 399 q 693 345 705 360 l 224 -217 l 868 -217 z "},"−":{"ha":760,"x_min":54,"x_max":705,"o":"m 109 434 q 70 450 86 434 q 54 488 54 466 q 70 527 54 511 q 109 543 86 543 l 651 543 q 689 527 673 543 q 705 488 705 511 q 689 450 705 466 q 651 434 673 434 l 109 434 z "},"√":{"ha":1085,"x_min":54,"x_max":1031,"o":"m 868 1194 l 977 1194 q 1015 1178 999 1194 q 1031 1139 1031 1162 q 1015 1101 1031 1117 q 977 1085 999 1085 l 902 1085 l 374 31 q 364 16 370 22 q 326 0 348 0 q 288 16 303 0 q 278 28 281 22 l 61 462 q 54 488 54 473 q 70 527 54 511 q 109 543 86 543 q 147 527 131 543 q 159 510 155 519 l 326 176 l 818 1160 q 830 1178 823 1170 q 868 1194 846 1194 z "},"∞":{"ha":1085,"x_min":54,"x_max":1031,"o":"m 326 651 q 211 603 258 651 q 163 488 163 555 q 211 373 163 421 q 326 326 258 326 q 440 373 393 326 q 488 488 488 421 q 440 603 488 555 q 326 651 393 651 m 760 651 q 645 603 692 651 q 597 488 597 555 q 645 373 597 421 q 760 326 692 326 q 874 373 827 326 q 922 488 922 421 q 874 603 922 555 q 760 651 827 651 m 543 325 q 517 296 531 310 q 326 217 438 217 q 134 296 213 217 q 54 488 54 376 q 134 680 54 601 q 326 760 213 760 q 517 680 438 760 q 543 652 531 667 q 568 680 554 667 q 760 760 647 760 q 951 680 872 760 q 1031 488 1031 601 q 951 296 1031 376 q 760 217 872 217 q 568 296 647 217 q 543 325 554 310 z "},"∫":{"ha":760,"x_min":56,"x_max":703,"o":"m 648 1038 q 610 1055 626 1038 q 594 1088 599 1065 q 584 1112 592 1101 q 547 1132 570 1129 q 507 1120 525 1135 q 487 1084 490 1106 l 379 -4 q 319 -113 372 -71 q 218 -149 273 -149 q 90 -86 141 -149 q 56 -6 61 -50 q 72 38 56 22 q 110 54 87 54 q 149 39 132 54 q 163 8 161 25 q 175 -19 165 -7 q 212 -39 189 -37 q 251 -28 233 -42 q 271 8 269 -14 l 379 1097 q 441 1206 387 1164 q 541 1241 486 1241 q 669 1179 624 1238 q 703 1099 698 1142 q 687 1054 703 1070 q 648 1038 671 1038 z "},"≈":{"ha":651,"x_min":48,"x_max":597,"o":"m 361 620 q 217 566 300 566 q 63 629 127 566 q 48 667 48 646 q 64 706 48 690 q 102 722 80 722 q 140 707 124 722 q 217 674 172 674 q 285 698 255 674 q 429 752 345 752 q 583 688 519 752 q 597 650 597 672 q 582 612 597 628 q 543 596 566 596 q 505 611 522 596 q 429 644 473 644 q 361 620 390 644 m 361 380 q 217 326 300 326 q 63 389 127 326 q 48 427 48 406 q 64 466 48 450 q 102 481 80 481 q 140 467 124 481 q 217 434 172 434 q 285 458 255 434 q 429 512 345 512 q 583 448 519 512 q 597 410 597 432 q 582 372 597 388 q 543 356 566 356 q 505 371 522 356 q 429 404 473 404 q 361 380 390 404 z "},"≤":{"ha":760,"x_min":54,"x_max":705,"o":"m 84 646 l 624 970 q 651 977 636 977 q 689 961 673 977 q 705 922 705 945 q 677 875 705 893 l 214 597 l 677 319 q 705 271 705 300 q 689 233 705 249 q 651 217 673 217 q 624 224 636 217 l 84 548 q 54 597 54 567 q 84 646 54 627 m 109 55 q 70 71 86 55 q 54 109 54 87 q 70 148 54 132 q 109 163 86 163 l 651 163 q 689 148 673 163 q 705 109 705 132 q 689 71 705 87 q 651 55 673 55 l 109 55 z "},"≥":{"ha":760,"x_min":54,"x_max":705,"o":"m 705 596 q 675 547 705 566 l 136 223 q 109 216 123 216 q 70 232 86 216 q 54 271 54 248 q 82 318 54 300 l 546 596 l 82 874 q 54 922 54 892 q 70 960 54 944 q 109 976 86 976 q 136 969 123 976 l 675 645 q 705 596 705 626 m 109 54 q 70 70 86 54 q 54 109 54 86 q 70 147 54 131 q 109 163 86 163 l 651 163 q 689 147 673 163 q 705 109 705 131 q 689 70 705 86 q 651 54 673 54 l 109 54 z "},"":{"ha":760,"x_min":54,"x_max":719,"o":"m 597 705 q 613 744 597 728 q 651 760 629 760 q 689 744 673 760 q 705 705 705 728 l 705 54 q 689 16 705 32 q 651 0 673 0 q 613 16 629 0 q 597 54 597 32 l 597 705 m 461 977 q 271 760 271 977 l 271 719 l 435 719 q 473 703 457 719 q 489 665 489 687 q 473 626 489 642 q 435 610 457 610 l 271 610 l 271 54 q 255 16 271 32 q 217 0 239 0 q 179 16 195 0 q 163 54 163 32 l 163 610 l 109 610 q 70 626 86 610 q 54 665 54 642 q 70 703 54 687 q 109 719 86 719 l 163 719 l 163 760 q 461 1085 163 1085 q 719 922 719 1085 q 699 874 719 895 q 651 854 679 854 q 603 874 623 854 q 583 922 583 895 q 461 977 583 977 z "},"":{"ha":814,"x_min":54,"x_max":760,"o":"m 543 922 q 488 977 543 977 q 271 760 271 977 l 271 719 l 435 719 q 473 703 457 719 q 489 665 489 687 q 473 626 489 642 q 435 610 457 610 l 271 610 l 271 54 q 255 16 271 32 q 217 0 239 0 q 179 16 195 0 q 163 54 163 32 l 163 610 l 109 610 q 70 626 86 610 q 54 665 54 642 q 70 703 54 687 q 109 719 86 719 l 163 719 l 163 760 q 488 1085 163 1085 q 651 922 651 1085 l 651 109 l 705 109 q 744 93 728 109 q 760 54 760 77 q 744 16 760 32 q 705 0 728 0 l 597 0 q 558 16 574 0 q 543 54 543 32 l 543 922 z "},"Ā":{"ha":977,"x_min":54,"x_max":922,"o":"m 294 380 l 159 33 q 147 16 155 24 q 109 0 131 0 q 70 16 86 0 q 54 54 54 32 q 59 77 54 67 l 436 1047 q 450 1069 440 1059 q 488 1085 466 1085 q 527 1069 511 1085 q 541 1047 536 1059 l 918 77 q 922 54 922 67 q 906 16 922 32 q 868 0 890 0 q 830 16 846 0 q 818 33 822 24 l 683 380 l 294 380 m 641 488 l 488 881 l 336 488 l 641 488 m 326 1194 q 287 1210 303 1194 q 271 1248 271 1225 q 287 1286 271 1270 q 326 1302 303 1302 l 651 1302 q 689 1286 673 1302 q 705 1248 705 1270 q 689 1210 705 1225 q 651 1194 673 1194 l 326 1194 z "},"ā":{"ha":868,"x_min":54,"x_max":814,"o":"m 434 651 q 242 572 321 651 q 163 380 163 492 q 242 188 163 267 q 434 109 321 109 q 626 188 547 109 q 705 380 705 267 q 626 572 705 492 q 434 651 547 651 m 705 114 q 434 0 591 0 q 165 111 277 0 q 54 380 54 222 q 165 648 54 537 q 434 760 277 760 q 703 648 591 760 q 814 380 814 537 l 814 54 q 798 16 814 32 q 760 0 782 0 q 721 16 737 0 q 705 54 705 32 l 705 114 m 271 868 q 233 884 249 868 q 217 922 217 900 q 233 961 217 945 q 271 977 249 977 l 597 977 q 635 961 619 977 q 651 922 651 945 q 635 884 651 900 q 597 868 619 868 l 271 868 z "},"Ă":{"ha":977,"x_min":54,"x_max":922,"o":"m 294 380 l 159 33 q 147 16 155 24 q 109 0 131 0 q 70 16 86 0 q 54 54 54 32 q 59 77 54 67 l 436 1047 q 450 1069 440 1059 q 488 1085 466 1085 q 527 1069 511 1085 q 541 1047 536 1059 l 918 77 q 922 54 922 67 q 906 16 922 32 q 868 0 890 0 q 830 16 846 0 q 818 33 822 24 l 683 380 l 294 380 m 641 488 l 488 881 l 336 488 l 641 488 m 275 1329 q 291 1368 275 1352 q 330 1383 307 1383 q 368 1368 352 1383 q 384 1329 384 1352 q 416 1291 384 1307 q 492 1275 448 1275 q 569 1291 537 1275 q 602 1329 602 1307 q 617 1368 602 1352 q 656 1383 633 1383 q 694 1368 678 1383 q 710 1329 710 1352 q 646 1215 707 1258 q 492 1166 583 1166 q 339 1214 402 1166 q 275 1329 275 1262 z "},"ă":{"ha":868,"x_min":54,"x_max":814,"o":"m 434 651 q 242 572 321 651 q 163 380 163 492 q 242 188 163 267 q 434 109 321 109 q 626 188 547 109 q 705 380 705 267 q 626 572 705 492 q 434 651 547 651 m 705 114 q 434 0 591 0 q 165 111 277 0 q 54 380 54 222 q 165 648 54 537 q 434 760 277 760 q 703 648 591 760 q 814 380 814 537 l 814 54 q 798 16 814 32 q 760 0 782 0 q 721 16 737 0 q 705 54 705 32 l 705 114 m 221 1004 q 237 1042 221 1026 q 275 1058 253 1058 q 314 1042 298 1058 q 330 1004 330 1026 q 361 965 330 981 q 438 949 393 949 q 515 965 483 949 q 547 1004 547 981 q 563 1042 547 1026 q 602 1058 579 1058 q 640 1042 624 1058 q 656 1004 656 1026 q 592 889 652 932 q 438 841 528 841 q 284 889 348 841 q 221 1004 221 937 z "},"Ą":{"ha":1031,"x_min":54,"x_max":1031,"o":"m 294 380 l 159 33 q 147 16 155 24 q 109 0 131 0 q 70 16 86 0 q 54 54 54 32 q 59 77 54 67 l 436 1047 q 450 1069 440 1059 q 488 1085 466 1085 q 527 1069 511 1085 q 541 1047 536 1059 l 918 77 q 922 54 922 67 q 906 16 922 32 q 868 0 890 0 q 830 16 846 0 q 818 33 822 24 l 683 380 l 294 380 m 641 488 l 488 881 l 336 488 l 641 488 m 821 79 q 869 106 835 106 q 907 91 891 106 q 923 54 922 75 q 922 39 923 45 q 838 -64 911 -11 q 814 -109 814 -83 q 830 -147 814 -131 q 869 -163 846 -163 q 898 -154 885 -163 l 945 -119 q 977 -109 959 -109 q 1016 -124 1000 -109 q 1031 -163 1031 -140 q 1013 -205 1031 -190 l 958 -243 q 869 -271 917 -271 q 754 -223 802 -271 q 706 -109 706 -176 q 775 24 706 -30 q 821 79 811 54 z "},"ą":{"ha":922,"x_min":54,"x_max":922,"o":"m 434 651 q 242 572 321 651 q 163 380 163 492 q 242 188 163 267 q 434 109 321 109 q 626 188 547 109 q 705 380 705 267 q 626 572 705 492 q 434 651 547 651 m 705 114 q 434 0 591 0 q 165 111 277 0 q 54 380 54 222 q 165 648 54 537 q 434 760 277 760 q 703 648 591 760 q 814 380 814 537 l 814 54 q 798 16 814 32 q 760 0 782 0 q 721 16 737 0 q 705 54 705 32 l 705 114 m 712 79 q 760 106 726 106 q 798 91 782 106 q 814 54 813 75 q 812 39 814 45 q 729 -64 802 -11 q 705 -109 705 -83 q 721 -147 705 -131 q 760 -163 737 -163 q 789 -154 776 -163 l 836 -119 q 868 -109 850 -109 q 906 -124 890 -109 q 922 -163 922 -140 q 903 -205 922 -190 l 849 -243 q 760 -271 808 -271 q 645 -223 692 -271 q 597 -109 597 -176 q 666 24 597 -30 q 712 79 702 54 z "},"Ć":{"ha":1004,"x_min":54,"x_max":958,"o":"m 899 213 q 938 197 922 213 q 954 159 954 181 q 938 121 954 136 q 597 0 787 0 q 213 159 372 0 q 54 543 54 318 q 213 926 54 767 q 597 1085 372 1085 q 942 961 791 1085 q 958 922 958 945 q 942 884 958 900 q 903 868 926 868 q 865 884 881 868 q 597 977 750 977 q 290 849 417 977 q 163 543 163 722 q 290 236 163 363 q 597 109 417 109 q 868 203 752 109 q 899 213 882 213 m 745 1318 l 581 1154 q 543 1139 565 1139 q 505 1155 521 1139 q 489 1194 489 1171 q 503 1230 489 1215 l 667 1395 q 706 1411 684 1411 q 744 1395 728 1411 q 760 1356 760 1379 q 745 1318 760 1335 z "},"ć":{"ha":760,"x_min":54,"x_max":701,"o":"m 644 186 q 683 170 667 186 q 699 132 699 154 q 682 92 699 109 q 434 0 576 0 q 165 111 277 0 q 54 380 54 222 q 165 648 54 537 q 434 760 277 760 q 682 668 576 760 q 701 626 701 651 q 685 588 701 604 q 646 572 669 572 q 612 584 627 572 q 434 651 536 651 q 242 572 321 651 q 163 380 163 492 q 242 188 163 267 q 434 109 321 109 q 611 175 536 109 q 644 186 625 186 m 581 993 l 416 828 q 379 814 401 814 q 341 830 357 814 q 325 868 325 846 q 338 905 325 889 l 503 1069 q 542 1085 519 1085 q 580 1069 564 1085 q 596 1031 596 1053 q 581 993 596 1009 z "},"Ĉ":{"ha":1004,"x_min":54,"x_max":958,"o":"m 899 213 q 938 197 922 213 q 954 159 954 181 q 938 121 954 136 q 597 0 787 0 q 213 159 372 0 q 54 543 54 318 q 213 926 54 767 q 597 1085 372 1085 q 942 961 791 1085 q 958 922 958 945 q 942 884 958 900 q 903 868 926 868 q 865 884 881 868 q 597 977 750 977 q 290 849 417 977 q 163 543 163 722 q 290 236 163 363 q 597 109 417 109 q 868 203 752 109 q 899 213 882 213 m 625 1376 l 787 1268 q 814 1221 814 1248 q 799 1182 814 1198 q 760 1166 783 1166 q 726 1178 741 1166 l 597 1263 l 469 1178 q 435 1166 454 1166 q 396 1182 412 1166 q 380 1221 380 1198 q 408 1268 380 1248 l 570 1376 q 597 1383 582 1383 q 625 1376 613 1383 z "},"ĉ":{"ha":760,"x_min":54,"x_max":701,"o":"m 644 186 q 683 170 667 186 q 699 132 699 154 q 682 92 699 109 q 434 0 576 0 q 165 111 277 0 q 54 380 54 222 q 165 648 54 537 q 434 760 277 760 q 682 668 576 760 q 701 626 701 651 q 685 588 701 604 q 646 572 669 572 q 612 584 627 572 q 434 651 536 651 q 242 572 321 651 q 163 380 163 492 q 242 188 163 267 q 434 109 321 109 q 611 175 536 109 q 644 186 625 186 m 463 1050 l 625 943 q 652 895 652 922 q 636 857 652 873 q 597 841 620 841 q 564 852 578 841 l 435 938 l 306 852 q 272 841 292 841 q 234 857 250 841 q 218 895 218 873 q 245 943 218 922 l 407 1050 q 435 1058 419 1058 q 463 1050 450 1058 z "},"Ċ":{"ha":1004,"x_min":54,"x_max":958,"o":"m 899 213 q 938 197 922 213 q 954 159 954 181 q 938 121 954 136 q 597 0 787 0 q 213 159 372 0 q 54 543 54 318 q 213 926 54 767 q 597 1085 372 1085 q 942 961 791 1085 q 958 922 958 945 q 942 884 958 900 q 903 868 926 868 q 865 884 881 868 q 597 977 750 977 q 290 849 417 977 q 163 543 163 722 q 290 236 163 363 q 597 109 417 109 q 868 203 752 109 q 899 213 882 213 m 677 1249 q 654 1191 677 1215 q 596 1167 630 1167 q 538 1191 562 1167 q 515 1249 515 1215 q 538 1306 515 1282 q 596 1330 562 1330 q 654 1306 630 1330 q 677 1249 677 1282 z "},"ċ":{"ha":760,"x_min":54,"x_max":701,"o":"m 644 186 q 683 170 667 186 q 699 132 699 154 q 682 92 699 109 q 434 0 576 0 q 165 111 277 0 q 54 380 54 222 q 165 648 54 537 q 434 760 277 760 q 682 668 576 760 q 701 626 701 651 q 685 588 701 604 q 646 572 669 572 q 612 584 627 572 q 434 651 536 651 q 242 572 321 651 q 163 380 163 492 q 242 188 163 267 q 434 109 321 109 q 611 175 536 109 q 644 186 625 186 m 515 923 q 492 865 515 889 q 434 842 468 842 q 376 865 400 842 q 353 923 353 889 q 376 981 353 957 q 434 1004 400 1004 q 492 981 468 1004 q 515 923 515 957 z "},"Č":{"ha":1004,"x_min":54,"x_max":958,"o":"m 899 213 q 938 197 922 213 q 954 159 954 181 q 938 121 954 136 q 597 0 787 0 q 213 159 372 0 q 54 543 54 318 q 213 926 54 767 q 597 1085 372 1085 q 942 961 791 1085 q 958 922 958 945 q 942 884 958 900 q 903 868 926 868 q 865 884 881 868 q 597 977 750 977 q 290 849 417 977 q 163 543 163 722 q 290 236 163 363 q 597 109 417 109 q 868 203 752 109 q 899 213 882 213 m 596 1166 q 568 1174 581 1166 l 406 1282 q 379 1329 379 1302 q 395 1368 379 1352 q 433 1383 411 1383 q 467 1372 453 1383 l 596 1286 l 725 1372 q 759 1383 739 1383 q 797 1368 781 1383 q 813 1329 813 1352 q 786 1282 813 1302 l 624 1174 q 596 1166 612 1166 z "},"č":{"ha":760,"x_min":54,"x_max":701,"o":"m 644 186 q 683 170 667 186 q 699 132 699 154 q 682 92 699 109 q 434 0 576 0 q 165 111 277 0 q 54 380 54 222 q 165 648 54 537 q 434 760 277 760 q 682 668 576 760 q 701 626 701 651 q 685 588 701 604 q 646 572 669 572 q 612 584 627 572 q 434 651 536 651 q 242 572 321 651 q 163 380 163 492 q 242 188 163 267 q 434 109 321 109 q 611 175 536 109 q 644 186 625 186 m 432 841 q 404 848 416 841 l 242 956 q 215 1004 215 977 q 231 1042 215 1026 q 269 1058 247 1058 q 303 1046 289 1058 l 432 961 l 561 1046 q 595 1058 575 1058 q 633 1042 617 1058 q 649 1004 649 1026 q 622 956 649 977 l 460 848 q 432 841 448 841 z "},"Ď":{"ha":922,"x_min":54,"x_max":868,"o":"m 326 109 q 632 236 505 109 q 760 543 760 363 q 632 849 760 722 q 326 977 505 977 l 163 977 l 163 109 l 326 109 m 326 1085 q 709 926 550 1085 q 868 543 868 767 q 709 159 868 318 q 326 0 550 0 l 109 0 q 70 16 86 0 q 54 54 54 32 l 54 1031 q 70 1069 54 1053 q 109 1085 86 1085 l 326 1085 m 380 1166 q 352 1174 364 1166 l 190 1282 q 163 1329 163 1302 q 179 1368 163 1352 q 217 1383 195 1383 q 251 1372 237 1383 l 380 1286 l 509 1372 q 543 1383 523 1383 q 581 1368 565 1383 q 597 1329 597 1352 q 570 1282 597 1302 l 408 1174 q 380 1166 395 1166 z "},"ď":{"ha":1085,"x_min":54,"x_max":1040,"o":"m 705 380 q 626 572 705 492 q 434 651 547 651 q 242 572 321 651 q 163 380 163 492 q 242 188 163 267 q 434 109 321 109 q 626 188 547 109 q 705 380 705 267 m 705 1032 q 721 1070 705 1055 q 760 1086 737 1086 q 798 1070 782 1086 q 814 1032 814 1055 l 814 380 q 703 111 814 222 q 434 0 591 0 q 165 111 277 0 q 54 380 54 222 q 165 648 54 537 q 434 760 277 760 q 703 648 591 760 q 705 646 704 647 l 705 1032 m 868 1017 q 888 1065 868 1045 q 936 1085 908 1085 q 997 1046 978 1085 q 1040 892 1040 970 q 937 649 1040 773 q 908 637 925 637 q 880 649 892 637 q 868 677 868 661 q 871 695 868 687 q 873 990 938 856 q 868 1017 868 1002 z "},"Đ":{"ha":1031,"x_min":0,"x_max":976,"o":"m 162 597 l 162 1031 q 178 1069 162 1053 q 216 1085 194 1085 l 433 1085 q 817 926 658 1085 q 976 543 976 767 q 817 159 976 318 q 433 0 658 0 l 216 0 q 178 16 194 0 q 162 54 162 32 l 162 488 l 54 488 q 16 504 32 488 q 0 543 0 520 q 16 581 0 565 q 54 597 32 597 l 162 597 m 271 597 l 488 597 q 526 581 510 597 q 542 543 542 565 q 526 504 542 520 q 488 488 510 488 l 271 488 l 271 109 l 433 109 q 740 236 613 109 q 867 543 867 363 q 740 849 867 722 q 433 977 613 977 l 271 977 l 271 597 z "},"đ":{"ha":977,"x_min":54,"x_max":922,"o":"m 705 380 q 626 572 705 492 q 434 651 547 651 q 242 572 321 651 q 163 380 163 492 q 242 188 163 267 q 434 109 321 109 q 626 188 547 109 q 705 380 705 267 m 705 977 l 705 1032 q 721 1070 705 1055 q 760 1086 737 1086 q 798 1070 782 1086 q 814 1032 814 1055 l 814 977 l 868 977 q 906 961 890 977 q 922 922 922 945 q 906 884 922 900 q 868 868 890 868 l 814 868 l 814 380 q 703 111 814 222 q 434 0 591 0 q 165 111 277 0 q 54 380 54 222 q 165 648 54 537 q 434 760 277 760 q 703 648 591 760 q 705 646 704 647 l 705 868 l 488 868 q 450 884 466 868 q 434 922 434 900 q 450 961 434 945 q 488 977 466 977 l 705 977 z "},"Ē":{"ha":868,"x_min":54,"x_max":814,"o":"m 109 1085 l 760 1085 q 798 1069 782 1085 q 814 1031 814 1053 q 798 992 814 1008 q 760 977 782 977 l 163 977 l 163 597 l 597 597 q 635 581 619 597 q 651 543 651 565 q 635 504 651 520 q 597 488 619 488 l 163 488 l 163 109 l 760 109 q 798 93 782 109 q 814 54 814 77 q 798 16 814 32 q 760 0 782 0 l 109 0 q 70 16 86 0 q 54 54 54 32 l 54 1031 q 70 1069 54 1053 q 109 1085 86 1085 m 272 1194 q 234 1210 250 1194 q 218 1248 218 1225 q 234 1286 218 1270 q 272 1302 250 1302 l 597 1302 q 636 1286 620 1302 q 652 1248 652 1270 q 636 1210 652 1225 q 597 1194 620 1194 l 272 1194 z "},"ē":{"ha":868,"x_min":54,"x_max":814,"o":"m 701 434 q 626 572 686 512 q 434 651 547 651 q 242 572 321 651 q 168 434 182 512 l 701 434 m 643 184 q 681 169 665 184 q 697 130 697 153 q 682 92 697 108 q 434 0 576 0 q 165 111 277 0 q 54 380 54 222 q 165 648 54 537 q 434 760 277 760 q 703 648 591 760 q 814 380 814 537 q 798 341 814 357 q 760 326 782 326 l 168 326 q 242 188 182 248 q 434 109 321 109 q 609 173 536 109 q 643 184 624 184 m 271 868 q 233 884 249 868 q 217 922 217 900 q 233 961 217 945 q 271 977 249 977 l 597 977 q 635 961 619 977 q 651 922 651 945 q 635 884 651 900 q 597 868 619 868 l 271 868 z "},"Ĕ":{"ha":868,"x_min":54,"x_max":814,"o":"m 109 1085 l 760 1085 q 798 1069 782 1085 q 814 1031 814 1053 q 798 992 814 1008 q 760 977 782 977 l 163 977 l 163 597 l 597 597 q 635 581 619 597 q 651 543 651 565 q 635 504 651 520 q 597 488 619 488 l 163 488 l 163 109 l 760 109 q 798 93 782 109 q 814 54 814 77 q 798 16 814 32 q 760 0 782 0 l 109 0 q 70 16 86 0 q 54 54 54 32 l 54 1031 q 70 1069 54 1053 q 109 1085 86 1085 m 221 1329 q 237 1368 221 1352 q 275 1383 253 1383 q 314 1368 298 1383 q 330 1329 330 1352 q 361 1291 330 1307 q 438 1275 393 1275 q 515 1291 483 1275 q 547 1329 547 1307 q 563 1368 547 1352 q 602 1383 579 1383 q 640 1368 624 1383 q 656 1329 656 1352 q 592 1215 652 1258 q 438 1166 528 1166 q 284 1214 348 1166 q 221 1329 221 1262 z "},"ĕ":{"ha":868,"x_min":54,"x_max":814,"o":"m 701 434 q 626 572 686 512 q 434 651 547 651 q 242 572 321 651 q 168 434 182 512 l 701 434 m 643 184 q 681 169 665 184 q 697 130 697 153 q 682 92 697 108 q 434 0 576 0 q 165 111 277 0 q 54 380 54 222 q 165 648 54 537 q 434 760 277 760 q 703 648 591 760 q 814 380 814 537 q 798 341 814 357 q 760 326 782 326 l 168 326 q 242 188 182 248 q 434 109 321 109 q 609 173 536 109 q 643 184 624 184 m 221 1004 q 237 1042 221 1026 q 275 1058 253 1058 q 314 1042 298 1058 q 330 1004 330 1026 q 361 965 330 981 q 438 949 393 949 q 515 965 483 949 q 547 1004 547 981 q 563 1042 547 1026 q 602 1058 579 1058 q 640 1042 624 1058 q 656 1004 656 1026 q 592 889 652 932 q 438 841 528 841 q 284 889 348 841 q 221 1004 221 937 z "},"Ė":{"ha":868,"x_min":54,"x_max":814,"o":"m 109 1085 l 760 1085 q 798 1069 782 1085 q 814 1031 814 1053 q 798 992 814 1008 q 760 977 782 977 l 163 977 l 163 597 l 597 597 q 635 581 619 597 q 651 543 651 565 q 635 504 651 520 q 597 488 619 488 l 163 488 l 163 109 l 760 109 q 798 93 782 109 q 814 54 814 77 q 798 16 814 32 q 760 0 782 0 l 109 0 q 70 16 86 0 q 54 54 54 32 l 54 1031 q 70 1069 54 1053 q 109 1085 86 1085 m 516 1249 q 492 1191 516 1215 q 435 1167 469 1167 q 377 1191 401 1167 q 353 1249 353 1215 q 377 1306 353 1282 q 435 1330 401 1330 q 492 1306 469 1330 q 516 1249 516 1282 z "},"ė":{"ha":868,"x_min":54,"x_max":814,"o":"m 701 434 q 626 572 686 512 q 434 651 547 651 q 242 572 321 651 q 168 434 182 512 l 701 434 m 643 184 q 681 169 665 184 q 697 130 697 153 q 682 92 697 108 q 434 0 576 0 q 165 111 277 0 q 54 380 54 222 q 165 648 54 537 q 434 760 277 760 q 703 648 591 760 q 814 380 814 537 q 798 341 814 357 q 760 326 782 326 l 168 326 q 242 188 182 248 q 434 109 321 109 q 609 173 536 109 q 643 184 624 184 m 515 923 q 492 865 515 889 q 434 842 468 842 q 376 865 400 842 q 353 923 353 889 q 376 981 353 957 q 434 1004 400 1004 q 492 981 468 1004 q 515 923 515 957 z "},"Ę":{"ha":868,"x_min":54,"x_max":814,"o":"m 109 1085 l 760 1085 q 798 1069 782 1085 q 814 1031 814 1053 q 798 992 814 1008 q 760 977 782 977 l 163 977 l 163 597 l 597 597 q 635 581 619 597 q 651 543 651 565 q 635 504 651 520 q 597 488 619 488 l 163 488 l 163 109 l 760 109 q 798 93 782 109 q 814 54 814 77 q 798 16 814 32 q 760 0 782 0 l 109 0 q 70 16 86 0 q 54 54 54 32 l 54 1031 q 70 1069 54 1053 q 109 1085 86 1085 m 604 24 q 652 52 618 52 q 690 37 674 52 q 706 0 705 21 q 705 -16 706 -9 q 621 -118 694 -65 q 597 -163 597 -137 q 613 -201 597 -185 q 652 -217 629 -217 q 681 -208 668 -217 l 728 -174 q 760 -163 742 -163 q 799 -179 783 -163 q 814 -217 814 -195 q 795 -259 814 -244 l 741 -297 q 652 -326 700 -326 q 537 -278 585 -326 q 489 -163 489 -230 q 558 -30 489 -84 q 604 24 594 0 z "},"ę":{"ha":868,"x_min":54,"x_max":814,"o":"m 701 434 q 626 572 686 512 q 434 651 547 651 q 242 572 321 651 q 168 434 182 512 l 701 434 m 643 184 q 681 169 665 184 q 697 130 697 153 q 682 92 697 108 q 434 0 576 0 q 165 111 277 0 q 54 380 54 222 q 165 648 54 537 q 434 760 277 760 q 703 648 591 760 q 814 380 814 537 q 798 341 814 357 q 760 326 782 326 l 168 326 q 242 188 182 248 q 434 109 321 109 q 609 173 536 109 q 643 184 624 184 m 387 24 q 434 52 400 52 q 473 37 456 52 q 488 0 488 21 q 487 -16 488 -9 q 404 -118 477 -65 q 380 -163 380 -137 q 396 -201 380 -185 q 434 -217 412 -217 q 463 -208 450 -217 l 510 -174 q 543 -163 524 -163 q 581 -179 565 -163 q 597 -217 597 -195 q 578 -259 597 -244 l 524 -297 q 434 -326 482 -326 q 319 -278 367 -326 q 271 -163 271 -230 q 340 -30 271 -84 q 387 24 376 0 z "},"Ě":{"ha":868,"x_min":54,"x_max":814,"o":"m 109 1085 l 760 1085 q 798 1069 782 1085 q 814 1031 814 1053 q 798 992 814 1008 q 760 977 782 977 l 163 977 l 163 597 l 597 597 q 635 581 619 597 q 651 543 651 565 q 635 504 651 520 q 597 488 619 488 l 163 488 l 163 109 l 760 109 q 798 93 782 109 q 814 54 814 77 q 798 16 814 32 q 760 0 782 0 l 109 0 q 70 16 86 0 q 54 54 54 32 l 54 1031 q 70 1069 54 1053 q 109 1085 86 1085 m 435 1166 q 407 1174 419 1166 l 245 1282 q 218 1329 218 1302 q 234 1368 218 1352 q 272 1383 250 1383 q 306 1372 292 1383 l 435 1286 l 564 1372 q 597 1383 578 1383 q 636 1368 620 1383 q 652 1329 652 1352 q 625 1282 652 1302 l 463 1174 q 435 1166 450 1166 z "},"ě":{"ha":868,"x_min":54,"x_max":814,"o":"m 701 434 q 626 572 686 512 q 434 651 547 651 q 242 572 321 651 q 168 434 182 512 l 701 434 m 643 184 q 681 169 665 184 q 697 130 697 153 q 682 92 697 108 q 434 0 576 0 q 165 111 277 0 q 54 380 54 222 q 165 648 54 537 q 434 760 277 760 q 703 648 591 760 q 814 380 814 537 q 798 341 814 357 q 760 326 782 326 l 168 326 q 242 188 182 248 q 434 109 321 109 q 609 173 536 109 q 643 184 624 184 m 434 841 q 406 848 418 841 l 244 956 q 217 1004 217 977 q 233 1042 217 1026 q 271 1058 249 1058 q 305 1046 291 1058 l 434 961 l 563 1046 q 597 1058 577 1058 q 635 1042 619 1058 q 651 1004 651 1026 q 624 956 651 977 l 462 848 q 434 841 450 841 z "},"Ĝ":{"ha":1017,"x_min":54,"x_max":958,"o":"m 954 159 q 938 121 954 136 q 597 0 787 0 q 213 159 372 0 q 54 543 54 318 q 213 926 54 767 q 597 1085 372 1085 q 942 961 791 1085 q 958 922 958 945 q 942 884 958 900 q 903 868 926 868 q 865 884 881 868 q 597 977 750 977 q 290 849 417 977 q 163 543 163 722 q 290 236 163 363 q 597 109 417 109 q 845 186 737 109 l 845 434 l 631 434 q 592 450 608 434 q 576 488 576 466 q 592 527 576 511 q 631 543 608 543 l 900 543 q 938 527 922 543 q 954 488 954 511 l 954 159 m 625 1376 l 787 1268 q 814 1221 814 1248 q 798 1182 814 1198 q 760 1166 782 1166 q 726 1178 740 1166 l 597 1263 l 468 1178 q 434 1166 454 1166 q 396 1182 412 1166 q 380 1221 380 1198 q 407 1268 380 1248 l 569 1376 q 597 1383 581 1383 q 625 1376 612 1383 z "},"ĝ":{"ha":868,"x_min":54,"x_max":814,"o":"m 434 651 q 242 572 321 651 q 163 380 163 492 q 242 188 163 267 q 434 109 321 109 q 626 188 547 109 q 705 380 705 267 q 626 572 705 492 q 434 651 547 651 m 705 114 q 703 111 704 113 q 434 0 591 0 q 165 111 277 0 q 54 380 54 222 q 165 648 54 537 q 434 760 277 760 q 703 648 591 760 q 814 380 814 537 l 814 0 q 728 -206 814 -119 q 440 -326 609 -326 q 153 -206 271 -326 q 81 -112 109 -163 q 73 -83 73 -100 q 89 -45 73 -61 q 127 -29 104 -29 q 165 -45 149 -29 q 177 -61 172 -52 q 229 -130 197 -98 q 440 -217 317 -217 q 651 -130 564 -217 q 705 0 705 -64 l 705 114 m 462 1050 l 624 943 q 651 895 651 922 q 635 857 651 873 q 597 841 619 841 q 563 852 577 841 l 434 938 l 305 852 q 271 841 291 841 q 233 857 249 841 q 217 895 217 873 q 244 943 217 922 l 406 1050 q 434 1058 418 1058 q 462 1050 450 1058 z "},"Ğ":{"ha":1017,"x_min":54,"x_max":958,"o":"m 954 159 q 938 121 954 136 q 597 0 787 0 q 213 159 372 0 q 54 543 54 318 q 213 926 54 767 q 597 1085 372 1085 q 942 961 791 1085 q 958 922 958 945 q 942 884 958 900 q 903 868 926 868 q 865 884 881 868 q 597 977 750 977 q 290 849 417 977 q 163 543 163 722 q 290 236 163 363 q 597 109 417 109 q 845 186 737 109 l 845 434 l 631 434 q 592 450 608 434 q 576 488 576 466 q 592 527 576 511 q 631 543 608 543 l 900 543 q 938 527 922 543 q 954 488 954 511 l 954 159 m 383 1329 q 399 1368 383 1352 q 437 1383 415 1383 q 476 1368 460 1383 q 492 1329 492 1352 q 524 1291 492 1307 q 600 1275 555 1275 q 677 1291 645 1275 q 709 1329 709 1307 q 725 1368 709 1352 q 764 1383 741 1383 q 802 1368 786 1383 q 818 1329 818 1352 q 754 1215 814 1258 q 600 1166 690 1166 q 447 1214 510 1166 q 383 1329 383 1262 z "},"ğ":{"ha":868,"x_min":54,"x_max":814,"o":"m 434 651 q 242 572 321 651 q 163 380 163 492 q 242 188 163 267 q 434 109 321 109 q 626 188 547 109 q 705 380 705 267 q 626 572 705 492 q 434 651 547 651 m 705 114 q 703 111 704 113 q 434 0 591 0 q 165 111 277 0 q 54 380 54 222 q 165 648 54 537 q 434 760 277 760 q 703 648 591 760 q 814 380 814 537 l 814 0 q 728 -206 814 -119 q 440 -326 609 -326 q 153 -206 271 -326 q 81 -112 109 -163 q 73 -83 73 -100 q 89 -45 73 -61 q 127 -29 104 -29 q 165 -45 149 -29 q 177 -61 172 -52 q 229 -130 197 -98 q 440 -217 317 -217 q 651 -130 564 -217 q 705 0 705 -64 l 705 114 m 221 1004 q 237 1042 221 1026 q 275 1058 253 1058 q 314 1042 298 1058 q 330 1004 330 1026 q 361 965 330 981 q 438 949 393 949 q 515 965 483 949 q 547 1004 547 981 q 563 1042 547 1026 q 602 1058 579 1058 q 640 1042 624 1058 q 656 1004 656 1026 q 592 889 652 932 q 438 841 528 841 q 284 889 348 841 q 221 1004 221 937 z "},"Ġ":{"ha":1017,"x_min":54,"x_max":958,"o":"m 954 159 q 938 121 954 136 q 597 0 787 0 q 213 159 372 0 q 54 543 54 318 q 213 926 54 767 q 597 1085 372 1085 q 942 961 791 1085 q 958 922 958 945 q 942 884 958 900 q 903 868 926 868 q 865 884 881 868 q 597 977 750 977 q 290 849 417 977 q 163 543 163 722 q 290 236 163 363 q 597 109 417 109 q 845 186 737 109 l 845 434 l 631 434 q 592 450 608 434 q 576 488 576 466 q 592 527 576 511 q 631 543 608 543 l 900 543 q 938 527 922 543 q 954 488 954 511 l 954 159 m 678 1249 q 654 1191 678 1215 q 597 1167 631 1167 q 539 1191 563 1167 q 515 1249 515 1215 q 539 1306 515 1282 q 597 1330 563 1330 q 654 1306 631 1330 q 678 1249 678 1282 z "},"ġ":{"ha":868,"x_min":54,"x_max":814,"o":"m 434 651 q 242 572 321 651 q 163 380 163 492 q 242 188 163 267 q 434 109 321 109 q 626 188 547 109 q 705 380 705 267 q 626 572 705 492 q 434 651 547 651 m 705 114 q 703 111 704 113 q 434 0 591 0 q 165 111 277 0 q 54 380 54 222 q 165 648 54 537 q 434 760 277 760 q 703 648 591 760 q 814 380 814 537 l 814 0 q 728 -206 814 -119 q 440 -326 609 -326 q 153 -206 271 -326 q 81 -112 109 -163 q 73 -83 73 -100 q 89 -45 73 -61 q 127 -29 104 -29 q 165 -45 149 -29 q 177 -61 172 -52 q 229 -130 197 -98 q 440 -217 317 -217 q 651 -130 564 -217 q 705 0 705 -64 l 705 114 m 515 923 q 492 865 515 889 q 434 842 468 842 q 376 865 400 842 q 353 923 353 889 q 376 981 353 957 q 434 1004 400 1004 q 492 981 468 1004 q 515 923 515 957 z "},"Ģ":{"ha":1017,"x_min":54,"x_max":958,"o":"m 954 159 q 938 121 954 136 q 597 0 787 0 q 213 159 372 0 q 54 543 54 318 q 213 926 54 767 q 597 1085 372 1085 q 942 961 791 1085 q 958 922 958 945 q 942 884 958 900 q 903 868 926 868 q 865 884 881 868 q 597 977 750 977 q 290 849 417 977 q 163 543 163 722 q 290 236 163 363 q 597 109 417 109 q 845 186 737 109 l 845 434 l 631 434 q 592 450 608 434 q 576 488 576 466 q 592 527 576 511 q 631 543 608 543 l 900 543 q 938 527 922 543 q 954 488 954 511 l 954 159 m 713 -84 q 760 -182 760 -122 q 712 -284 760 -243 q 597 -325 664 -325 q 519 -305 557 -325 l 458 -269 q 434 -223 434 -249 q 450 -185 434 -201 q 488 -169 466 -169 q 517 -177 505 -169 l 570 -210 q 597 -216 583 -216 q 635 -207 619 -216 q 651 -182 651 -198 q 635 -158 651 -167 q 597 -149 619 -149 q 558 -133 574 -149 q 543 -94 543 -117 q 555 -68 543 -81 q 621 -51 575 -51 q 713 -84 671 -54 z "},"ģ":{"ha":868,"x_min":54,"x_max":814,"o":"m 434 651 q 242 572 321 651 q 163 380 163 492 q 242 188 163 267 q 434 109 321 109 q 626 188 547 109 q 705 380 705 267 q 626 572 705 492 q 434 651 547 651 m 705 114 q 703 111 704 113 q 434 0 591 0 q 165 111 277 0 q 54 380 54 222 q 165 648 54 537 q 434 760 277 760 q 703 648 591 760 q 814 380 814 537 l 814 0 q 728 -206 814 -119 q 440 -326 609 -326 q 153 -206 271 -326 q 81 -112 109 -163 q 73 -83 73 -100 q 89 -45 73 -61 q 127 -29 104 -29 q 165 -45 149 -29 q 177 -61 172 -52 q 229 -130 197 -98 q 440 -217 317 -217 q 651 -130 564 -217 q 705 0 705 -64 l 705 114 m 524 882 q 504 834 524 854 q 456 814 484 814 q 395 853 414 814 q 353 1007 353 929 q 456 1250 353 1126 q 484 1261 467 1261 q 512 1250 500 1261 q 524 1221 524 1238 q 521 1204 524 1212 q 519 909 454 1043 q 524 882 524 897 z "},"Ĥ":{"ha":868,"x_min":54,"x_max":814,"o":"m 54 1031 q 70 1069 54 1053 q 109 1085 86 1085 q 147 1069 131 1085 q 163 1031 163 1053 l 163 597 l 705 597 l 705 1031 q 721 1069 705 1053 q 760 1085 737 1085 q 798 1069 782 1085 q 814 1031 814 1053 l 814 54 q 798 16 814 32 q 760 0 782 0 q 721 16 737 0 q 705 54 705 32 l 705 488 l 163 488 l 163 54 q 147 16 163 32 q 109 0 131 0 q 70 16 86 0 q 54 54 54 32 l 54 1031 m 462 1376 l 624 1268 q 651 1221 651 1248 q 635 1182 651 1198 q 597 1166 619 1166 q 563 1178 577 1166 l 434 1263 l 305 1178 q 271 1166 291 1166 q 233 1182 249 1166 q 217 1221 217 1198 q 244 1268 217 1248 l 406 1376 q 434 1383 418 1383 q 462 1376 450 1383 z "},"ĥ":{"ha":814,"x_min":54,"x_max":760,"o":"m 54 1031 q 70 1069 54 1053 q 109 1085 86 1085 q 147 1069 131 1085 q 163 1031 163 1053 l 163 661 q 407 760 264 760 q 656 656 553 760 q 760 407 760 553 l 760 54 q 744 16 760 32 q 705 0 728 0 q 667 16 683 0 q 651 54 651 32 l 651 407 q 579 579 651 508 q 407 651 508 651 q 234 579 306 651 q 163 407 163 508 l 163 54 q 147 16 163 32 q 109 0 131 0 q 70 16 86 0 q 54 54 54 32 l 54 1031 m 435 1376 l 597 1268 q 624 1221 624 1248 q 608 1182 624 1198 q 570 1166 592 1166 q 536 1178 550 1166 l 407 1263 l 278 1178 q 244 1166 264 1166 q 206 1182 222 1166 q 190 1221 190 1198 q 217 1268 190 1248 l 379 1376 q 407 1383 391 1383 q 435 1376 422 1383 z "},"Ħ":{"ha":1085,"x_min":54,"x_max":1031,"o":"m 163 895 l 163 1031 q 179 1069 163 1053 q 217 1085 195 1085 q 255 1069 239 1085 q 271 1031 271 1053 l 271 895 l 814 895 l 814 1031 q 830 1069 814 1053 q 868 1085 846 1085 q 906 1069 890 1085 q 922 1031 922 1053 l 922 895 l 977 895 q 1015 879 999 895 q 1031 841 1031 863 q 1015 803 1031 819 q 977 787 999 787 l 922 787 l 922 54 q 906 16 922 32 q 868 0 890 0 q 830 16 846 0 q 814 54 814 32 l 814 488 l 271 488 l 271 54 q 255 16 271 32 q 217 0 239 0 q 179 16 195 0 q 163 54 163 32 l 163 787 l 109 787 q 70 803 86 787 q 54 841 54 819 q 70 879 54 863 q 109 895 86 895 l 163 895 m 271 787 l 271 597 l 814 597 l 814 787 l 271 787 z "},"ħ":{"ha":895,"x_min":27,"x_max":841,"o":"m 136 977 l 136 1031 q 152 1069 136 1053 q 190 1085 168 1085 q 228 1069 212 1085 q 244 1031 244 1053 l 244 977 l 461 977 q 499 961 484 977 q 515 922 515 945 q 499 884 515 900 q 461 868 484 868 l 244 868 l 244 661 q 488 760 346 760 q 738 656 634 760 q 841 407 841 553 l 841 54 q 825 16 841 32 q 787 0 809 0 q 748 16 764 0 q 732 54 732 32 l 732 407 q 661 579 732 508 q 488 651 589 651 q 316 579 387 651 q 244 407 244 508 l 244 54 q 228 16 244 32 q 190 0 212 0 q 152 16 168 0 q 136 54 136 32 l 136 868 l 81 868 q 43 884 59 868 q 27 922 27 900 q 43 961 27 945 q 81 977 59 977 l 136 977 z "},"Ĩ":{"ha":434,"x_min":-57,"x_max":492,"o":"m 163 1031 q 179 1069 163 1053 q 217 1085 195 1085 q 255 1069 239 1085 q 271 1031 271 1053 l 271 54 q 255 16 271 32 q 217 0 239 0 q 179 16 195 0 q 163 54 163 32 l 163 1031 m 256 1221 q 112 1167 195 1167 q -42 1231 22 1167 q -57 1269 -57 1247 q -41 1307 -57 1291 q -3 1323 -25 1323 q 35 1308 19 1323 q 112 1276 67 1276 q 180 1299 150 1276 q 323 1354 240 1354 q 477 1290 414 1354 q 492 1252 492 1274 q 476 1214 492 1230 q 438 1198 460 1198 q 400 1213 416 1198 q 323 1245 368 1245 q 256 1221 285 1245 z "},"ĩ":{"ha":488,"x_min":-30,"x_max":519,"o":"m 190 705 q 206 744 190 728 q 244 760 222 760 q 282 744 267 760 q 298 705 298 728 l 298 54 q 282 16 298 32 q 244 0 267 0 q 206 16 222 0 q 190 54 190 32 l 190 705 m 283 896 q 139 842 222 842 q -15 905 49 842 q -30 943 -30 922 q -14 982 -30 966 q 24 998 2 998 q 62 983 46 998 q 139 950 94 950 q 207 974 177 950 q 351 1028 267 1028 q 505 964 441 1028 q 519 926 519 948 q 504 888 519 904 q 465 872 488 872 q 427 887 444 872 q 351 920 395 920 q 283 896 312 920 z "},"Ī":{"ha":326,"x_min":-54,"x_max":380,"o":"m 109 1031 q 124 1069 109 1053 q 163 1085 140 1085 q 201 1069 185 1085 q 217 1031 217 1053 l 217 54 q 201 16 217 32 q 163 0 185 0 q 124 16 140 0 q 109 54 109 32 l 109 1031 m 1 1194 q -38 1210 -22 1194 q -54 1248 -54 1225 q -38 1286 -54 1270 q 1 1302 -22 1302 l 326 1302 q 365 1286 349 1302 q 380 1248 380 1270 q 365 1210 380 1225 q 326 1194 349 1194 l 1 1194 z "},"ī":{"ha":380,"x_min":-26,"x_max":408,"o":"m 136 705 q 152 744 136 728 q 190 760 168 760 q 228 744 212 760 q 244 705 244 728 l 244 54 q 228 16 244 32 q 190 0 212 0 q 152 16 168 0 q 136 54 136 32 l 136 705 m 28 868 q -11 884 5 868 q -26 922 -26 900 q -11 961 -26 945 q 28 977 5 977 l 353 977 q 392 961 376 977 q 408 922 408 945 q 392 884 408 900 q 353 868 376 868 l 28 868 z "},"Ĭ":{"ha":326,"x_min":-54,"x_max":381,"o":"m 106 1031 q 122 1069 106 1053 q 160 1085 138 1085 q 198 1069 182 1085 q 214 1031 214 1053 l 214 54 q 198 16 214 32 q 160 0 182 0 q 122 16 138 0 q 106 54 106 32 l 106 1031 m -54 1329 q -38 1368 -54 1352 q 1 1383 -22 1383 q 39 1368 23 1383 q 55 1329 55 1352 q 87 1291 55 1307 q 163 1275 119 1275 q 240 1291 208 1275 q 273 1329 273 1307 q 289 1368 273 1352 q 327 1383 304 1383 q 365 1368 349 1383 q 381 1329 381 1352 q 317 1215 378 1258 q 163 1166 254 1166 q 10 1214 73 1166 q -54 1329 -54 1262 z "},"ĭ":{"ha":380,"x_min":-26,"x_max":408,"o":"m 132 705 q 148 744 132 728 q 186 760 164 760 q 225 744 209 760 q 241 705 241 728 l 241 54 q 225 16 241 32 q 186 0 209 0 q 148 16 164 0 q 132 54 132 32 l 132 705 m -26 1004 q -11 1042 -26 1026 q 28 1058 5 1058 q 66 1042 50 1058 q 82 1004 82 1026 q 114 965 82 981 q 191 949 146 949 q 268 965 235 949 q 300 1004 300 981 q 316 1042 300 1026 q 354 1058 332 1058 q 392 1042 376 1058 q 408 1004 408 1026 q 345 889 405 932 q 191 841 281 841 q 37 889 100 841 q -26 1004 -26 937 z "},"Į":{"ha":326,"x_min":1,"x_max":326,"o":"m 109 1031 q 124 1069 109 1053 q 163 1085 140 1085 q 201 1069 185 1085 q 217 1031 217 1053 l 217 54 q 201 16 217 32 q 163 0 185 0 q 124 16 140 0 q 109 54 109 32 l 109 1031 m 116 79 q 163 106 130 106 q 202 91 186 106 q 218 54 217 75 q 216 39 218 45 q 133 -64 206 -11 q 109 -109 109 -83 q 125 -147 109 -131 q 163 -163 141 -163 q 193 -154 180 -163 l 239 -119 q 272 -109 254 -109 q 310 -124 294 -109 q 326 -163 326 -140 q 307 -205 326 -190 l 253 -243 q 163 -271 212 -271 q 48 -223 96 -271 q 1 -109 1 -176 q 70 24 1 -30 q 116 79 106 54 z "},"į":{"ha":326,"x_min":1,"x_max":326,"o":"m 231 922 q 211 874 231 895 q 163 854 191 854 q 115 874 135 854 q 95 922 95 895 q 115 970 95 950 q 163 990 135 990 q 211 970 191 990 q 231 922 231 950 m 109 705 q 124 744 109 728 q 163 760 140 760 q 201 744 185 760 q 217 705 217 728 l 217 54 q 201 16 217 32 q 163 0 185 0 q 124 16 140 0 q 109 54 109 32 l 109 705 m 116 79 q 163 106 130 106 q 202 91 186 106 q 218 54 217 75 q 216 39 218 45 q 133 -64 206 -11 q 109 -109 109 -83 q 125 -147 109 -131 q 163 -163 141 -163 q 193 -154 180 -163 l 239 -119 q 272 -109 254 -109 q 310 -124 294 -109 q 326 -163 326 -140 q 307 -205 326 -190 l 253 -243 q 163 -271 212 -271 q 48 -223 96 -271 q 1 -109 1 -176 q 70 24 1 -30 q 116 79 106 54 z "},"İ":{"ha":326,"x_min":81,"x_max":244,"o":"m 109 1031 q 124 1069 109 1053 q 163 1085 140 1085 q 201 1069 185 1085 q 217 1031 217 1053 l 217 54 q 201 16 217 32 q 163 0 185 0 q 124 16 140 0 q 109 54 109 32 l 109 1031 m 244 1249 q 220 1191 244 1215 q 163 1167 197 1167 q 105 1191 129 1167 q 81 1249 81 1215 q 105 1306 81 1282 q 163 1330 129 1330 q 220 1306 197 1330 q 244 1249 244 1282 z "},"Ĳ":{"ha":1031,"x_min":109,"x_max":977,"o":"m 109 1031 q 124 1069 109 1053 q 163 1085 140 1085 q 201 1069 185 1085 q 217 1031 217 1053 l 217 54 q 201 16 217 32 q 163 0 185 0 q 124 16 140 0 q 109 54 109 32 l 109 1031 m 326 326 q 341 364 326 348 q 380 380 357 380 q 418 364 402 380 q 434 326 434 348 q 497 172 434 235 q 651 109 561 109 q 805 172 741 109 q 868 326 868 235 l 868 1031 q 884 1069 868 1053 q 922 1085 900 1085 q 961 1069 945 1085 q 977 1031 977 1053 l 977 326 q 881 95 977 191 q 651 0 786 0 q 421 95 516 0 q 326 326 326 191 z "},"ĳ":{"ha":597,"x_min":95,"x_max":502,"o":"m 231 922 q 211 874 231 895 q 163 854 191 854 q 115 874 135 854 q 95 922 95 895 q 115 970 95 950 q 163 990 135 990 q 211 970 191 990 q 231 922 231 950 m 109 705 q 124 744 109 728 q 163 760 140 760 q 201 744 185 760 q 217 705 217 728 l 217 54 q 201 16 217 32 q 163 0 185 0 q 124 16 140 0 q 109 54 109 32 l 109 705 m 502 922 q 482 874 502 895 q 434 854 462 854 q 386 874 406 854 q 366 922 366 895 q 386 970 366 950 q 434 990 406 990 q 482 970 462 990 q 502 922 502 950 m 380 0 l 380 705 q 396 744 380 728 q 434 760 412 760 q 472 744 456 760 q 488 705 488 728 l 488 0 q 393 -230 488 -135 q 163 -326 298 -326 q 124 -310 140 -326 q 109 -271 109 -294 q 124 -233 109 -249 q 163 -217 140 -217 q 316 -154 253 -217 q 380 0 380 -90 z "},"Ĵ":{"ha":814,"x_min":54,"x_max":868,"o":"m 54 326 q 70 364 54 348 q 109 380 86 380 q 147 364 131 380 q 163 326 163 348 q 226 172 163 235 q 380 109 290 109 q 533 172 470 109 q 597 326 597 235 l 597 1031 q 613 1069 597 1053 q 651 1085 629 1085 q 689 1069 673 1085 q 705 1031 705 1053 l 705 326 q 610 95 705 191 q 380 0 515 0 q 150 95 245 0 q 54 326 54 191 m 679 1376 l 841 1268 q 868 1221 868 1248 q 852 1182 868 1198 q 814 1166 836 1166 q 780 1178 794 1166 l 651 1263 l 522 1178 q 488 1166 508 1166 q 450 1182 466 1166 q 434 1221 434 1198 q 461 1268 434 1248 l 623 1376 q 651 1383 635 1383 q 679 1376 667 1383 z "},"ĵ":{"ha":515,"x_min":0,"x_max":543,"o":"m 271 0 l 271 705 q 287 744 271 728 q 326 760 303 760 q 364 744 348 760 q 380 705 380 728 l 380 0 q 284 -230 380 -135 q 54 -326 189 -326 q 16 -310 32 -326 q 0 -271 0 -294 q 16 -233 0 -249 q 54 -217 32 -217 q 208 -154 144 -217 q 271 0 271 -90 m 354 1044 l 516 936 q 528 927 522 932 q 543 888 543 911 q 527 850 543 866 q 489 834 511 834 q 455 846 469 834 l 326 931 l 197 846 q 163 834 183 834 q 125 850 141 834 q 109 888 109 866 q 125 927 109 911 q 136 936 131 932 l 298 1044 q 326 1051 311 1051 q 354 1044 342 1051 z "},"Ķ":{"ha":814,"x_min":54,"x_max":760,"o":"m 54 1031 q 70 1069 54 1053 q 109 1085 86 1085 q 147 1069 131 1085 q 163 1031 163 1053 l 163 566 l 665 1068 q 705 1085 683 1085 q 744 1069 728 1085 q 760 1031 760 1053 q 744 992 760 1008 l 363 611 l 749 87 q 760 56 760 73 q 738 11 760 28 q 707 0 723 0 q 661 23 677 0 l 285 533 l 163 411 l 163 54 q 147 16 163 32 q 109 0 131 0 q 70 16 86 0 q 54 54 54 32 l 54 1031 m 497 -58 q 544 -156 544 -96 q 496 -257 544 -216 q 381 -298 448 -298 q 304 -279 341 -298 l 242 -242 q 218 -197 218 -222 q 234 -158 218 -174 q 273 -142 250 -142 q 302 -151 289 -142 l 355 -183 q 381 -190 368 -190 q 419 -181 404 -190 q 435 -156 435 -172 q 419 -131 435 -140 q 381 -122 404 -122 q 343 -106 359 -122 q 327 -68 327 -90 q 340 -41 327 -54 q 405 -24 359 -24 q 497 -58 455 -27 z "},"ķ":{"ha":760,"x_min":54,"x_max":705,"o":"m 163 453 l 622 751 q 651 760 635 760 q 689 744 673 760 q 705 705 705 728 q 690 667 705 683 q 682 661 686 663 l 368 456 l 690 92 q 705 54 705 76 q 689 16 705 32 q 651 0 673 0 q 612 16 629 0 l 275 396 l 163 323 l 163 54 q 147 16 163 32 q 109 0 131 0 q 70 16 86 0 q 54 54 54 32 l 54 1031 q 70 1069 54 1053 q 109 1085 86 1085 q 147 1069 131 1085 q 163 1031 163 1053 l 163 453 m 496 -58 q 543 -156 543 -96 q 495 -257 543 -216 q 380 -298 448 -298 q 303 -279 340 -298 l 241 -242 q 218 -197 218 -222 q 234 -158 218 -174 q 272 -142 250 -142 q 301 -151 288 -142 l 354 -183 q 380 -190 367 -190 q 419 -181 403 -190 q 435 -156 435 -172 q 419 -131 435 -140 q 380 -122 403 -122 q 342 -106 358 -122 q 326 -68 326 -90 q 339 -41 326 -54 q 404 -24 359 -24 q 496 -58 454 -27 z "},"ĸ":{"ha":760,"x_min":54,"x_max":705,"o":"m 163 453 l 622 751 q 651 760 635 760 q 689 744 673 760 q 705 705 705 728 q 690 667 705 683 q 682 661 686 663 l 368 456 l 690 92 q 705 54 705 76 q 689 16 705 32 q 651 0 673 0 q 612 16 629 0 l 275 396 l 163 323 l 163 54 q 147 16 163 32 q 109 0 131 0 q 70 16 86 0 q 54 54 54 32 l 54 705 q 70 743 54 727 q 109 759 86 759 q 147 743 131 759 q 163 705 163 727 l 163 453 z "},"Ĺ":{"ha":814,"x_min":54,"x_max":760,"o":"m 54 1031 q 70 1069 54 1053 q 109 1085 86 1085 q 147 1069 131 1085 q 163 1031 163 1053 l 163 109 l 705 109 q 744 93 728 109 q 760 54 760 77 q 744 16 760 32 q 705 0 728 0 l 109 0 q 70 16 86 0 q 54 54 54 32 l 54 1031 m 420 1318 l 255 1154 q 218 1139 239 1139 q 179 1155 195 1139 q 163 1194 163 1171 q 177 1230 163 1215 l 342 1395 q 380 1411 358 1411 q 419 1395 403 1411 q 435 1356 435 1379 q 420 1318 435 1335 z "},"ĺ":{"ha":326,"x_min":28,"x_max":299,"o":"m 54 1031 q 70 1069 54 1053 q 109 1085 86 1085 q 147 1069 131 1085 q 163 1031 163 1053 l 163 109 l 217 109 q 255 93 239 109 q 271 54 271 77 q 255 16 271 32 q 217 0 239 0 l 109 0 q 70 16 86 0 q 54 54 54 32 l 54 1031 m 284 1318 l 119 1154 q 82 1139 104 1139 q 44 1155 60 1139 q 28 1194 28 1171 q 41 1230 28 1215 l 206 1395 q 245 1411 222 1411 q 283 1395 267 1411 q 299 1356 299 1379 q 284 1318 299 1335 z "},"Ļ":{"ha":814,"x_min":54,"x_max":760,"o":"m 54 1031 q 70 1069 54 1053 q 109 1085 86 1085 q 147 1069 131 1085 q 163 1031 163 1053 l 163 109 l 705 109 q 744 93 728 109 q 760 54 760 77 q 744 16 760 32 q 705 0 728 0 l 109 0 q 70 16 86 0 q 54 54 54 32 l 54 1031 m 524 -58 q 570 -156 570 -96 q 523 -257 570 -216 q 408 -298 475 -298 q 330 -279 368 -298 l 269 -242 q 245 -197 245 -222 q 261 -158 245 -174 q 299 -142 277 -142 q 328 -151 315 -142 l 381 -183 q 408 -190 394 -190 q 446 -181 430 -190 q 462 -156 462 -172 q 446 -131 462 -140 q 408 -122 430 -122 q 369 -106 385 -122 q 353 -68 353 -90 q 366 -41 353 -54 q 431 -24 386 -24 q 524 -58 481 -27 z "},"ļ":{"ha":326,"x_min":1,"x_max":326,"o":"m 54 1031 q 70 1069 54 1053 q 109 1085 86 1085 q 147 1069 131 1085 q 163 1031 163 1053 l 163 109 l 217 109 q 255 93 239 109 q 271 54 271 77 q 255 16 271 32 q 217 0 239 0 l 109 0 q 70 16 86 0 q 54 54 54 32 l 54 1031 m 279 -58 q 326 -156 326 -96 q 278 -257 326 -216 q 163 -298 231 -298 q 86 -279 123 -298 l 24 -242 q 1 -197 1 -222 q 17 -158 1 -174 q 55 -142 33 -142 q 84 -151 71 -142 l 137 -183 q 163 -190 150 -190 q 202 -181 186 -190 q 218 -156 218 -172 q 202 -131 218 -140 q 163 -122 186 -122 q 125 -106 141 -122 q 109 -68 109 -90 q 122 -41 109 -54 q 187 -24 142 -24 q 279 -58 237 -27 z "},"Ľ":{"ha":814,"x_min":54,"x_max":760,"o":"m 54 1031 q 70 1069 54 1053 q 109 1085 86 1085 q 147 1069 131 1085 q 163 1031 163 1053 l 163 109 l 705 109 q 744 93 728 109 q 760 54 760 77 q 744 16 760 32 q 705 0 728 0 l 109 0 q 70 16 86 0 q 54 54 54 32 l 54 1031 m 325 1017 q 345 1065 325 1045 q 393 1085 365 1085 q 454 1046 435 1085 q 496 892 496 970 q 393 649 496 773 q 365 637 382 637 q 337 649 349 637 q 325 677 325 661 q 328 695 325 687 q 330 990 395 856 q 325 1017 325 1002 z "},"ľ":{"ha":461,"x_min":54,"x_max":407,"o":"m 54 1031 q 70 1069 54 1053 q 109 1085 86 1085 q 147 1069 131 1085 q 163 1031 163 1053 l 163 109 l 217 109 q 255 93 239 109 q 271 54 271 77 q 255 16 271 32 q 217 0 239 0 l 109 0 q 70 16 86 0 q 54 54 54 32 l 54 1031 m 235 1017 q 255 1065 235 1045 q 303 1085 275 1085 q 364 1046 345 1085 q 407 892 407 970 q 304 649 407 773 q 275 637 292 637 q 247 649 259 637 q 235 677 235 661 q 239 695 235 687 q 241 990 305 856 q 235 1017 235 1002 z "},"Ŀ":{"ha":814,"x_min":54,"x_max":760,"o":"m 54 1031 q 70 1069 54 1053 q 109 1085 86 1085 q 147 1069 131 1085 q 163 1031 163 1053 l 163 109 l 705 109 q 744 93 728 109 q 760 54 760 77 q 744 16 760 32 q 705 0 728 0 l 109 0 q 70 16 86 0 q 54 54 54 32 l 54 1031 m 543 543 q 519 485 543 509 q 462 461 496 461 q 404 485 428 461 q 380 543 380 509 q 404 600 380 576 q 462 624 428 624 q 519 600 496 624 q 543 543 543 576 z "},"ŀ":{"ha":434,"x_min":54,"x_max":379,"o":"m 54 1031 q 70 1069 54 1053 q 109 1085 86 1085 q 147 1069 131 1085 q 163 1031 163 1053 l 163 109 l 217 109 q 255 93 239 109 q 271 54 271 77 q 255 16 271 32 q 217 0 239 0 l 109 0 q 70 16 86 0 q 54 54 54 32 l 54 1031 m 379 543 q 355 485 379 509 q 298 461 332 461 q 240 485 264 461 q 216 543 216 509 q 240 600 216 576 q 298 624 264 624 q 355 600 332 624 q 379 543 379 576 z "},"Ł":{"ha":922,"x_min":17,"x_max":868,"o":"m 163 567 l 163 1031 q 179 1069 163 1053 q 217 1085 195 1085 q 255 1069 239 1085 q 271 1031 271 1053 l 271 674 l 342 744 q 380 760 357 760 q 418 744 403 760 q 434 705 434 728 q 418 667 434 683 l 271 522 l 271 109 l 814 109 q 852 93 836 109 q 868 54 868 77 q 852 16 868 32 q 814 0 836 0 l 217 0 q 179 16 195 0 q 163 54 163 32 l 163 414 l 109 361 q 71 346 94 345 q 33 361 48 346 q 17 400 17 378 q 33 438 17 422 l 163 567 z "},"ł":{"ha":488,"x_min":17,"x_max":434,"o":"m 163 567 l 163 1031 q 179 1069 163 1053 q 217 1085 195 1085 q 255 1069 239 1085 q 271 1031 271 1053 l 271 674 l 342 744 q 380 760 357 760 q 418 744 403 760 q 434 705 434 728 q 418 667 434 683 l 271 522 l 271 109 l 326 109 q 364 93 348 109 q 380 54 380 77 q 364 16 380 32 q 326 0 348 0 l 217 0 q 179 16 195 0 q 163 54 163 32 l 163 414 l 109 361 q 71 346 94 345 q 33 361 48 346 q 17 400 17 378 q 33 438 17 422 l 163 567 z "},"Ń":{"ha":977,"x_min":54,"x_max":922,"o":"m 163 54 q 147 16 163 32 q 109 0 131 0 q 70 16 86 0 q 54 54 54 32 l 54 1031 q 70 1069 54 1053 q 109 1085 86 1085 q 151 1065 133 1085 l 814 212 l 814 1031 q 830 1069 814 1053 q 868 1085 846 1085 q 906 1069 890 1085 q 922 1031 922 1053 l 922 54 q 906 16 922 32 q 868 0 890 0 q 827 18 844 0 l 163 872 l 163 54 m 654 1318 l 490 1154 q 452 1139 474 1139 q 414 1155 430 1139 q 398 1194 398 1171 q 412 1230 398 1215 l 576 1395 q 615 1411 593 1411 q 653 1395 637 1411 q 669 1356 669 1379 q 654 1318 669 1335 z "},"ń":{"ha":814,"x_min":54,"x_max":760,"o":"m 54 705 q 70 744 54 728 q 109 760 86 760 q 147 744 131 760 q 163 705 163 728 l 163 661 q 407 760 264 760 q 656 656 553 760 q 760 407 760 553 l 760 54 q 744 16 760 32 q 705 0 728 0 q 667 16 683 0 q 651 54 651 32 l 651 407 q 579 579 651 508 q 407 651 508 651 q 234 579 306 651 q 163 407 163 508 l 163 54 q 147 16 163 32 q 109 0 131 0 q 70 16 86 0 q 54 54 54 32 l 54 705 m 573 993 l 408 828 q 371 814 393 814 q 333 830 349 814 q 317 868 317 846 q 330 905 317 889 l 495 1069 q 534 1085 511 1085 q 572 1069 556 1085 q 588 1031 588 1053 q 573 993 588 1009 z "},"Ņ":{"ha":977,"x_min":54,"x_max":922,"o":"m 163 54 q 147 16 163 32 q 109 0 131 0 q 70 16 86 0 q 54 54 54 32 l 54 1031 q 70 1069 54 1053 q 109 1085 86 1085 q 151 1065 133 1085 l 814 212 l 814 1031 q 830 1069 814 1053 q 868 1085 846 1085 q 906 1069 890 1085 q 922 1031 922 1053 l 922 54 q 906 16 922 32 q 868 0 890 0 q 827 18 844 0 l 163 872 l 163 54 m 605 -58 q 652 -156 652 -96 q 604 -257 652 -216 q 489 -298 556 -298 q 412 -279 449 -298 l 350 -242 q 326 -197 326 -222 q 342 -158 326 -174 q 380 -142 358 -142 q 410 -151 397 -142 l 463 -183 q 489 -190 475 -190 q 527 -181 511 -190 q 543 -156 543 -172 q 527 -131 543 -140 q 489 -122 511 -122 q 451 -106 467 -122 q 435 -68 435 -90 q 448 -41 435 -54 q 513 -24 467 -24 q 605 -58 563 -27 z "},"ņ":{"ha":814,"x_min":54,"x_max":760,"o":"m 54 705 q 70 744 54 728 q 109 760 86 760 q 147 744 131 760 q 163 705 163 728 l 163 661 q 407 760 264 760 q 656 656 553 760 q 760 407 760 553 l 760 54 q 744 16 760 32 q 705 0 728 0 q 667 16 683 0 q 651 54 651 32 l 651 407 q 579 579 651 508 q 407 651 508 651 q 234 579 306 651 q 163 407 163 508 l 163 54 q 147 16 163 32 q 109 0 131 0 q 70 16 86 0 q 54 54 54 32 l 54 705 m 524 -58 q 571 -156 571 -96 q 523 -257 571 -216 q 408 -298 475 -298 q 331 -279 368 -298 l 269 -242 q 245 -197 245 -222 q 261 -158 245 -174 q 300 -142 277 -142 q 329 -151 316 -142 l 382 -183 q 408 -190 395 -190 q 447 -181 431 -190 q 463 -156 463 -172 q 447 -131 463 -140 q 408 -122 431 -122 q 370 -106 386 -122 q 354 -68 354 -90 q 367 -41 354 -54 q 432 -24 387 -24 q 524 -58 482 -27 z "},"Ň":{"ha":977,"x_min":54,"x_max":922,"o":"m 163 54 q 147 16 163 32 q 109 0 131 0 q 70 16 86 0 q 54 54 54 32 l 54 1031 q 70 1069 54 1053 q 109 1085 86 1085 q 151 1065 133 1085 l 814 212 l 814 1031 q 830 1069 814 1053 q 868 1085 846 1085 q 906 1069 890 1085 q 922 1031 922 1053 l 922 54 q 906 16 922 32 q 868 0 890 0 q 827 18 844 0 l 163 872 l 163 54 m 488 1166 q 460 1174 473 1166 l 298 1282 q 271 1329 271 1302 q 287 1368 271 1352 q 326 1383 303 1383 q 359 1372 345 1383 l 488 1286 l 617 1372 q 651 1383 631 1383 q 689 1368 673 1383 q 705 1329 705 1352 q 678 1282 705 1302 l 516 1174 q 488 1166 504 1166 z "},"ň":{"ha":814,"x_min":54,"x_max":760,"o":"m 54 705 q 70 744 54 728 q 109 760 86 760 q 147 744 131 760 q 163 705 163 728 l 163 661 q 407 760 264 760 q 656 656 553 760 q 760 407 760 553 l 760 54 q 744 16 760 32 q 705 0 728 0 q 667 16 683 0 q 651 54 651 32 l 651 407 q 579 579 651 508 q 407 651 508 651 q 234 579 306 651 q 163 407 163 508 l 163 54 q 147 16 163 32 q 109 0 131 0 q 70 16 86 0 q 54 54 54 32 l 54 705 m 407 841 q 379 848 391 841 l 217 956 q 190 1004 190 977 q 206 1042 190 1026 q 244 1058 222 1058 q 278 1046 264 1058 l 407 961 l 536 1046 q 570 1058 550 1058 q 608 1042 592 1058 q 624 1004 624 1026 q 597 956 624 977 l 435 848 q 407 841 422 841 z "},"ŉ":{"ha":977,"x_min":56,"x_max":923,"o":"m 218 705 q 234 744 218 728 q 272 760 250 760 q 310 744 294 760 q 326 705 326 728 l 326 661 q 570 760 428 760 q 820 656 716 760 q 923 407 923 553 l 923 54 q 907 16 923 32 q 869 0 891 0 q 830 16 846 0 q 814 54 814 32 l 814 407 q 743 579 814 508 q 570 651 671 651 q 398 579 469 651 q 326 407 326 508 l 326 54 q 310 16 326 32 q 272 0 294 0 q 234 16 250 0 q 218 54 218 32 l 218 705 m 56 1017 q 76 1065 56 1045 q 124 1085 96 1085 q 185 1046 166 1085 q 228 892 228 970 q 125 649 228 773 q 96 637 113 637 q 68 649 80 637 q 56 677 56 661 q 60 695 56 687 q 62 990 126 856 q 56 1017 56 1002 z "},"Ŋ":{"ha":977,"x_min":54,"x_max":922,"o":"m 163 54 q 147 16 163 32 q 109 0 131 0 q 70 16 86 0 q 54 54 54 32 l 54 1031 q 70 1069 54 1053 q 109 1085 86 1085 q 147 1069 131 1085 q 163 1031 163 1053 l 163 938 q 182 958 172 948 q 488 1085 309 1085 q 795 958 668 1085 q 922 651 922 831 l 922 326 q 827 95 922 191 q 597 0 732 0 q 367 96 462 0 q 351 134 351 112 q 367 173 351 157 q 405 189 382 189 q 444 173 427 189 q 597 109 507 109 q 750 172 687 109 q 814 326 814 235 l 814 651 q 719 881 814 786 q 488 977 623 977 q 258 881 353 977 q 163 651 163 786 l 163 54 z "},"ŋ":{"ha":814,"x_min":54,"x_max":760,"o":"m 651 -109 l 651 407 q 579 579 651 508 q 407 651 508 651 q 234 579 306 651 q 163 407 163 508 l 163 54 q 147 16 163 32 q 109 0 131 0 q 70 16 86 0 q 54 54 54 32 l 54 705 q 70 744 54 728 q 109 760 86 760 q 147 744 131 760 q 163 705 163 728 l 163 661 q 407 760 264 760 q 656 656 553 760 q 760 407 760 553 l 760 -109 q 696 -262 760 -199 q 543 -326 633 -326 q 445 -302 489 -326 q 419 -256 420 -287 q 435 -218 419 -234 q 473 -202 451 -202 q 494 -206 484 -202 q 543 -217 516 -217 q 619 -185 587 -217 q 651 -109 651 -153 z "},"Ō":{"ha":1194,"x_min":54,"x_max":1139,"o":"m 597 977 q 290 849 417 977 q 163 543 163 722 q 290 236 163 363 q 597 109 417 109 q 904 236 777 109 q 1031 543 1031 363 q 904 849 1031 722 q 597 977 777 977 m 1139 543 q 980 159 1139 318 q 597 0 821 0 q 213 159 372 0 q 54 543 54 318 q 213 926 54 767 q 597 1085 372 1085 q 980 926 821 1085 q 1139 543 1139 767 m 434 1194 q 396 1210 412 1194 q 380 1248 380 1225 q 396 1286 380 1270 q 434 1302 412 1302 l 760 1302 q 798 1286 782 1302 q 814 1248 814 1270 q 798 1210 814 1225 q 760 1194 782 1194 l 434 1194 z "},"ō":{"ha":868,"x_min":54,"x_max":814,"o":"m 814 380 q 703 111 814 222 q 434 0 591 0 q 165 111 277 0 q 54 380 54 222 q 165 648 54 537 q 434 760 277 760 q 703 648 591 760 q 814 380 814 537 m 434 651 q 242 572 321 651 q 163 380 163 492 q 242 188 163 267 q 434 109 321 109 q 626 188 547 109 q 705 380 705 267 q 626 572 705 492 q 434 651 547 651 m 271 868 q 233 884 249 868 q 217 922 217 900 q 233 961 217 945 q 271 977 249 977 l 597 977 q 635 961 619 977 q 651 922 651 945 q 635 884 651 900 q 597 868 619 868 l 271 868 z "},"Ŏ":{"ha":1194,"x_min":54,"x_max":1139,"o":"m 597 977 q 290 849 417 977 q 163 543 163 722 q 290 236 163 363 q 597 109 417 109 q 904 236 777 109 q 1031 543 1031 363 q 904 849 1031 722 q 597 977 777 977 m 1139 543 q 980 159 1139 318 q 597 0 821 0 q 213 159 372 0 q 54 543 54 318 q 213 926 54 767 q 597 1085 372 1085 q 980 926 821 1085 q 1139 543 1139 767 m 384 1329 q 400 1368 384 1352 q 438 1383 416 1383 q 476 1368 460 1383 q 492 1329 492 1352 q 524 1291 492 1307 q 601 1275 556 1275 q 678 1291 646 1275 q 710 1329 710 1307 q 726 1368 710 1352 q 764 1383 742 1383 q 803 1368 787 1383 q 819 1329 819 1352 q 755 1215 815 1258 q 601 1166 691 1166 q 447 1214 511 1166 q 384 1329 384 1262 z "},"ŏ":{"ha":868,"x_min":54,"x_max":814,"o":"m 814 380 q 703 111 814 222 q 434 0 591 0 q 165 111 277 0 q 54 380 54 222 q 165 648 54 537 q 434 760 277 760 q 703 648 591 760 q 814 380 814 537 m 434 651 q 242 572 321 651 q 163 380 163 492 q 242 188 163 267 q 434 109 321 109 q 626 188 547 109 q 705 380 705 267 q 626 572 705 492 q 434 651 547 651 m 221 1004 q 237 1042 221 1026 q 275 1058 253 1058 q 314 1042 298 1058 q 330 1004 330 1026 q 361 965 330 981 q 438 949 393 949 q 515 965 483 949 q 547 1004 547 981 q 563 1042 547 1026 q 602 1058 579 1058 q 640 1042 624 1058 q 656 1004 656 1026 q 592 889 652 932 q 438 841 528 841 q 284 889 348 841 q 221 1004 221 937 z "},"Ő":{"ha":1194,"x_min":54,"x_max":1139,"o":"m 597 977 q 290 849 417 977 q 163 543 163 722 q 290 236 163 363 q 597 109 417 109 q 904 236 777 109 q 1031 543 1031 363 q 904 849 1031 722 q 597 977 777 977 m 1139 543 q 980 159 1139 318 q 597 0 821 0 q 213 159 372 0 q 54 543 54 318 q 213 926 54 767 q 597 1085 372 1085 q 980 926 821 1085 q 1139 543 1139 767 m 486 1152 q 448 1126 474 1127 q 410 1150 422 1126 q 407 1166 407 1158 q 410 1181 407 1174 l 471 1376 q 500 1406 479 1396 q 522 1410 511 1410 q 542 1407 532 1410 q 572 1378 563 1398 q 572 1336 581 1357 l 486 1152 m 696 1152 q 658 1126 684 1127 q 621 1150 633 1126 q 617 1166 617 1158 q 620 1181 617 1174 l 682 1376 q 711 1406 690 1396 q 732 1410 722 1410 q 752 1407 742 1410 q 782 1378 773 1398 q 783 1336 791 1357 l 696 1152 z "},"ő":{"ha":868,"x_min":54,"x_max":814,"o":"m 814 380 q 703 111 814 222 q 434 0 591 0 q 165 111 277 0 q 54 380 54 222 q 165 648 54 537 q 434 760 277 760 q 703 648 591 760 q 814 380 814 537 m 434 651 q 242 572 321 651 q 163 380 163 492 q 242 188 163 267 q 434 109 321 109 q 626 188 547 109 q 705 380 705 267 q 626 572 705 492 q 434 651 547 651 m 323 854 q 285 828 311 829 q 248 852 260 828 q 244 869 244 861 q 247 884 244 876 l 309 1078 q 338 1108 317 1099 q 359 1112 349 1112 q 379 1109 369 1112 q 409 1080 400 1101 q 410 1038 418 1059 l 323 854 m 533 854 q 495 828 522 829 q 458 852 470 828 q 454 869 454 861 q 457 884 454 876 l 519 1078 q 548 1108 527 1099 q 569 1112 559 1112 q 589 1109 579 1112 q 619 1080 610 1101 q 620 1038 628 1059 l 533 854 z "},"Œ":{"ha":1465,"x_min":54,"x_max":1411,"o":"m 597 977 q 290 849 417 977 q 163 543 163 722 q 290 236 163 363 q 597 109 417 109 l 651 109 l 651 977 l 597 977 m 597 0 q 213 159 372 0 q 54 543 54 318 q 213 926 54 767 q 597 1085 372 1085 l 1357 1085 q 1395 1069 1379 1085 q 1411 1031 1411 1053 q 1395 992 1411 1008 q 1357 977 1379 977 l 760 977 l 760 597 l 1194 597 q 1233 581 1217 597 q 1249 543 1249 565 q 1233 504 1249 519 q 1194 488 1217 488 l 760 488 l 760 109 l 1356 109 q 1395 93 1379 109 q 1411 54 1411 77 q 1395 16 1411 32 q 1356 0 1379 0 l 597 0 z "},"œ":{"ha":1519,"x_min":54,"x_max":1465,"o":"m 434 651 q 242 572 321 651 q 163 380 163 492 q 242 188 163 267 q 434 109 321 109 q 626 188 547 109 q 705 380 705 267 q 626 572 705 492 q 434 651 547 651 m 1352 434 q 1277 572 1337 512 q 1085 651 1198 651 q 893 572 972 651 q 819 434 833 512 l 1352 434 m 760 182 q 703 111 736 144 q 434 0 591 0 q 165 111 277 0 q 54 380 54 222 q 165 648 54 537 q 434 760 277 760 q 703 648 591 760 q 760 577 736 615 q 817 648 783 615 q 1085 760 928 760 q 1354 648 1242 760 q 1465 380 1465 537 q 1449 341 1465 357 q 1411 326 1433 326 l 819 326 q 893 188 833 248 q 1085 109 972 109 q 1260 173 1187 109 q 1294 184 1275 184 q 1332 169 1316 184 q 1348 130 1348 153 q 1333 92 1348 108 q 1085 0 1227 0 q 817 111 928 0 q 760 182 783 144 z "},"Ŕ":{"ha":814,"x_min":54,"x_max":760,"o":"m 163 977 l 163 543 l 380 543 q 533 606 470 543 q 597 760 597 669 q 533 913 597 850 q 380 977 470 977 l 163 977 m 109 1085 l 380 1085 q 610 990 515 1085 q 705 760 705 895 q 610 530 705 625 q 515 463 566 486 l 751 84 q 760 54 760 71 q 744 16 760 32 q 705 0 728 0 q 658 28 676 0 l 404 435 q 380 434 392 434 l 163 434 l 163 54 q 147 16 163 32 q 109 0 131 0 q 70 16 86 0 q 54 54 54 32 l 54 1031 q 70 1069 54 1053 q 109 1085 86 1085 m 473 1318 l 309 1154 q 271 1139 293 1139 q 233 1155 249 1139 q 217 1194 217 1171 q 231 1230 217 1215 l 395 1395 q 434 1411 412 1411 q 472 1395 456 1411 q 488 1356 488 1379 q 473 1318 488 1335 z "},"ŕ":{"ha":651,"x_min":54,"x_max":618,"o":"m 54 705 q 70 744 54 728 q 109 760 86 760 q 147 744 131 760 q 163 705 163 728 l 163 646 q 434 760 277 760 q 580 732 513 760 q 602 718 592 728 q 618 680 618 702 q 602 641 618 657 q 564 625 586 625 q 540 631 551 625 q 434 651 492 651 q 242 572 321 651 q 163 380 163 492 l 163 54 q 147 16 163 32 q 109 0 131 0 q 70 16 86 0 q 54 54 54 32 l 54 705 m 472 993 l 307 828 q 270 814 292 814 q 232 830 248 814 q 216 868 216 846 q 229 905 216 889 l 394 1069 q 433 1085 410 1085 q 471 1069 455 1085 q 487 1031 487 1053 q 472 993 487 1009 z "},"Ŗ":{"ha":814,"x_min":54,"x_max":760,"o":"m 163 977 l 163 543 l 380 543 q 533 606 470 543 q 597 760 597 669 q 533 913 597 850 q 380 977 470 977 l 163 977 m 109 1085 l 380 1085 q 610 990 515 1085 q 705 760 705 895 q 610 530 705 625 q 515 463 566 486 l 751 84 q 760 54 760 71 q 744 16 760 32 q 705 0 728 0 q 658 28 676 0 l 404 435 q 380 434 392 434 l 163 434 l 163 54 q 147 16 163 32 q 109 0 131 0 q 70 16 86 0 q 54 54 54 32 l 54 1031 q 70 1069 54 1053 q 109 1085 86 1085 m 524 -58 q 570 -156 570 -96 q 523 -257 570 -216 q 408 -298 475 -298 q 330 -279 368 -298 l 269 -242 q 245 -197 245 -222 q 261 -158 245 -174 q 299 -142 277 -142 q 328 -151 315 -142 l 381 -183 q 408 -190 394 -190 q 446 -181 430 -190 q 462 -156 462 -172 q 446 -131 462 -140 q 408 -122 430 -122 q 369 -106 385 -122 q 353 -68 353 -90 q 366 -41 353 -54 q 431 -24 386 -24 q 524 -58 481 -27 z "},"ŗ":{"ha":651,"x_min":54,"x_max":618,"o":"m 54 705 q 70 744 54 728 q 109 760 86 760 q 147 744 131 760 q 163 705 163 728 l 163 646 q 434 760 277 760 q 580 732 513 760 q 602 718 592 728 q 618 680 618 702 q 602 641 618 657 q 564 625 586 625 q 540 631 551 625 q 434 651 492 651 q 242 572 321 651 q 163 380 163 492 l 163 54 q 147 16 163 32 q 109 0 131 0 q 70 16 86 0 q 54 54 54 32 l 54 705 m 387 -58 q 433 -156 433 -96 q 386 -257 433 -216 q 271 -298 338 -298 q 193 -279 231 -298 l 132 -242 q 108 -197 108 -222 q 124 -158 108 -174 q 162 -142 140 -142 q 191 -151 178 -142 l 244 -183 q 271 -190 257 -190 q 309 -181 293 -190 q 325 -156 325 -172 q 309 -131 325 -140 q 271 -122 293 -122 q 232 -106 248 -122 q 216 -68 216 -90 q 229 -41 216 -54 q 294 -24 249 -24 q 387 -58 345 -27 z "},"Ř":{"ha":814,"x_min":54,"x_max":760,"o":"m 163 977 l 163 543 l 380 543 q 533 606 470 543 q 597 760 597 669 q 533 913 597 850 q 380 977 470 977 l 163 977 m 109 1085 l 380 1085 q 610 990 515 1085 q 705 760 705 895 q 610 530 705 625 q 515 463 566 486 l 751 84 q 760 54 760 71 q 744 16 760 32 q 705 0 728 0 q 658 28 676 0 l 404 435 q 380 434 392 434 l 163 434 l 163 54 q 147 16 163 32 q 109 0 131 0 q 70 16 86 0 q 54 54 54 32 l 54 1031 q 70 1069 54 1053 q 109 1085 86 1085 m 326 1166 q 298 1174 311 1166 l 136 1282 q 109 1329 109 1302 q 125 1368 109 1352 q 163 1383 141 1383 q 197 1372 183 1383 l 326 1286 l 455 1372 q 489 1383 469 1383 q 527 1368 511 1383 q 543 1329 543 1352 q 516 1282 543 1302 l 354 1174 q 326 1166 342 1166 z "},"ř":{"ha":651,"x_min":54,"x_max":618,"o":"m 54 705 q 70 744 54 728 q 109 760 86 760 q 147 744 131 760 q 163 705 163 728 l 163 646 q 434 760 277 760 q 580 732 513 760 q 602 718 592 728 q 618 680 618 702 q 602 641 618 657 q 564 625 586 625 q 540 631 551 625 q 434 651 492 651 q 242 572 321 651 q 163 380 163 492 l 163 54 q 147 16 163 32 q 109 0 131 0 q 70 16 86 0 q 54 54 54 32 l 54 705 m 325 841 q 297 848 309 841 l 135 956 q 108 1004 108 977 q 124 1042 108 1026 q 162 1058 140 1058 q 196 1046 182 1058 l 325 961 l 454 1046 q 488 1058 468 1058 q 526 1042 510 1058 q 542 1004 542 1026 q 515 956 542 977 l 353 848 q 325 841 340 841 z "},"Ś":{"ha":719,"x_min":54,"x_max":665,"o":"m 65 149 q 54 181 54 163 q 70 219 54 203 q 109 235 86 235 q 155 210 138 235 q 174 186 163 197 q 321 109 231 117 q 479 160 411 102 q 555 308 548 218 q 505 466 563 398 q 357 542 447 534 q 172 637 245 551 q 109 835 100 722 q 203 1019 118 947 q 380 1085 280 1085 q 586 988 498 1085 q 612 951 601 970 q 621 922 621 939 q 605 884 621 900 q 566 868 589 868 q 528 884 541 868 q 503 918 516 901 q 393 975 459 969 q 274 936 326 980 q 217 826 222 892 q 255 707 212 759 q 366 650 299 656 q 588 536 500 639 q 665 330 665 446 q 663 299 665 315 q 550 78 652 165 q 342 0 458 0 q 91 115 196 0 q 65 149 77 131 m 526 1318 l 361 1154 q 323 1139 345 1139 q 285 1155 301 1139 q 269 1194 269 1171 q 283 1230 269 1215 l 448 1395 q 486 1411 464 1411 q 525 1395 509 1411 q 541 1356 541 1379 q 526 1318 541 1335 z "},"ś":{"ha":719,"x_min":54,"x_max":665,"o":"m 189 380 q 102 428 127 403 q 54 543 54 475 q 104 660 54 610 q 359 760 202 760 q 651 623 530 760 q 661 591 662 610 q 645 553 661 569 q 607 537 629 537 q 571 551 585 537 q 551 572 557 566 q 359 651 472 651 q 180 581 247 651 q 163 534 163 561 q 197 490 165 502 l 530 380 q 616 332 592 357 q 665 217 665 284 q 614 100 665 150 q 359 0 517 0 q 68 136 189 0 q 58 168 58 151 q 74 207 58 191 q 112 222 90 222 q 148 208 134 222 q 168 188 161 194 q 359 109 247 109 q 539 179 472 109 q 555 226 555 199 q 522 269 553 258 l 189 380 m 500 993 l 335 828 q 298 814 319 814 q 259 830 275 814 q 243 868 243 846 q 257 905 243 889 l 422 1069 q 460 1085 438 1085 q 499 1069 483 1085 q 515 1031 515 1053 q 500 993 515 1009 z "},"Ŝ":{"ha":719,"x_min":54,"x_max":665,"o":"m 65 149 q 54 181 54 163 q 70 219 54 203 q 109 235 86 235 q 155 210 138 235 q 174 186 163 197 q 321 109 231 117 q 479 160 411 102 q 555 308 548 218 q 505 466 563 398 q 357 542 447 534 q 172 637 245 551 q 109 835 100 722 q 203 1019 118 947 q 380 1085 280 1085 q 586 988 498 1085 q 612 951 601 970 q 621 922 621 939 q 605 884 621 900 q 566 868 589 868 q 528 884 541 868 q 503 918 516 901 q 393 975 459 969 q 274 936 326 980 q 217 826 222 892 q 255 707 212 759 q 366 650 299 656 q 588 536 500 639 q 665 330 665 446 q 663 299 665 315 q 550 78 652 165 q 342 0 458 0 q 91 115 196 0 q 65 149 77 131 m 394 1376 l 556 1268 q 583 1221 583 1248 q 567 1182 583 1198 q 529 1166 551 1166 q 495 1178 509 1166 l 366 1263 l 237 1178 q 203 1166 223 1166 q 165 1182 181 1166 q 149 1221 149 1198 q 176 1268 149 1248 l 338 1376 q 366 1383 351 1383 q 394 1376 382 1383 z "},"ŝ":{"ha":719,"x_min":54,"x_max":665,"o":"m 189 380 q 102 428 127 403 q 54 543 54 475 q 104 660 54 610 q 359 760 202 760 q 651 623 530 760 q 661 591 662 610 q 645 553 661 569 q 607 537 629 537 q 571 551 585 537 q 551 572 557 566 q 359 651 472 651 q 180 581 247 651 q 163 534 163 561 q 197 490 165 502 l 530 380 q 616 332 592 357 q 665 217 665 284 q 614 100 665 150 q 359 0 517 0 q 68 136 189 0 q 58 168 58 151 q 74 207 58 191 q 112 222 90 222 q 148 208 134 222 q 168 188 161 194 q 359 109 247 109 q 539 179 472 109 q 555 226 555 199 q 522 269 553 258 l 189 380 m 387 1050 l 549 943 q 576 895 576 922 q 561 857 576 873 q 522 841 545 841 q 488 852 503 841 l 359 938 l 231 852 q 197 841 216 841 q 158 857 174 841 q 142 895 142 873 q 170 943 142 922 l 332 1050 q 359 1058 344 1058 q 387 1050 375 1058 z "},"Ş":{"ha":719,"x_min":54,"x_max":665,"o":"m 65 149 q 54 181 54 163 q 70 219 54 203 q 109 235 86 235 q 155 210 138 235 q 174 186 163 197 q 321 109 231 117 q 479 160 411 102 q 555 308 548 218 q 505 466 563 398 q 357 542 447 534 q 172 637 245 551 q 109 835 100 722 q 203 1019 118 947 q 380 1085 280 1085 q 586 988 498 1085 q 612 951 601 970 q 621 922 621 939 q 605 884 621 900 q 566 868 589 868 q 528 884 541 868 q 503 918 516 901 q 393 975 459 969 q 274 936 326 980 q 217 826 222 892 q 255 707 212 759 q 366 650 299 656 q 588 536 500 639 q 665 330 665 446 q 663 299 665 315 q 550 78 652 165 q 342 0 458 0 q 91 115 196 0 q 65 149 77 131 m 308 39 q 346 54 323 54 q 384 38 368 54 q 400 0 400 22 q 399 -13 400 -7 l 387 -54 q 434 -81 412 -64 q 481 -183 481 -123 q 434 -284 481 -243 q 319 -326 386 -326 q 241 -306 279 -326 l 180 -269 q 156 -224 156 -250 q 172 -185 156 -201 q 210 -170 188 -170 q 239 -178 227 -170 l 292 -210 q 319 -217 305 -217 q 357 -208 341 -217 q 373 -183 373 -199 q 357 -158 373 -168 q 319 -149 341 -149 q 280 -133 296 -149 q 264 -95 264 -117 q 267 -77 264 -85 l 294 16 q 308 39 298 28 z "},"ş":{"ha":719,"x_min":54,"x_max":665,"o":"m 189 380 q 102 428 127 403 q 54 543 54 475 q 104 660 54 610 q 359 760 202 760 q 651 623 530 760 q 661 591 662 610 q 645 553 661 569 q 607 537 629 537 q 571 551 585 537 q 551 572 557 566 q 359 651 472 651 q 180 581 247 651 q 163 534 163 561 q 197 490 165 502 l 530 380 q 616 332 592 357 q 665 217 665 284 q 614 100 665 150 q 359 0 517 0 q 68 136 189 0 q 58 168 58 151 q 74 207 58 191 q 112 222 90 222 q 148 208 134 222 q 168 188 161 194 q 359 109 247 109 q 539 179 472 109 q 555 226 555 199 q 522 269 553 258 l 189 380 m 315 39 q 353 54 330 54 q 391 38 375 54 q 407 0 407 22 q 406 -13 407 -7 l 394 -54 q 441 -81 419 -64 q 488 -183 488 -123 q 440 -284 488 -243 q 326 -326 393 -326 q 248 -306 286 -326 l 186 -269 q 163 -224 163 -250 q 179 -185 163 -201 q 217 -170 195 -170 q 246 -178 233 -170 l 299 -210 q 326 -217 312 -217 q 364 -208 348 -217 q 380 -183 380 -199 q 364 -158 380 -168 q 326 -149 348 -149 q 287 -133 303 -149 q 271 -95 271 -117 q 274 -77 271 -85 l 300 16 q 315 39 304 28 z "},"Š":{"ha":719,"x_min":54,"x_max":665,"o":"m 65 149 q 54 181 54 163 q 70 219 54 203 q 109 235 86 235 q 155 210 138 235 q 174 186 163 197 q 321 109 231 117 q 479 160 411 102 q 555 308 548 218 q 505 466 563 398 q 357 542 447 534 q 172 637 245 551 q 109 835 100 722 q 203 1019 118 947 q 380 1085 280 1085 q 586 988 498 1085 q 612 951 601 970 q 621 922 621 939 q 605 884 621 900 q 566 868 589 868 q 528 884 541 868 q 503 918 516 901 q 393 975 459 969 q 274 936 326 980 q 217 826 222 892 q 255 707 212 759 q 366 650 299 656 q 588 536 500 639 q 665 330 665 446 q 663 299 665 315 q 550 78 652 165 q 342 0 458 0 q 91 115 196 0 q 65 149 77 131 m 359 1166 q 332 1174 344 1166 l 170 1282 q 142 1329 142 1302 q 158 1368 142 1352 q 197 1383 174 1383 q 231 1372 216 1383 l 359 1286 l 488 1372 q 522 1383 503 1383 q 561 1368 545 1383 q 576 1329 576 1352 q 549 1282 576 1302 l 387 1174 q 359 1166 375 1166 z "},"š":{"ha":719,"x_min":54,"x_max":665,"o":"m 189 380 q 102 428 127 403 q 54 543 54 475 q 104 660 54 610 q 359 760 202 760 q 651 623 530 760 q 661 591 662 610 q 645 553 661 569 q 607 537 629 537 q 571 551 585 537 q 551 572 557 566 q 359 651 472 651 q 180 581 247 651 q 163 534 163 561 q 197 490 165 502 l 530 380 q 616 332 592 357 q 665 217 665 284 q 614 100 665 150 q 359 0 517 0 q 68 136 189 0 q 58 168 58 151 q 74 207 58 191 q 112 222 90 222 q 148 208 134 222 q 168 188 161 194 q 359 109 247 109 q 539 179 472 109 q 555 226 555 199 q 522 269 553 258 l 189 380 m 359 841 q 332 848 344 841 l 170 956 q 142 1004 142 977 q 158 1042 142 1026 q 197 1058 174 1058 q 231 1046 216 1058 l 359 961 l 488 1046 q 522 1058 503 1058 q 561 1042 545 1058 q 576 1004 576 1026 q 549 956 576 977 l 387 848 q 359 841 375 841 z "},"Ţ":{"ha":922,"x_min":54,"x_max":868,"o":"m 109 977 q 70 992 86 977 q 54 1031 54 1008 q 70 1069 54 1053 q 109 1085 86 1085 l 814 1085 q 852 1069 836 1085 q 868 1031 868 1053 q 852 992 868 1008 q 814 977 836 977 l 515 977 l 515 54 q 499 16 515 32 q 461 0 484 0 q 423 16 439 0 q 407 54 407 32 l 407 977 l 109 977 m 423 92 q 461 108 439 108 q 499 92 484 108 q 515 54 515 76 q 514 41 515 47 l 503 0 q 549 -28 528 -10 q 597 -130 597 -69 q 549 -231 597 -190 q 434 -272 501 -272 q 357 -252 394 -272 l 295 -216 q 271 -170 271 -196 q 287 -132 271 -148 q 326 -116 303 -116 q 355 -124 342 -116 l 408 -157 q 434 -163 420 -163 q 472 -154 456 -163 q 488 -130 488 -145 q 472 -105 488 -114 q 434 -96 456 -96 q 396 -80 412 -96 q 380 -41 380 -64 q 382 -24 380 -32 l 409 69 q 423 92 413 82 z "},"ţ":{"ha":543,"x_min":54,"x_max":488,"o":"m 434 109 q 472 93 456 109 q 488 54 488 77 q 472 16 488 32 q 434 0 456 0 q 163 271 163 0 l 163 651 l 109 651 q 70 667 86 651 q 54 705 54 683 q 70 744 54 728 q 109 760 86 760 l 163 760 l 163 1031 q 179 1069 163 1053 q 217 1085 195 1085 q 255 1069 239 1085 q 271 1031 271 1053 l 271 760 l 380 760 q 419 744 403 760 q 435 705 435 728 q 419 667 435 683 q 380 651 403 651 l 271 651 l 271 271 q 434 109 271 109 m 315 52 q 353 68 330 68 q 391 52 375 68 q 407 14 407 36 q 406 1 407 7 l 394 -40 q 441 -68 419 -50 q 488 -170 488 -109 q 440 -271 488 -230 q 326 -312 393 -312 q 248 -292 286 -312 l 186 -256 q 163 -210 163 -236 q 179 -172 163 -188 q 217 -156 195 -156 q 246 -164 233 -156 l 299 -197 q 326 -203 312 -203 q 364 -194 348 -203 q 380 -170 380 -185 q 364 -145 380 -154 q 326 -136 348 -136 q 287 -120 303 -136 q 271 -81 271 -104 q 274 -64 271 -72 l 300 29 q 315 52 304 42 z "},"Ť":{"ha":922,"x_min":54,"x_max":868,"o":"m 109 977 q 70 992 86 977 q 54 1031 54 1008 q 70 1069 54 1053 q 109 1085 86 1085 l 814 1085 q 852 1069 836 1085 q 868 1031 868 1053 q 852 992 868 1008 q 814 977 836 977 l 515 977 l 515 54 q 499 16 515 32 q 461 0 484 0 q 423 16 439 0 q 407 54 407 32 l 407 977 l 109 977 m 461 1166 q 433 1174 446 1166 l 271 1282 q 244 1329 244 1302 q 260 1368 244 1352 q 298 1383 276 1383 q 332 1372 318 1383 l 461 1286 l 590 1372 q 624 1383 604 1383 q 662 1368 646 1383 q 678 1329 678 1352 q 651 1282 678 1302 l 489 1174 q 461 1166 477 1166 z "},"ť":{"ha":705,"x_min":54,"x_max":659,"o":"m 434 109 q 472 93 456 109 q 488 54 488 77 q 472 16 488 32 q 434 0 456 0 q 163 271 163 0 l 163 651 l 109 651 q 70 667 86 651 q 54 705 54 683 q 70 744 54 728 q 109 760 86 760 l 163 760 l 163 1031 q 179 1069 163 1053 q 217 1085 195 1085 q 255 1069 239 1085 q 271 1031 271 1053 l 271 760 l 380 760 q 419 744 403 760 q 435 705 435 728 q 419 667 435 683 q 380 651 403 651 l 271 651 l 271 271 q 434 109 271 109 m 488 1017 q 508 1065 488 1045 q 555 1085 528 1085 q 616 1046 597 1085 q 659 892 659 970 q 556 649 659 773 q 528 637 545 637 q 499 649 511 637 q 488 677 488 661 q 491 695 488 687 q 493 990 557 856 q 488 1017 488 1002 z "},"Ŧ":{"ha":922,"x_min":54,"x_max":868,"o":"m 407 543 l 407 977 l 109 977 q 70 992 86 977 q 54 1031 54 1008 q 70 1069 54 1053 q 109 1085 86 1085 l 814 1085 q 852 1069 836 1085 q 868 1031 868 1053 q 852 992 868 1008 q 814 977 836 977 l 515 977 l 515 543 l 732 543 q 771 527 755 543 q 787 488 787 511 q 771 450 787 466 q 732 434 755 434 l 515 434 l 515 54 q 499 16 515 32 q 461 0 484 0 q 423 16 439 0 q 407 54 407 32 l 407 434 l 190 434 q 152 450 168 434 q 136 488 136 466 q 152 527 136 511 q 190 543 168 543 l 407 543 z "},"ŧ":{"ha":543,"x_min":54,"x_max":488,"o":"m 271 380 l 271 271 q 434 109 271 109 q 472 93 456 109 q 488 54 488 77 q 472 16 488 32 q 434 0 456 0 q 163 271 163 0 l 163 380 l 108 380 q 70 396 85 380 q 54 434 54 412 q 70 472 54 456 q 108 488 85 488 l 163 488 l 163 651 l 109 651 q 70 667 86 651 q 54 705 54 683 q 70 744 54 728 q 109 760 86 760 l 163 760 l 163 1031 q 179 1069 163 1053 q 217 1085 195 1085 q 255 1069 239 1085 q 271 1031 271 1053 l 271 760 l 380 760 q 419 744 403 760 q 435 705 435 728 q 419 667 435 683 q 380 651 403 651 l 271 651 l 271 488 l 380 488 q 418 472 402 488 q 434 434 434 456 q 418 396 434 412 q 380 380 402 380 l 271 380 z "},"Ũ":{"ha":868,"x_min":54,"x_max":814,"o":"m 54 1031 q 70 1069 54 1053 q 109 1085 86 1085 q 147 1069 131 1085 q 163 1031 163 1053 l 163 380 q 242 188 163 267 q 434 109 321 109 q 626 188 547 109 q 705 380 705 267 l 705 1031 q 721 1069 705 1053 q 760 1085 737 1085 q 798 1069 782 1085 q 814 1031 814 1053 l 814 380 q 703 111 814 222 q 434 0 591 0 q 165 111 277 0 q 54 380 54 222 l 54 1031 m 472 1221 q 328 1167 411 1167 q 174 1231 238 1167 q 159 1269 159 1247 q 175 1307 159 1291 q 214 1323 191 1323 q 252 1308 235 1323 q 328 1276 283 1276 q 396 1299 366 1276 q 540 1354 456 1354 q 694 1290 630 1354 q 709 1252 709 1274 q 693 1214 709 1230 q 654 1198 677 1198 q 616 1213 633 1198 q 540 1245 585 1245 q 472 1221 501 1245 z "},"ũ":{"ha":814,"x_min":54,"x_max":760,"o":"m 760 54 q 744 16 760 32 q 705 0 728 0 q 667 16 683 0 q 651 54 651 32 l 651 98 q 407 0 549 0 q 158 103 261 0 q 54 353 54 207 l 54 705 q 70 744 54 728 q 109 760 86 760 q 147 744 131 760 q 163 705 163 728 l 163 353 q 234 180 163 252 q 407 109 306 109 q 579 180 508 109 q 651 353 651 252 l 651 705 q 667 744 651 728 q 705 760 683 760 q 744 744 728 760 q 760 705 760 728 l 760 54 m 445 896 q 301 842 384 842 q 147 905 211 842 q 132 943 132 922 q 148 982 132 966 q 186 998 164 998 q 224 983 208 998 q 301 950 256 950 q 369 974 339 950 q 513 1028 429 1028 q 667 964 603 1028 q 682 926 682 948 q 666 888 682 904 q 627 872 650 872 q 589 887 606 872 q 513 920 557 920 q 445 896 474 920 z "},"Ū":{"ha":868,"x_min":54,"x_max":814,"o":"m 54 1031 q 70 1069 54 1053 q 109 1085 86 1085 q 147 1069 131 1085 q 163 1031 163 1053 l 163 380 q 242 188 163 267 q 434 109 321 109 q 626 188 547 109 q 705 380 705 267 l 705 1031 q 721 1069 705 1053 q 760 1085 737 1085 q 798 1069 782 1085 q 814 1031 814 1053 l 814 380 q 703 111 814 222 q 434 0 591 0 q 165 111 277 0 q 54 380 54 222 l 54 1031 m 271 1194 q 233 1210 249 1194 q 217 1248 217 1225 q 233 1286 217 1270 q 271 1302 249 1302 l 597 1302 q 635 1286 619 1302 q 651 1248 651 1270 q 635 1210 651 1225 q 597 1194 619 1194 l 271 1194 z "},"ū":{"ha":814,"x_min":54,"x_max":760,"o":"m 760 54 q 744 16 760 32 q 705 0 728 0 q 667 16 683 0 q 651 54 651 32 l 651 98 q 407 0 549 0 q 158 103 261 0 q 54 353 54 207 l 54 705 q 70 744 54 728 q 109 760 86 760 q 147 744 131 760 q 163 705 163 728 l 163 353 q 234 180 163 252 q 407 109 306 109 q 579 180 508 109 q 651 353 651 252 l 651 705 q 667 744 651 728 q 705 760 683 760 q 744 744 728 760 q 760 705 760 728 l 760 54 m 244 868 q 206 884 222 868 q 190 922 190 900 q 206 961 190 945 q 244 977 222 977 l 570 977 q 608 961 592 977 q 624 922 624 945 q 608 884 624 900 q 570 868 592 868 l 244 868 z "},"Ŭ":{"ha":868,"x_min":54,"x_max":814,"o":"m 54 1031 q 70 1069 54 1053 q 109 1085 86 1085 q 147 1069 131 1085 q 163 1031 163 1053 l 163 380 q 242 188 163 267 q 434 109 321 109 q 626 188 547 109 q 705 380 705 267 l 705 1031 q 721 1069 705 1053 q 760 1085 737 1085 q 798 1069 782 1085 q 814 1031 814 1053 l 814 380 q 703 111 814 222 q 434 0 591 0 q 165 111 277 0 q 54 380 54 222 l 54 1031 m 221 1329 q 237 1368 221 1352 q 275 1383 253 1383 q 314 1368 298 1383 q 330 1329 330 1352 q 361 1291 330 1307 q 438 1275 393 1275 q 515 1291 483 1275 q 547 1329 547 1307 q 563 1368 547 1352 q 602 1383 579 1383 q 640 1368 624 1383 q 656 1329 656 1352 q 592 1215 652 1258 q 438 1166 528 1166 q 284 1214 348 1166 q 221 1329 221 1262 z "},"ŭ":{"ha":814,"x_min":54,"x_max":760,"o":"m 760 54 q 744 16 760 32 q 705 0 728 0 q 667 16 683 0 q 651 54 651 32 l 651 98 q 407 0 549 0 q 158 103 261 0 q 54 353 54 207 l 54 705 q 70 744 54 728 q 109 760 86 760 q 147 744 131 760 q 163 705 163 728 l 163 353 q 234 180 163 252 q 407 109 306 109 q 579 180 508 109 q 651 353 651 252 l 651 705 q 667 744 651 728 q 705 760 683 760 q 744 744 728 760 q 760 705 760 728 l 760 54 m 194 1004 q 210 1042 194 1026 q 248 1058 226 1058 q 287 1042 271 1058 q 302 1004 302 1026 q 334 965 302 981 q 411 949 366 949 q 488 965 456 949 q 520 1004 520 981 q 536 1042 520 1026 q 574 1058 552 1058 q 613 1042 597 1058 q 629 1004 629 1026 q 565 889 625 932 q 411 841 501 841 q 257 889 321 841 q 194 1004 194 937 z "},"Ů":{"ha":868,"x_min":54,"x_max":814,"o":"m 54 1031 q 70 1069 54 1053 q 109 1085 86 1085 q 147 1069 131 1085 q 163 1031 163 1053 l 163 380 q 242 188 163 267 q 434 109 321 109 q 626 188 547 109 q 705 380 705 267 l 705 1031 q 721 1069 705 1053 q 760 1085 737 1085 q 798 1069 782 1085 q 814 1031 814 1053 l 814 380 q 703 111 814 222 q 434 0 591 0 q 165 111 277 0 q 54 380 54 222 l 54 1031 m 571 1274 q 531 1177 571 1217 q 435 1137 491 1137 q 338 1177 378 1137 q 298 1274 298 1217 q 338 1371 298 1331 q 435 1411 378 1411 q 531 1371 491 1411 q 571 1274 571 1331 m 435 1342 q 386 1322 406 1342 q 366 1274 366 1302 q 386 1226 366 1246 q 435 1206 406 1206 q 483 1226 463 1206 q 503 1274 503 1246 q 483 1322 503 1302 q 435 1342 463 1342 z "},"ů":{"ha":814,"x_min":54,"x_max":760,"o":"m 760 54 q 744 16 760 32 q 705 0 728 0 q 667 16 683 0 q 651 54 651 32 l 651 98 q 407 0 549 0 q 158 103 261 0 q 54 353 54 207 l 54 705 q 70 744 54 728 q 109 760 86 760 q 147 744 131 760 q 163 705 163 728 l 163 353 q 234 180 163 252 q 407 109 306 109 q 579 180 508 109 q 651 353 651 252 l 651 705 q 667 744 651 728 q 705 760 683 760 q 744 744 728 760 q 760 705 760 728 l 760 54 m 544 949 q 504 852 544 892 q 408 812 464 812 q 311 852 351 812 q 271 949 271 892 q 311 1045 271 1005 q 408 1085 351 1085 q 504 1045 464 1085 q 544 949 544 1005 m 408 1017 q 359 997 379 1017 q 339 949 339 977 q 359 900 339 920 q 408 880 379 880 q 455 900 435 880 q 475 949 475 920 q 455 997 475 977 q 408 1017 435 1017 z "},"Ű":{"ha":868,"x_min":54,"x_max":814,"o":"m 54 1031 q 70 1069 54 1053 q 109 1085 86 1085 q 147 1069 131 1085 q 163 1031 163 1053 l 163 380 q 242 188 163 267 q 434 109 321 109 q 626 188 547 109 q 705 380 705 267 l 705 1031 q 721 1069 705 1053 q 760 1085 737 1085 q 798 1069 782 1085 q 814 1031 814 1053 l 814 380 q 703 111 814 222 q 434 0 591 0 q 165 111 277 0 q 54 380 54 222 l 54 1031 m 323 1152 q 285 1126 311 1128 q 248 1151 260 1126 q 244 1167 244 1159 q 247 1182 244 1175 l 309 1377 q 338 1407 317 1397 q 359 1411 349 1411 q 379 1407 369 1411 q 409 1378 400 1399 q 410 1337 418 1358 l 323 1152 m 533 1152 q 495 1126 522 1128 q 458 1151 470 1126 q 454 1167 454 1159 q 457 1182 454 1175 l 519 1377 q 548 1407 527 1397 q 569 1411 559 1411 q 589 1407 579 1411 q 619 1378 610 1399 q 620 1337 628 1358 l 533 1152 z "},"ű":{"ha":814,"x_min":54,"x_max":760,"o":"m 760 54 q 744 16 760 32 q 705 0 728 0 q 667 16 683 0 q 651 54 651 32 l 651 98 q 407 0 549 0 q 158 103 261 0 q 54 353 54 207 l 54 705 q 70 744 54 728 q 109 760 86 760 q 147 744 131 760 q 163 705 163 728 l 163 353 q 234 180 163 252 q 407 109 306 109 q 579 180 508 109 q 651 353 651 252 l 651 705 q 667 744 651 728 q 705 760 683 760 q 744 744 728 760 q 760 705 760 728 l 760 54 m 296 827 q 258 801 284 802 q 220 825 233 801 q 217 842 217 833 q 220 857 217 849 l 281 1051 q 311 1081 290 1072 q 332 1085 321 1085 q 352 1082 342 1085 q 382 1053 373 1074 q 382 1011 391 1032 l 296 827 m 506 827 q 468 801 494 802 q 431 825 443 801 q 427 842 427 833 q 430 857 427 849 l 492 1051 q 521 1081 500 1072 q 542 1085 532 1085 q 562 1082 552 1085 q 592 1053 583 1074 q 593 1011 601 1032 l 506 827 z "},"Ų":{"ha":868,"x_min":54,"x_max":814,"o":"m 54 1031 q 70 1069 54 1053 q 109 1085 86 1085 q 147 1069 131 1085 q 163 1031 163 1053 l 163 380 q 242 188 163 267 q 434 109 321 109 q 626 188 547 109 q 705 380 705 267 l 705 1031 q 721 1069 705 1053 q 760 1085 737 1085 q 798 1069 782 1085 q 814 1031 814 1053 l 814 380 q 703 111 814 222 q 434 0 591 0 q 165 111 277 0 q 54 380 54 222 l 54 1031 m 387 26 q 434 54 400 54 q 473 39 456 54 q 488 2 488 23 q 487 -14 488 -7 q 404 -116 477 -63 q 380 -161 380 -135 q 396 -199 380 -183 q 434 -215 412 -215 q 463 -206 450 -215 l 510 -172 q 543 -161 524 -161 q 581 -177 565 -161 q 597 -215 597 -193 q 578 -257 597 -242 l 524 -295 q 434 -323 482 -323 q 319 -276 367 -323 q 271 -161 271 -228 q 340 -28 271 -82 q 387 26 376 2 z "},"ų":{"ha":868,"x_min":54,"x_max":868,"o":"m 760 54 q 744 16 760 32 q 705 0 728 0 q 667 16 683 0 q 651 54 651 32 l 651 98 q 407 0 549 0 q 158 103 261 0 q 54 353 54 207 l 54 705 q 70 744 54 728 q 109 760 86 760 q 147 744 131 760 q 163 705 163 728 l 163 353 q 234 180 163 252 q 407 109 306 109 q 579 180 508 109 q 651 353 651 252 l 651 705 q 667 744 651 728 q 705 760 683 760 q 744 744 728 760 q 760 705 760 728 l 760 54 m 658 79 q 705 106 671 106 q 744 91 728 106 q 760 54 759 75 q 758 39 760 45 q 675 -64 748 -11 q 651 -109 651 -83 q 667 -147 651 -131 q 705 -163 683 -163 q 734 -154 722 -163 l 781 -119 q 814 -109 795 -109 q 852 -124 836 -109 q 868 -163 868 -140 q 849 -205 868 -190 l 795 -243 q 705 -271 753 -271 q 590 -223 638 -271 q 543 -109 543 -176 q 612 24 543 -30 q 658 79 648 54 z "},"Ŵ":{"ha":1302,"x_min":54,"x_max":1248,"o":"m 613 1069 q 651 1085 629 1085 q 690 1069 673 1085 q 703 1049 699 1060 l 922 257 l 1142 1049 q 1156 1069 1146 1060 q 1194 1085 1171 1085 q 1232 1069 1216 1085 q 1248 1031 1248 1053 q 1244 1007 1248 1019 l 978 45 q 961 16 972 28 q 922 0 945 0 q 884 16 900 0 q 867 45 872 28 l 651 826 l 435 45 q 418 16 430 28 q 380 0 402 0 q 342 16 357 0 q 325 45 330 28 l 58 1007 q 54 1031 54 1019 q 70 1069 54 1053 q 109 1085 86 1085 q 147 1069 131 1085 q 160 1049 156 1060 l 380 257 l 600 1049 q 613 1069 602 1059 m 679 1376 l 841 1268 q 868 1221 868 1248 q 852 1182 868 1198 q 814 1166 836 1166 q 780 1178 794 1166 l 651 1263 l 522 1178 q 488 1166 508 1166 q 450 1182 466 1166 q 434 1221 434 1198 q 461 1268 434 1248 l 623 1376 q 651 1383 635 1383 q 679 1376 667 1383 z "},"ŵ":{"ha":1085,"x_min":54,"x_max":1031,"o":"m 505 744 q 543 760 520 760 q 581 744 565 760 q 595 719 591 733 l 760 226 l 927 728 q 939 744 931 736 q 977 760 954 760 q 1015 744 999 760 q 1031 705 1031 728 q 1027 684 1031 694 l 810 35 q 798 15 806 24 q 760 0 782 0 q 722 15 737 0 q 709 35 713 24 l 543 534 l 376 35 q 364 15 372 24 q 326 0 348 0 q 288 15 303 0 q 275 35 279 24 l 58 684 q 54 705 54 694 q 70 744 54 728 q 109 760 86 760 q 147 744 131 760 q 158 728 154 736 l 326 226 l 490 719 q 505 744 494 733 m 570 1050 l 732 943 q 760 895 760 922 q 744 857 760 873 q 705 841 728 841 q 671 852 686 841 l 543 938 l 414 852 q 380 841 399 841 q 341 857 357 841 q 326 895 326 873 q 353 943 326 922 l 515 1050 q 543 1058 527 1058 q 570 1050 558 1058 z "},"Ŷ":{"ha":868,"x_min":54,"x_max":814,"o":"m 488 54 q 472 16 488 32 q 434 0 456 0 q 396 16 412 0 q 380 54 380 32 l 380 526 l 63 1000 q 54 1031 54 1014 q 70 1069 54 1053 q 109 1085 86 1085 q 153 1063 136 1085 l 434 641 l 715 1063 q 760 1085 732 1085 q 798 1069 782 1085 q 814 1031 814 1053 q 805 1000 814 1014 l 488 526 l 488 54 m 462 1376 l 624 1268 q 651 1221 651 1248 q 635 1182 651 1198 q 597 1166 619 1166 q 563 1178 577 1166 l 434 1263 l 305 1178 q 271 1166 291 1166 q 233 1182 249 1166 q 217 1221 217 1198 q 244 1268 217 1248 l 406 1376 q 434 1383 418 1383 q 462 1376 450 1383 z "},"ŷ":{"ha":760,"x_min":54,"x_max":705,"o":"m 321 55 l 60 680 q 54 705 54 692 q 70 744 54 728 q 109 760 86 760 q 147 744 131 760 q 160 724 156 734 l 380 197 l 600 724 q 613 744 604 734 q 651 760 629 760 q 689 744 673 760 q 705 705 705 728 q 699 680 705 692 l 295 -290 q 282 -309 291 -300 q 243 -326 266 -326 q 205 -310 221 -326 q 189 -271 189 -294 q 195 -246 189 -258 l 321 55 m 408 1050 l 570 943 q 597 895 597 922 q 581 857 597 873 q 543 841 565 841 q 509 852 523 841 l 380 938 l 251 852 q 217 841 237 841 q 179 857 195 841 q 163 895 163 873 q 190 943 163 922 l 352 1050 q 380 1058 364 1058 q 408 1050 395 1058 z "},"Ÿ":{"ha":868,"x_min":54,"x_max":814,"o":"m 488 54 q 472 16 488 32 q 434 0 456 0 q 396 16 412 0 q 380 54 380 32 l 380 526 l 63 1000 q 54 1031 54 1014 q 70 1069 54 1053 q 109 1085 86 1085 q 153 1063 136 1085 l 434 641 l 715 1063 q 760 1085 732 1085 q 798 1069 782 1085 q 814 1031 814 1053 q 805 1000 814 1014 l 488 526 l 488 54 m 339 1248 q 319 1200 339 1220 q 271 1180 299 1180 q 223 1200 243 1180 q 203 1248 203 1220 q 223 1296 203 1276 q 271 1316 243 1316 q 319 1296 299 1316 q 339 1248 339 1276 m 665 1248 q 645 1200 665 1220 q 597 1180 625 1180 q 549 1200 569 1180 q 529 1248 529 1220 q 549 1296 529 1276 q 597 1316 569 1316 q 645 1296 625 1316 q 665 1248 665 1276 z "},"Ź":{"ha":977,"x_min":54,"x_max":922,"o":"m 109 977 q 70 992 86 977 q 54 1031 54 1008 q 70 1069 54 1053 q 109 1085 86 1085 l 868 1085 q 906 1069 890 1085 q 922 1031 922 1053 q 913 1000 922 1013 l 220 109 l 868 109 q 906 93 890 109 q 922 54 922 77 q 906 16 922 32 q 868 0 890 0 l 109 0 q 70 16 86 0 q 54 54 54 32 q 66 88 54 73 l 757 977 l 109 977 m 654 1318 l 490 1154 q 452 1139 474 1139 q 414 1155 430 1139 q 398 1194 398 1171 q 412 1230 398 1215 l 576 1395 q 615 1411 593 1411 q 653 1395 637 1411 q 669 1356 669 1379 q 654 1318 669 1335 z "},"ź":{"ha":760,"x_min":54,"x_max":705,"o":"m 651 109 q 689 93 673 109 q 705 54 705 77 q 689 16 705 32 q 651 0 673 0 l 109 0 q 70 16 86 0 q 54 54 54 32 q 65 87 54 73 l 535 651 l 109 651 q 70 667 86 651 q 54 705 54 683 q 70 744 54 728 q 109 760 86 760 l 651 760 q 689 744 673 760 q 705 705 705 728 q 692 670 705 685 l 224 109 l 651 109 m 546 993 l 381 828 q 344 814 366 814 q 306 830 321 814 q 290 868 290 846 q 303 905 290 889 l 468 1069 q 507 1085 484 1085 q 545 1069 529 1085 q 561 1031 561 1053 q 546 993 561 1009 z "},"Ż":{"ha":977,"x_min":54,"x_max":922,"o":"m 109 977 q 70 992 86 977 q 54 1031 54 1008 q 70 1069 54 1053 q 109 1085 86 1085 l 868 1085 q 906 1069 890 1085 q 922 1031 922 1053 q 913 1000 922 1013 l 220 109 l 868 109 q 906 93 890 109 q 922 54 922 77 q 906 16 922 32 q 868 0 890 0 l 109 0 q 70 16 86 0 q 54 54 54 32 q 66 88 54 73 l 757 977 l 109 977 m 570 1249 q 546 1191 570 1215 q 488 1167 522 1167 q 431 1191 454 1167 q 407 1249 407 1215 q 431 1306 407 1282 q 488 1330 454 1330 q 546 1306 522 1330 q 570 1249 570 1282 z "},"ż":{"ha":760,"x_min":54,"x_max":705,"o":"m 651 109 q 689 93 673 109 q 705 54 705 77 q 689 16 705 32 q 651 0 673 0 l 109 0 q 70 16 86 0 q 54 54 54 32 q 65 87 54 73 l 535 651 l 109 651 q 70 667 86 651 q 54 705 54 683 q 70 744 54 728 q 109 760 86 760 l 651 760 q 689 744 673 760 q 705 705 705 728 q 692 670 705 685 l 224 109 l 651 109 m 461 923 q 437 865 461 889 q 380 842 414 842 q 322 865 346 842 q 298 923 298 889 q 322 981 298 957 q 380 1004 346 1004 q 437 981 414 1004 q 461 923 461 957 z "},"Ž":{"ha":977,"x_min":54,"x_max":922,"o":"m 109 977 q 70 992 86 977 q 54 1031 54 1008 q 70 1069 54 1053 q 109 1085 86 1085 l 868 1085 q 906 1069 890 1085 q 922 1031 922 1053 q 913 1000 922 1013 l 220 109 l 868 109 q 906 93 890 109 q 922 54 922 77 q 906 16 922 32 q 868 0 890 0 l 109 0 q 70 16 86 0 q 54 54 54 32 q 66 88 54 73 l 757 977 l 109 977 m 488 1166 q 460 1174 473 1166 l 298 1282 q 271 1329 271 1302 q 287 1368 271 1352 q 326 1383 303 1383 q 359 1372 345 1383 l 488 1286 l 617 1372 q 651 1383 631 1383 q 689 1368 673 1383 q 705 1329 705 1352 q 678 1282 705 1302 l 516 1174 q 488 1166 504 1166 z "},"ž":{"ha":760,"x_min":54,"x_max":705,"o":"m 651 109 q 689 93 673 109 q 705 54 705 77 q 689 16 705 32 q 651 0 673 0 l 109 0 q 70 16 86 0 q 54 54 54 32 q 65 87 54 73 l 535 651 l 109 651 q 70 667 86 651 q 54 705 54 683 q 70 744 54 728 q 109 760 86 760 l 651 760 q 689 744 673 760 q 705 705 705 728 q 692 670 705 685 l 224 109 l 651 109 m 380 841 q 352 848 364 841 l 190 956 q 163 1004 163 977 q 179 1042 163 1026 q 217 1058 195 1058 q 251 1046 237 1058 l 380 961 l 509 1046 q 543 1058 523 1058 q 581 1042 565 1058 q 597 1004 597 1026 q 570 956 597 977 l 408 848 q 380 841 395 841 z "},"ſ":{"ha":434,"x_min":54,"x_max":434,"o":"m 380 1085 q 418 1069 402 1085 q 434 1031 434 1053 q 418 992 434 1008 q 380 977 402 977 q 163 760 163 977 l 163 54 q 147 16 163 32 q 109 0 131 0 q 70 16 86 0 q 54 54 54 32 l 54 760 q 380 1085 54 1085 z "},"ƒ":{"ha":651,"x_min":0,"x_max":651,"o":"m 272 0 l 271 610 l 217 610 q 179 626 195 610 q 163 665 163 642 q 179 703 163 687 q 217 719 195 719 l 271 719 l 271 760 q 597 1085 271 1085 q 635 1069 619 1085 q 651 1031 651 1053 q 635 992 651 1008 q 597 977 619 977 q 380 760 380 977 l 380 719 l 543 719 q 582 703 566 719 q 597 665 597 687 q 582 626 597 642 q 543 610 566 610 l 380 610 l 380 0 l 380 0 q 54 -326 380 -326 q 16 -310 32 -326 q 0 -271 0 -294 q 16 -233 0 -249 q 54 -217 32 -217 q 271 0 271 -217 l 272 0 z "},"Ǻ":{"ha":977,"x_min":54,"x_max":922,"o":"m 641 488 l 488 881 l 336 488 l 641 488 m 488 1222 q 439 1202 459 1222 q 419 1154 419 1182 q 439 1106 419 1126 q 488 1086 459 1086 q 535 1106 515 1086 q 555 1154 555 1126 q 535 1202 555 1182 q 488 1222 515 1222 m 547 1031 l 918 77 q 922 54 922 67 q 906 16 922 32 q 868 0 890 0 q 830 16 846 0 q 818 33 822 24 l 683 380 l 294 380 l 159 33 q 147 16 155 24 q 109 0 131 0 q 70 16 86 0 q 54 54 54 32 q 59 77 54 67 l 429 1029 q 391 1057 408 1040 q 351 1154 351 1097 q 400 1259 351 1213 q 380 1302 380 1280 q 393 1339 380 1323 l 450 1395 q 488 1411 466 1411 q 527 1395 511 1411 q 543 1356 543 1379 q 528 1318 543 1335 l 499 1290 q 584 1251 548 1286 q 624 1154 624 1211 q 584 1057 624 1097 q 547 1031 567 1040 z "}}}
